SplineFontDB: 3.2
FontName: TengwarMiriel-Ital
FullName: Tengwar Miriel Italic
FamilyName: Tengwar Miriel
Weight: Book
Copyright: Shankar Sivarajan.\nBased on Tengwar Tellepsalinnacontar by Bas van Hoorn.
Version: 
ItalicAngle: 0
UnderlinePosition: -292
UnderlineWidth: 150
Ascent: 1638
Descent: 410
InvalidEm: 0
LayerCount: 2
Layer: 0 1 "Back" 1
Layer: 1 1 "Fore" 0
XUID: [1021 146 -1796264217 4951]
StyleMap: 0x0001
FSType: 0
OS2Version: 3
OS2_WeightWidthSlopeOnly: 0
OS2_UseTypoMetrics: 0
CreationTime: 1275331864
ModificationTime: 1687027136
PfmFamily: 33
TTFWeight: 400
TTFWidth: 5
LineGap: 67
VLineGap: 0
Panose: 2 11 6 4 2 2 2 2 2 4
OS2TypoAscent: 1491
OS2TypoAOffset: 0
OS2TypoDescent: -431
OS2TypoDOffset: 0
OS2TypoLinegap: 307
OS2WinAscent: 1854
OS2WinAOffset: 0
OS2WinDescent: 434
OS2WinDOffset: 0
HheadAscent: 1854
HheadAOffset: 0
HheadDescent: -434
HheadDOffset: 0
OS2SubXSize: 1434
OS2SubYSize: 1331
OS2SubXOff: 0
OS2SubYOff: 283
OS2SupXSize: 1434
OS2SupYSize: 1331
OS2SupXOff: 0
OS2SupYOff: 977
OS2StrikeYSize: 102
OS2StrikeYPos: 512
OS2CapHeight: 1466
OS2XHeight: 1062
OS2FamilyClass: 2053
OS2Vendor: 'HL  '
OS2CodePages: 20000011.00000000
OS2UnicodeRanges: 800000af.1000005a.00000000.00000000
Lookup: 6 0 0 "WidthAdjust" { "WidthAdjust contextual 0"  "WidthAdjust contextual 1"  "WidthAdjust contextual 2"  "WidthAdjust contextual 3"  "WidthAdjust contextual 4"  "WidthAdjust contextual 5"  "WidthAdjust contextual 6"  "WidthAdjust contextual 7"  } ['liga' ('latn' <'dflt' > 'DFLT' <'dflt' > ) ]
Lookup: 1 0 0 "Single Substitution lookup 1" { "Single Substitution lookup 1 subtable"  } []
Lookup: 1 0 0 "Single Substitution lookup 2" { "Single Substitution lookup 2 subtable"  } []
Lookup: 1 0 0 "Single Substitution lookup 3" { "Single Substitution lookup 3 subtable"  } []
Lookup: 1 0 0 "Single Substitution lookup 4" { "Single Substitution lookup 4 subtable"  } []
Lookup: 1 0 0 "Single Substitution lookup 5" { "Single Substitution lookup 5 subtable"  } []

StartChar: .notdef
Encoding: 126 -1 0
Width: 1553
GlyphClass: 1
Flags: W
LayerCount: 2
Fore
SplineSet
252 0 m 1,0,-1
 477 1063 l 1,1,-1
 1540 1063 l 1,2,-1
 1315 0 l 1,3,-1
 252 0 l 1,0,-1
368 95 m 1,4,-1
 1239 95 l 1,5,-1
 1424 968 l 1,6,-1
 553 968 l 1,7,-1
 368 95 l 1,4,-1
EndSplineSet
Validated: 1
EndChar

StartChar: uniE000
Encoding: 8 57344 4
Width: 1093
GlyphClass: 1
Flags: W
AnchorPoint: "TehtaBelow" 793 -200 basechar 0
AnchorPoint: "TehtaAbove" 893 1500 basechar 0
LayerCount: 2
Fore
SplineSet
228 -406 m 1,0,-1
 40 -406 l 1,1,-1
 352 1061 l 1,2,-1
 540 1061 l 1,3,-1
 512 928 l 1,4,5
 654 1085 654 1085 847 1085 c 0,6,7
 931 1085 931 1085 995.5 1050 c 128,-1,8
 1060 1015 1060 1015 1097.5 946.5 c 128,-1,9
 1135 878 1135 878 1143.5 778 c 128,-1,10
 1152 678 1152 678 1124 549 c 0,11,12
 1095 414 1095 414 1026.5 279 c 128,-1,13
 958 144 958 144 849 0 c 1,14,-1
 664 0 l 1,15,16
 743 121 743 121 793.5 207.5 c 128,-1,17
 844 294 844 294 866 346 c 0,18,19
 890 401 890 401 907.5 452.5 c 128,-1,20
 925 504 925 504 935 555 c 0,21,22
 954 641 954 641 953 711.5 c 128,-1,23
 952 782 952 782 933.5 832 c 128,-1,24
 915 882 915 882 879.5 909 c 128,-1,25
 844 936 844 936 794 936 c 0,26,27
 738 936 738 936 685.5 912 c 128,-1,28
 633 888 633 888 588.5 850 c 128,-1,29
 544 812 544 812 510.5 766 c 128,-1,30
 477 720 477 720 458 677 c 1,31,-1
 228 -406 l 1,0,-1
EndSplineSet
Validated: 33
EndChar

StartChar: uniE001
Encoding: 9 57345 5
Width: 1170
GlyphClass: 1
Flags: W
AnchorPoint: "TehtaAbove" 970 1500 basechar 0
AnchorPoint: "TehtaBelow" 870 -200 basechar 0
LayerCount: 2
Fore
SplineSet
762 155 m 1,0,1
 801 218 801 218 826 264.5 c 128,-1,2
 851 311 851 311 866 346 c 0,3,4
 919 465 919 465 938 555 c 0,5,6
 956 636 956 636 954.5 706 c 128,-1,7
 953 776 953 776 935 827 c 128,-1,8
 917 878 917 878 881.5 907 c 128,-1,9
 846 936 846 936 794 936 c 0,10,11
 754 936 754 936 714 922.5 c 128,-1,12
 674 909 674 909 636.5 885 c 128,-1,13
 599 861 599 861 566 829 c 128,-1,14
 533 797 533 797 509 761 c 0,15,16
 471 704 471 704 442 631.5 c 128,-1,17
 413 559 413 559 394 468 c 0,18,19
 373 369 373 369 361.5 292 c 128,-1,20
 350 215 350 215 346 155 c 1,21,-1
 762 155 l 1,0,1
315 0 m 1,22,-1
 228 -406 l 1,23,-1
 40 -406 l 1,24,-1
 352 1061 l 1,25,-1
 540 1061 l 1,26,-1
 512 928 l 1,27,28
 654 1085 654 1085 848 1085 c 0,29,30
 932 1085 932 1085 996 1049.5 c 128,-1,31
 1060 1014 1060 1014 1097.5 946 c 128,-1,32
 1135 878 1135 878 1143.5 778 c 128,-1,33
 1152 678 1152 678 1124 549 c 0,34,35
 1083 354 1083 354 957 155 c 1,36,-1
 1116 155 l 1,37,-1
 1084 0 l 1,38,-1
 315 0 l 1,22,-1
EndSplineSet
Validated: 33
EndChar

StartChar: uniE002
Encoding: 10 57346 6
Width: 1095
GlyphClass: 1
Flags: W
AnchorPoint: "TehtaBelow" 595 -200 basechar 0
AnchorPoint: "TehtaAbove" 895 1500 basechar 0
LayerCount: 2
Fore
SplineSet
988 1061 m 1,0,-1
 1175 1061 l 1,1,-1
 863 -406 l 1,2,-1
 676 -406 l 1,3,-1
 791 132 l 1,4,5
 648 -25 648 -25 453 -25 c 0,6,7
 369 -25 369 -25 305 11 c 128,-1,8
 241 47 241 47 204 115.5 c 128,-1,9
 167 184 167 184 158.5 284 c 128,-1,10
 150 384 150 384 177 512 c 0,11,12
 206 646 206 646 274.5 781 c 128,-1,13
 343 916 343 916 453 1061 c 1,14,-1
 638 1061 l 1,15,16
 558 939 558 939 509.5 857.5 c 128,-1,17
 461 776 461 776 433.5 716 c 128,-1,18
 406 656 406 656 392 608 c 128,-1,19
 378 560 378 560 366 506 c 0,20,21
 347 417 347 417 348.5 346.5 c 128,-1,22
 350 276 350 276 369 226.5 c 128,-1,23
 388 177 388 177 422.5 150.5 c 128,-1,24
 457 124 457 124 504 124 c 2,25,-1
 508 124 l 2,26,27
 563 124 563 124 615 147.5 c 128,-1,28
 667 171 667 171 712 208 c 128,-1,29
 757 245 757 245 791 291.5 c 128,-1,30
 825 338 825 338 844 383 c 1,31,-1
 988 1061 l 1,0,-1
EndSplineSet
Validated: 33
EndChar

StartChar: uniE003
Encoding: 11 57347 7
Width: 1172
GlyphClass: 1
Flags: W
AnchorPoint: "TehtaAbove" 972 1500 basechar 0
AnchorPoint: "TehtaBelow" 672 -200 basechar 0
LayerCount: 2
Fore
SplineSet
616 906 m 1,0,1
 569 830 569 830 538.5 771.5 c 128,-1,2
 508 713 508 713 488.5 666 c 128,-1,3
 469 619 469 619 458.5 580.5 c 128,-1,4
 448 542 448 542 440 506 c 0,5,6
 422 422 422 422 423 351.5 c 128,-1,7
 424 281 424 281 443 230.5 c 128,-1,8
 462 180 462 180 497.5 152 c 128,-1,9
 533 124 533 124 584 124 c 0,10,11
 623 124 623 124 662 137 c 128,-1,12
 701 150 701 150 738.5 173.5 c 128,-1,13
 776 197 776 197 809.5 229 c 128,-1,14
 843 261 843 261 869 299 c 0,15,16
 944 407 944 407 983 589 c 1,17,-1
 985 602 l 1,18,19
 1004 696 1004 696 1015 771 c 128,-1,20
 1026 846 1026 846 1031 906 c 1,21,-1
 616 906 l 1,0,1
295 1061 m 1,22,-1
 1251 1061 l 1,23,-1
 939 -405 l 1,24,-1
 752 -405 l 1,25,-1
 867 132 l 1,26,27
 724 -25 724 -25 530 -25 c 0,28,29
 446 -25 446 -25 382 10 c 128,-1,30
 318 45 318 45 280.5 113.5 c 128,-1,31
 243 182 243 182 235 282 c 128,-1,32
 227 382 227 382 254 512 c 0,33,34
 295 705 295 705 420 906 c 1,35,-1
 262 906 l 1,36,-1
 295 1061 l 1,22,-1
EndSplineSet
Validated: 33
EndChar

StartChar: uniE004
Encoding: 12 57348 8
Width: 1729
GlyphClass: 1
Flags: W
AnchorPoint: "TehtaAbove" 1229 1500 basechar 0
AnchorPoint: "TehtaBelow" 1029 -200 basechar 0
LayerCount: 2
Fore
SplineSet
229 -406 m 1,0,-1
 41 -406 l 1,1,-1
 353 1061 l 1,2,-1
 541 1061 l 1,3,-1
 513 928 l 1,4,5
 655 1085 655 1085 846 1085 c 0,6,7
 1041 1085 1041 1085 1116 893 c 1,8,9
 1191 990 1191 990 1281.5 1037.5 c 128,-1,10
 1372 1085 1372 1085 1465 1085 c 0,11,12
 1562 1085 1562 1085 1629.5 1048 c 128,-1,13
 1697 1011 1697 1011 1734.5 941.5 c 128,-1,14
 1772 872 1772 872 1777.5 772.5 c 128,-1,15
 1783 673 1783 673 1756 549 c 0,16,17
 1727 414 1727 414 1658.5 279 c 128,-1,18
 1590 144 1590 144 1481 0 c 1,19,-1
 1298 0 l 1,20,21
 1375 121 1375 121 1426 207.5 c 128,-1,22
 1477 294 1477 294 1500 346 c 0,23,24
 1522 400 1522 400 1539.5 453.5 c 128,-1,25
 1557 507 1557 507 1567 555 c 0,26,27
 1586 643 1586 643 1584.5 714 c 128,-1,28
 1583 785 1583 785 1564.5 834 c 128,-1,29
 1546 883 1546 883 1511 909.5 c 128,-1,30
 1476 936 1476 936 1427 936 c 0,31,32
 1375 936 1375 936 1327.5 908.5 c 128,-1,33
 1280 881 1280 881 1239.5 830.5 c 128,-1,34
 1199 780 1199 780 1168 708.5 c 128,-1,35
 1137 637 1137 637 1118 549 c 0,36,37
 1089 413 1089 413 1021 278 c 128,-1,38
 953 143 953 143 845 0 c 1,39,-1
 660 0 l 1,40,41
 738 122 738 122 786.5 205 c 128,-1,42
 835 288 835 288 863.5 348.5 c 128,-1,43
 892 409 892 409 906.5 456.5 c 128,-1,44
 921 504 921 504 931 555 c 0,45,46
 950 640 950 640 948.5 710 c 128,-1,47
 947 780 947 780 929 830.5 c 128,-1,48
 911 881 911 881 876 908.5 c 128,-1,49
 841 936 841 936 792 936 c 256,50,51
 743 936 743 936 692 914.5 c 128,-1,52
 641 893 641 893 595 857.5 c 128,-1,53
 549 822 549 822 513.5 776 c 128,-1,54
 478 730 478 730 460 681 c 1,55,-1
 229 -406 l 1,0,-1
EndSplineSet
Validated: 33
EndChar

StartChar: uniE005
Encoding: 13 57349 9
Width: 1810
GlyphClass: 1
Flags: W
AnchorPoint: "TehtaBelow" 1110 -200 basechar 0
AnchorPoint: "TehtaAbove" 1310 1500 basechar 0
LayerCount: 2
Fore
SplineSet
316 0 m 1,0,-1
 229 -406 l 1,1,-1
 42 -406 l 1,2,-1
 354 1061 l 1,3,-1
 541 1061 l 1,4,-1
 513 928 l 1,5,6
 655 1085 655 1085 847 1085 c 0,7,8
 943 1085 943 1085 1012 1037 c 128,-1,9
 1081 989 1081 989 1117 892 c 1,10,11
 1192 989 1192 989 1282 1037 c 128,-1,12
 1372 1085 1372 1085 1465 1085 c 0,13,14
 1565 1085 1565 1085 1633 1046.5 c 128,-1,15
 1701 1008 1701 1008 1737 937.5 c 128,-1,16
 1773 867 1773 867 1778 768.5 c 128,-1,17
 1783 670 1783 670 1757 549 c 0,18,19
 1716 356 1716 356 1590 155 c 1,20,-1
 1753 155 l 1,21,-1
 1721 0 l 1,22,-1
 316 0 l 1,0,-1
1395 155 m 1,23,24
 1442 231 1442 231 1471.5 286 c 128,-1,25
 1501 341 1501 341 1519.5 386 c 128,-1,26
 1538 431 1538 431 1549 470.5 c 128,-1,27
 1560 510 1560 510 1569 555 c 0,28,29
 1587 639 1587 639 1586 709 c 128,-1,30
 1585 779 1585 779 1567 829.5 c 128,-1,31
 1549 880 1549 880 1512.5 908 c 128,-1,32
 1476 936 1476 936 1425 936 c 256,33,34
 1374 936 1374 936 1327 908.5 c 128,-1,35
 1280 881 1280 881 1239.5 830 c 128,-1,36
 1199 779 1199 779 1168 707.5 c 128,-1,37
 1137 636 1137 636 1118 549 c 2,38,-1
 1117 544 l 2,39,40
 1097 447 1097 447 1056 351 c 128,-1,41
 1015 255 1015 255 953 155 c 1,42,-1
 1395 155 l 1,23,24
758 155 m 1,43,44
 801 223 801 223 829.5 277.5 c 128,-1,45
 858 332 858 332 877.5 378.5 c 128,-1,46
 897 425 897 425 909.5 467.5 c 128,-1,47
 922 510 922 510 931 555 c 0,48,49
 950 643 950 643 948.5 713.5 c 128,-1,50
 947 784 947 784 928.5 833.5 c 128,-1,51
 910 883 910 883 875.5 909.5 c 128,-1,52
 841 936 841 936 793 936 c 0,53,54
 754 936 754 936 714.5 922.5 c 128,-1,55
 675 909 675 909 638 885.5 c 128,-1,56
 601 862 601 862 568 830 c 128,-1,57
 535 798 535 798 510 761 c 0,58,59
 433 649 433 649 395 467 c 0,60,61
 374 369 374 369 362.5 292 c 128,-1,62
 351 215 351 215 347 155 c 1,63,-1
 758 155 l 1,43,44
EndSplineSet
Validated: 33
EndChar

StartChar: uniE006
Encoding: 14 57350 10
Width: 1731
GlyphClass: 1
Flags: W
AnchorPoint: "TehtaAbove" 1231 1500 basechar 0
AnchorPoint: "TehtaBelow" 1031 -200 basechar 0
LayerCount: 2
Fore
SplineSet
1621 1061 m 1,0,-1
 1807 1061 l 1,1,-1
 1495 -405 l 1,2,-1
 1309 -405 l 1,3,-1
 1424 132 l 1,4,5
 1281 -25 1281 -25 1089 -25 c 0,6,7
 923 -25 923 -25 843 115 c 1,8,-1
 843 114 l 1,9,10
 834 126 834 126 829 139 c 128,-1,11
 824 152 824 152 819 166 c 1,12,13
 782 118 782 118 739.5 82 c 128,-1,14
 697 46 697 46 652 22 c 128,-1,15
 607 -2 607 -2 561.5 -13.5 c 128,-1,16
 516 -25 516 -25 471 -25 c 0,17,18
 372 -25 372 -25 304 13 c 128,-1,19
 236 51 236 51 199.5 121 c 128,-1,20
 163 191 163 191 158 290.5 c 128,-1,21
 153 390 153 390 179 512 c 0,22,23
 235 774 235 774 454 1061 c 1,24,-1
 639 1061 l 1,25,26
 586 979 586 979 547.5 916 c 128,-1,27
 509 853 509 853 481.5 803.5 c 128,-1,28
 454 754 454 754 435.5 715 c 128,-1,29
 417 676 417 676 404.5 642 c 128,-1,30
 392 608 392 608 383.5 575.5 c 128,-1,31
 375 543 375 543 367 506 c 0,32,33
 348 418 348 418 349.5 347.5 c 128,-1,34
 351 277 351 277 369.5 227.5 c 128,-1,35
 388 178 388 178 423.5 151 c 128,-1,36
 459 124 459 124 507 124 c 0,37,38
 561 124 561 124 609.5 152.5 c 128,-1,39
 658 181 658 181 698.5 232 c 128,-1,40
 739 283 739 283 769.5 354.5 c 128,-1,41
 800 426 800 426 818 512 c 0,42,43
 876 781 876 781 1092 1061 c 1,44,-1
 1276 1061 l 1,45,46
 1223 979 1223 979 1184.5 916 c 128,-1,47
 1146 853 1146 853 1118.5 803.5 c 128,-1,48
 1091 754 1091 754 1072.5 715 c 128,-1,49
 1054 676 1054 676 1041.5 642 c 128,-1,50
 1029 608 1029 608 1020.5 575.5 c 128,-1,51
 1012 543 1012 543 1004 506 c 0,52,53
 985 417 985 417 986.5 346.5 c 128,-1,54
 988 276 988 276 1007 226.5 c 128,-1,55
 1026 177 1026 177 1061 150.5 c 128,-1,56
 1096 124 1096 124 1143 124 c 0,57,58
 1188 124 1188 124 1239 144.5 c 128,-1,59
 1290 165 1290 165 1336.5 200.5 c 128,-1,60
 1383 236 1383 236 1420 282 c 128,-1,61
 1457 328 1457 328 1476 379 c 1,62,-1
 1621 1061 l 1,0,-1
EndSplineSet
Validated: 33
EndChar

StartChar: uniE007
Encoding: 15 57351 11
Width: 1812
GlyphClass: 1
Flags: W
AnchorPoint: "TehtaBelow" 1112 -200 basechar 0
AnchorPoint: "TehtaAbove" 1312 1500 basechar 0
LayerCount: 2
Fore
SplineSet
296 1061 m 1,0,-1
 1888 1061 l 1,1,-1
 1576 -406 l 1,2,-1
 1388 -406 l 1,3,-1
 1503 132 l 1,4,5
 1360 -25 1360 -25 1168 -25 c 0,6,7
 1003 -25 1003 -25 923 115 c 1,8,-1
 923 114 l 1,9,10
 914 126 914 126 909 139 c 128,-1,11
 904 152 904 152 899 166 c 1,12,13
 823 69 823 69 732 22 c 128,-1,14
 641 -25 641 -25 550 -25 c 0,15,16
 452 -25 452 -25 384 13 c 128,-1,17
 316 51 316 51 279.5 120.5 c 128,-1,18
 243 190 243 190 237.5 289.5 c 128,-1,19
 232 389 232 389 258 512 c 0,20,21
 300 706 300 706 426 906 c 1,22,-1
 263 906 l 1,23,-1
 296 1061 l 1,0,-1
620 906 m 1,24,25
 583 846 583 846 557 797.5 c 128,-1,26
 531 749 531 749 516 715 c 0,27,28
 492 658 492 658 474.5 604.5 c 128,-1,29
 457 551 457 551 447 506 c 0,30,31
 428 417 428 417 429.5 346.5 c 128,-1,32
 431 276 431 276 450 226.5 c 128,-1,33
 469 177 469 177 504.5 150.5 c 128,-1,34
 540 124 540 124 590 124 c 256,35,36
 640 124 640 124 687 151 c 128,-1,37
 734 178 734 178 774.5 228 c 128,-1,38
 815 278 815 278 846.5 350 c 128,-1,39
 878 422 878 422 897 512 c 0,40,41
 939 708 939 708 1063 906 c 1,42,-1
 620 906 l 1,24,25
1257 906 m 1,43,44
 1220 846 1220 846 1194.5 797.5 c 128,-1,45
 1169 749 1169 749 1153 715 c 0,46,47
 1128 658 1128 658 1111 604.5 c 128,-1,48
 1094 551 1094 551 1084 506 c 0,49,50
 1065 417 1065 417 1066.5 346.5 c 128,-1,51
 1068 276 1068 276 1087 226.5 c 128,-1,52
 1106 177 1106 177 1140.5 150.5 c 128,-1,53
 1175 124 1175 124 1223 124 c 0,54,55
 1261 124 1261 124 1301.5 138 c 128,-1,56
 1342 152 1342 152 1379 176 c 128,-1,57
 1416 200 1416 200 1449 232 c 128,-1,58
 1482 264 1482 264 1505 300 c 0,59,60
 1580 407 1580 407 1619 589 c 1,61,-1
 1621 602 l 1,62,63
 1640 696 1640 696 1651 771 c 128,-1,64
 1662 846 1662 846 1667 906 c 1,65,-1
 1257 906 l 1,43,44
EndSplineSet
Validated: 33
EndChar

StartChar: uniE008
Encoding: 16 57352 12
Width: 1093
GlyphClass: 1
Flags: W
AnchorPoint: "TehtaAbove" 993 1500 basechar 0
AnchorPoint: "TehtaBelow" 693 -200 basechar 0
LayerCount: 2
Fore
SplineSet
315 0 m 1,0,-1
 127 0 l 1,1,-1
 438 1465 l 1,2,-1
 626 1465 l 1,3,-1
 512 928 l 1,4,5
 654 1085 654 1085 847 1085 c 0,6,7
 931 1085 931 1085 995.5 1050 c 128,-1,8
 1060 1015 1060 1015 1097.5 946.5 c 128,-1,9
 1135 878 1135 878 1143.5 778 c 128,-1,10
 1152 678 1152 678 1124 549 c 0,11,12
 1095 414 1095 414 1026.5 279 c 128,-1,13
 958 144 958 144 849 0 c 1,14,-1
 664 0 l 1,15,16
 743 121 743 121 793.5 207.5 c 128,-1,17
 844 294 844 294 866 346 c 0,18,19
 890 401 890 401 907.5 452.5 c 128,-1,20
 925 504 925 504 935 555 c 0,21,22
 954 641 954 641 953 711.5 c 128,-1,23
 952 782 952 782 933.5 832 c 128,-1,24
 915 882 915 882 879.5 909 c 128,-1,25
 844 936 844 936 794 936 c 0,26,27
 738 936 738 936 685.5 912 c 128,-1,28
 633 888 633 888 588.5 850 c 128,-1,29
 544 812 544 812 510.5 766 c 128,-1,30
 477 720 477 720 458 677 c 1,31,-1
 315 0 l 1,0,-1
EndSplineSet
Validated: 33
EndChar

StartChar: uniE009
Encoding: 17 57353 13
Width: 1170
GlyphClass: 1
Flags: W
AnchorPoint: "TehtaBelow" 770 -200 basechar 0
AnchorPoint: "TehtaAbove" 1070 1500 basechar 0
LayerCount: 2
Fore
SplineSet
762 155 m 1,0,1
 801 218 801 218 826 264.5 c 128,-1,2
 851 311 851 311 866 346 c 0,3,4
 919 465 919 465 938 555 c 0,5,6
 956 636 956 636 954.5 706 c 128,-1,7
 953 776 953 776 935 827 c 128,-1,8
 917 878 917 878 881.5 907 c 128,-1,9
 846 936 846 936 794 936 c 0,10,11
 754 936 754 936 714 922.5 c 128,-1,12
 674 909 674 909 636.5 885 c 128,-1,13
 599 861 599 861 566 829 c 128,-1,14
 533 797 533 797 509 761 c 0,15,16
 471 704 471 704 442 631.5 c 128,-1,17
 413 559 413 559 394 468 c 0,18,19
 373 369 373 369 361.5 292 c 128,-1,20
 350 215 350 215 346 155 c 1,21,-1
 762 155 l 1,0,1
1084 0 m 1,22,-1
 127 0 l 1,23,-1
 438 1465 l 1,24,-1
 626 1465 l 1,25,-1
 512 928 l 1,26,27
 654 1085 654 1085 848 1085 c 0,28,29
 932 1085 932 1085 996 1049.5 c 128,-1,30
 1060 1014 1060 1014 1097.5 946 c 128,-1,31
 1135 878 1135 878 1143.5 778 c 128,-1,32
 1152 678 1152 678 1124 549 c 0,33,34
 1083 354 1083 354 957 155 c 1,35,-1
 1116 155 l 1,36,-1
 1084 0 l 1,22,-1
EndSplineSet
Validated: 33
EndChar

StartChar: uniE00A
Encoding: 18 57354 14
Width: 1095
GlyphClass: 1
Flags: W
AnchorPoint: "TehtaAbove" 795 1500 basechar 0
AnchorPoint: "TehtaBelow" 695 -200 basechar 0
LayerCount: 2
Fore
SplineSet
1074 1465 m 1,0,-1
 1261 1465 l 1,1,-1
 950 0 l 1,2,-1
 763 0 l 1,3,-1
 791 132 l 1,4,5
 648 -25 648 -25 453 -25 c 0,6,7
 369 -25 369 -25 305 11 c 128,-1,8
 241 47 241 47 204 115.5 c 128,-1,9
 167 184 167 184 158.5 284 c 128,-1,10
 150 384 150 384 177 512 c 0,11,12
 206 646 206 646 274.5 781 c 128,-1,13
 343 916 343 916 453 1061 c 1,14,-1
 638 1061 l 1,15,16
 558 939 558 939 509.5 857.5 c 128,-1,17
 461 776 461 776 433.5 716 c 128,-1,18
 406 656 406 656 392 608 c 128,-1,19
 378 560 378 560 366 506 c 0,20,21
 347 417 347 417 348.5 346.5 c 128,-1,22
 350 276 350 276 369 226.5 c 128,-1,23
 388 177 388 177 422.5 150.5 c 128,-1,24
 457 124 457 124 504 124 c 2,25,-1
 508 124 l 2,26,27
 563 124 563 124 615 147.5 c 128,-1,28
 667 171 667 171 712 208 c 128,-1,29
 757 245 757 245 791 291.5 c 128,-1,30
 825 338 825 338 844 383 c 1,31,-1
 1074 1465 l 1,0,-1
EndSplineSet
Validated: 33
EndChar

StartChar: uniE00B
Encoding: 19 57355 15
Width: 1172
GlyphClass: 1
Flags: W
AnchorPoint: "TehtaBelow" 772 -200 basechar 0
AnchorPoint: "TehtaAbove" 872 1500 basechar 0
LayerCount: 2
Fore
SplineSet
616 906 m 1,0,1
 569 830 569 830 538.5 771.5 c 128,-1,2
 508 713 508 713 488.5 666 c 128,-1,3
 469 619 469 619 458.5 580.5 c 128,-1,4
 448 542 448 542 440 506 c 0,5,6
 422 422 422 422 423 351.5 c 128,-1,7
 424 281 424 281 443 230.5 c 128,-1,8
 462 180 462 180 497.5 152 c 128,-1,9
 533 124 533 124 584 124 c 0,10,11
 623 124 623 124 662 137 c 128,-1,12
 701 150 701 150 738.5 173.5 c 128,-1,13
 776 197 776 197 809.5 229 c 128,-1,14
 843 261 843 261 869 299 c 0,15,16
 944 407 944 407 983 589 c 1,17,-1
 985 602 l 1,18,19
 1004 696 1004 696 1015 771 c 128,-1,20
 1026 846 1026 846 1031 906 c 1,21,-1
 616 906 l 1,0,1
1064 1061 m 1,22,-1
 1150 1465 l 1,23,-1
 1337 1465 l 1,24,-1
 1026 0 l 1,25,-1
 839 0 l 1,26,-1
 867 132 l 1,27,28
 724 -25 724 -25 530 -25 c 0,29,30
 446 -25 446 -25 382 10 c 128,-1,31
 318 45 318 45 280.5 113.5 c 128,-1,32
 243 182 243 182 235 282 c 128,-1,33
 227 382 227 382 254 512 c 0,34,35
 295 705 295 705 420 906 c 1,36,-1
 262 906 l 1,37,-1
 295 1061 l 1,38,-1
 1064 1061 l 1,22,-1
EndSplineSet
Validated: 33
EndChar

StartChar: uniE00C
Encoding: 20 57356 16
Width: 1729
GlyphClass: 1
Flags: W
AnchorPoint: "TehtaBelow" 1029 -200 basechar 0
AnchorPoint: "TehtaAbove" 1229 1500 basechar 0
LayerCount: 2
Fore
SplineSet
316 0 m 1,0,-1
 128 0 l 1,1,-1
 439 1465 l 1,2,-1
 627 1465 l 1,3,-1
 513 928 l 1,4,5
 655 1085 655 1085 846 1085 c 0,6,7
 1041 1085 1041 1085 1116 893 c 1,8,9
 1191 990 1191 990 1281.5 1037.5 c 128,-1,10
 1372 1085 1372 1085 1465 1085 c 0,11,12
 1562 1085 1562 1085 1629.5 1048 c 128,-1,13
 1697 1011 1697 1011 1734.5 941.5 c 128,-1,14
 1772 872 1772 872 1777.5 772.5 c 128,-1,15
 1783 673 1783 673 1756 549 c 0,16,17
 1727 414 1727 414 1658.5 279 c 128,-1,18
 1590 144 1590 144 1481 0 c 1,19,-1
 1298 0 l 1,20,21
 1375 121 1375 121 1426 207.5 c 128,-1,22
 1477 294 1477 294 1500 346 c 0,23,24
 1522 400 1522 400 1539.5 453.5 c 128,-1,25
 1557 507 1557 507 1567 555 c 0,26,27
 1586 643 1586 643 1584.5 714 c 128,-1,28
 1583 785 1583 785 1564.5 834 c 128,-1,29
 1546 883 1546 883 1511 909.5 c 128,-1,30
 1476 936 1476 936 1427 936 c 0,31,32
 1375 936 1375 936 1327.5 908.5 c 128,-1,33
 1280 881 1280 881 1239.5 830.5 c 128,-1,34
 1199 780 1199 780 1168 708.5 c 128,-1,35
 1137 637 1137 637 1118 549 c 0,36,37
 1089 413 1089 413 1021 278 c 128,-1,38
 953 143 953 143 845 0 c 1,39,-1
 660 0 l 1,40,41
 738 122 738 122 786.5 205 c 128,-1,42
 835 288 835 288 863.5 348.5 c 128,-1,43
 892 409 892 409 906.5 456.5 c 128,-1,44
 921 504 921 504 931 555 c 0,45,46
 950 640 950 640 948.5 710 c 128,-1,47
 947 780 947 780 929 830.5 c 128,-1,48
 911 881 911 881 876 908.5 c 128,-1,49
 841 936 841 936 792 936 c 256,50,51
 743 936 743 936 692 914.5 c 128,-1,52
 641 893 641 893 595 857.5 c 128,-1,53
 549 822 549 822 513.5 776 c 128,-1,54
 478 730 478 730 460 681 c 1,55,-1
 316 0 l 1,0,-1
EndSplineSet
Validated: 33
EndChar

StartChar: uniE00D
Encoding: 21 57357 17
Width: 1810
GlyphClass: 1
Flags: W
AnchorPoint: "TehtaAbove" 1310 1500 basechar 0
AnchorPoint: "TehtaBelow" 1110 -200 basechar 0
LayerCount: 2
Fore
SplineSet
1721 0 m 1,0,-1
 129 0 l 1,1,-1
 440 1465 l 1,2,-1
 627 1465 l 1,3,-1
 513 928 l 1,4,5
 655 1085 655 1085 847 1085 c 0,6,7
 943 1085 943 1085 1012 1037 c 128,-1,8
 1081 989 1081 989 1117 892 c 1,9,10
 1192 989 1192 989 1282 1037 c 128,-1,11
 1372 1085 1372 1085 1465 1085 c 0,12,13
 1565 1085 1565 1085 1633 1046.5 c 128,-1,14
 1701 1008 1701 1008 1737 937.5 c 128,-1,15
 1773 867 1773 867 1778 768.5 c 128,-1,16
 1783 670 1783 670 1757 549 c 0,17,18
 1716 356 1716 356 1590 155 c 1,19,-1
 1753 155 l 1,20,-1
 1721 0 l 1,0,-1
1395 155 m 1,21,22
 1442 231 1442 231 1471.5 286 c 128,-1,23
 1501 341 1501 341 1519.5 386 c 128,-1,24
 1538 431 1538 431 1549 470.5 c 128,-1,25
 1560 510 1560 510 1569 555 c 0,26,27
 1587 639 1587 639 1586 709 c 128,-1,28
 1585 779 1585 779 1567 829.5 c 128,-1,29
 1549 880 1549 880 1512.5 908 c 128,-1,30
 1476 936 1476 936 1425 936 c 256,31,32
 1374 936 1374 936 1327 908.5 c 128,-1,33
 1280 881 1280 881 1239.5 830 c 128,-1,34
 1199 779 1199 779 1168 707.5 c 128,-1,35
 1137 636 1137 636 1118 549 c 2,36,-1
 1117 544 l 2,37,38
 1097 447 1097 447 1056 351 c 128,-1,39
 1015 255 1015 255 953 155 c 1,40,-1
 1395 155 l 1,21,22
758 155 m 1,41,42
 801 223 801 223 829.5 277.5 c 128,-1,43
 858 332 858 332 877.5 378.5 c 128,-1,44
 897 425 897 425 909.5 467.5 c 128,-1,45
 922 510 922 510 931 555 c 0,46,47
 950 643 950 643 948.5 713.5 c 128,-1,48
 947 784 947 784 928.5 833.5 c 128,-1,49
 910 883 910 883 875.5 909.5 c 128,-1,50
 841 936 841 936 793 936 c 0,51,52
 754 936 754 936 714.5 922.5 c 128,-1,53
 675 909 675 909 638 885.5 c 128,-1,54
 601 862 601 862 568 830 c 128,-1,55
 535 798 535 798 510 761 c 0,56,57
 433 649 433 649 395 467 c 0,58,59
 374 369 374 369 362.5 292 c 128,-1,60
 351 215 351 215 347 155 c 1,61,-1
 758 155 l 1,41,42
EndSplineSet
Validated: 33
EndChar

StartChar: uniE00E
Encoding: 22 57358 18
Width: 1731
GlyphClass: 1
Flags: W
AnchorPoint: "TehtaBelow" 1031 -200 basechar 0
AnchorPoint: "TehtaAbove" 1231 1500 basechar 0
LayerCount: 2
Fore
SplineSet
1707 1465 m 1,0,-1
 1893 1465 l 1,1,-1
 1582 0 l 1,2,-1
 1396 0 l 1,3,-1
 1424 132 l 1,4,5
 1281 -25 1281 -25 1089 -25 c 0,6,7
 923 -25 923 -25 843 115 c 1,8,-1
 843 114 l 1,9,10
 834 126 834 126 829 139 c 128,-1,11
 824 152 824 152 819 166 c 1,12,13
 782 118 782 118 739.5 82 c 128,-1,14
 697 46 697 46 652 22 c 128,-1,15
 607 -2 607 -2 561.5 -13.5 c 128,-1,16
 516 -25 516 -25 471 -25 c 0,17,18
 372 -25 372 -25 304 13 c 128,-1,19
 236 51 236 51 199.5 121 c 128,-1,20
 163 191 163 191 158 290.5 c 128,-1,21
 153 390 153 390 179 512 c 0,22,23
 235 774 235 774 454 1061 c 1,24,-1
 639 1061 l 1,25,26
 586 979 586 979 547.5 916 c 128,-1,27
 509 853 509 853 481.5 803.5 c 128,-1,28
 454 754 454 754 435.5 715 c 128,-1,29
 417 676 417 676 404.5 642 c 128,-1,30
 392 608 392 608 383.5 575.5 c 128,-1,31
 375 543 375 543 367 506 c 0,32,33
 348 418 348 418 349.5 347.5 c 128,-1,34
 351 277 351 277 369.5 227.5 c 128,-1,35
 388 178 388 178 423.5 151 c 128,-1,36
 459 124 459 124 507 124 c 0,37,38
 561 124 561 124 609.5 152.5 c 128,-1,39
 658 181 658 181 698.5 232 c 128,-1,40
 739 283 739 283 769.5 354.5 c 128,-1,41
 800 426 800 426 818 512 c 0,42,43
 876 781 876 781 1092 1061 c 1,44,-1
 1276 1061 l 1,45,46
 1223 979 1223 979 1184.5 916 c 128,-1,47
 1146 853 1146 853 1118.5 803.5 c 128,-1,48
 1091 754 1091 754 1072.5 715 c 128,-1,49
 1054 676 1054 676 1041.5 642 c 128,-1,50
 1029 608 1029 608 1020.5 575.5 c 128,-1,51
 1012 543 1012 543 1004 506 c 0,52,53
 985 417 985 417 986.5 346.5 c 128,-1,54
 988 276 988 276 1007 226.5 c 128,-1,55
 1026 177 1026 177 1061 150.5 c 128,-1,56
 1096 124 1096 124 1143 124 c 0,57,58
 1188 124 1188 124 1239 144.5 c 128,-1,59
 1290 165 1290 165 1336.5 200.5 c 128,-1,60
 1383 236 1383 236 1420 282 c 128,-1,61
 1457 328 1457 328 1476 379 c 1,62,-1
 1707 1465 l 1,0,-1
EndSplineSet
Validated: 33
EndChar

StartChar: uniE00F
Encoding: 23 57359 19
Width: 1812
GlyphClass: 1
Flags: W
AnchorPoint: "TehtaAbove" 1312 1500 basechar 0
AnchorPoint: "TehtaBelow" 1112 -200 basechar 0
LayerCount: 2
Fore
SplineSet
1700 1061 m 1,0,-1
 1786 1465 l 1,1,-1
 1974 1465 l 1,2,-1
 1663 0 l 1,3,-1
 1475 0 l 1,4,-1
 1503 132 l 1,5,6
 1362 -24 1362 -24 1168 -24 c 0,7,8
 1002 -24 1002 -24 923 115 c 1,9,-1
 923 114 l 1,10,11
 914 126 914 126 909 139 c 128,-1,12
 904 152 904 152 899 166 c 1,13,14
 823 69 823 69 732 22.5 c 128,-1,15
 641 -24 641 -24 550 -24 c 0,16,17
 451 -24 451 -24 383.5 13.5 c 128,-1,18
 316 51 316 51 279.5 120.5 c 128,-1,19
 243 190 243 190 237.5 289.5 c 128,-1,20
 232 389 232 389 258 512 c 0,21,22
 300 706 300 706 426 906 c 1,23,-1
 263 906 l 1,24,-1
 296 1061 l 1,25,-1
 1700 1061 l 1,0,-1
620 906 m 1,26,27
 583 846 583 846 557 797.5 c 128,-1,28
 531 749 531 749 516 715 c 0,29,30
 492 658 492 658 474.5 604.5 c 128,-1,31
 457 551 457 551 447 506 c 0,32,33
 428 417 428 417 429.5 346.5 c 128,-1,34
 431 276 431 276 450 226.5 c 128,-1,35
 469 177 469 177 504.5 150.5 c 128,-1,36
 540 124 540 124 590 124 c 256,37,38
 640 124 640 124 687 151 c 128,-1,39
 734 178 734 178 774.5 228 c 128,-1,40
 815 278 815 278 846.5 350 c 128,-1,41
 878 422 878 422 897 512 c 0,42,43
 939 708 939 708 1063 906 c 1,44,-1
 620 906 l 1,26,27
1257 906 m 1,45,46
 1220 846 1220 846 1194.5 797.5 c 128,-1,47
 1169 749 1169 749 1153 715 c 0,48,49
 1128 658 1128 658 1111 604.5 c 128,-1,50
 1094 551 1094 551 1084 506 c 0,51,52
 1065 417 1065 417 1066.5 346.5 c 128,-1,53
 1068 276 1068 276 1087 226.5 c 128,-1,54
 1106 177 1106 177 1140.5 150.5 c 128,-1,55
 1175 124 1175 124 1223 124 c 0,56,57
 1261 124 1261 124 1301.5 138 c 128,-1,58
 1342 152 1342 152 1379 176 c 128,-1,59
 1416 200 1416 200 1449 232 c 128,-1,60
 1482 264 1482 264 1505 300 c 0,61,62
 1580 407 1580 407 1619 589 c 1,63,-1
 1621 602 l 1,64,65
 1640 696 1640 696 1651 771 c 128,-1,66
 1662 846 1662 846 1667 906 c 1,67,-1
 1257 906 l 1,45,46
EndSplineSet
Validated: 33
EndChar

StartChar: uniE010
Encoding: 24 57360 20
Width: 1729
GlyphClass: 1
Flags: W
AnchorPoint: "TehtaBelow" 1029 -200 basechar 0
AnchorPoint: "TehtaAbove" 1229 1500 basechar 0
LayerCount: 2
Fore
SplineSet
316 0 m 1,0,-1
 128 0 l 1,1,-1
 353 1061 l 1,2,-1
 541 1061 l 1,3,-1
 513 928 l 1,4,5
 655 1085 655 1085 846 1085 c 0,6,7
 1041 1085 1041 1085 1116 893 c 1,8,9
 1191 990 1191 990 1281.5 1037.5 c 128,-1,10
 1372 1085 1372 1085 1465 1085 c 0,11,12
 1562 1085 1562 1085 1629.5 1048 c 128,-1,13
 1697 1011 1697 1011 1734.5 941.5 c 128,-1,14
 1772 872 1772 872 1777.5 772.5 c 128,-1,15
 1783 673 1783 673 1756 549 c 0,16,17
 1727 414 1727 414 1658.5 279 c 128,-1,18
 1590 144 1590 144 1481 0 c 1,19,-1
 1298 0 l 1,20,21
 1375 121 1375 121 1426 207.5 c 128,-1,22
 1477 294 1477 294 1500 346 c 0,23,24
 1522 400 1522 400 1539.5 453.5 c 128,-1,25
 1557 507 1557 507 1567 555 c 0,26,27
 1586 643 1586 643 1584.5 714 c 128,-1,28
 1583 785 1583 785 1564.5 834 c 128,-1,29
 1546 883 1546 883 1511 909.5 c 128,-1,30
 1476 936 1476 936 1427 936 c 0,31,32
 1375 936 1375 936 1327.5 908.5 c 128,-1,33
 1280 881 1280 881 1239.5 830.5 c 128,-1,34
 1199 780 1199 780 1168 708.5 c 128,-1,35
 1137 637 1137 637 1118 549 c 0,36,37
 1089 413 1089 413 1021 278 c 128,-1,38
 953 143 953 143 845 0 c 1,39,-1
 660 0 l 1,40,41
 738 122 738 122 786.5 205 c 128,-1,42
 835 288 835 288 863.5 348.5 c 128,-1,43
 892 409 892 409 906.5 456.5 c 128,-1,44
 921 504 921 504 931 555 c 0,45,46
 950 640 950 640 948.5 710 c 128,-1,47
 947 780 947 780 929 830.5 c 128,-1,48
 911 881 911 881 876 908.5 c 128,-1,49
 841 936 841 936 792 936 c 256,50,51
 743 936 743 936 692 914.5 c 128,-1,52
 641 893 641 893 595 857.5 c 128,-1,53
 549 822 549 822 513.5 776 c 128,-1,54
 478 730 478 730 460 681 c 1,55,-1
 316 0 l 1,0,-1
EndSplineSet
Validated: 33
EndChar

StartChar: uniE011
Encoding: 25 57361 21
Width: 1810
GlyphClass: 1
Flags: W
AnchorPoint: "TehtaAbove" 1310 1500 basechar 0
AnchorPoint: "TehtaBelow" 1110 -200 basechar 0
LayerCount: 2
Fore
SplineSet
1721 0 m 1,0,-1
 129 0 l 1,1,-1
 354 1061 l 1,2,-1
 541 1061 l 1,3,-1
 513 928 l 1,4,5
 655 1085 655 1085 847 1085 c 0,6,7
 943 1085 943 1085 1012 1037 c 128,-1,8
 1081 989 1081 989 1117 892 c 1,9,10
 1192 989 1192 989 1282 1037 c 128,-1,11
 1372 1085 1372 1085 1465 1085 c 0,12,13
 1565 1085 1565 1085 1633 1046.5 c 128,-1,14
 1701 1008 1701 1008 1737 937.5 c 128,-1,15
 1773 867 1773 867 1778 768.5 c 128,-1,16
 1783 670 1783 670 1757 549 c 0,17,18
 1716 356 1716 356 1590 155 c 1,19,-1
 1753 155 l 1,20,-1
 1721 0 l 1,0,-1
1395 155 m 1,21,22
 1442 231 1442 231 1471.5 286 c 128,-1,23
 1501 341 1501 341 1519.5 386 c 128,-1,24
 1538 431 1538 431 1549 470.5 c 128,-1,25
 1560 510 1560 510 1569 555 c 0,26,27
 1587 639 1587 639 1586 709 c 128,-1,28
 1585 779 1585 779 1567 829.5 c 128,-1,29
 1549 880 1549 880 1512.5 908 c 128,-1,30
 1476 936 1476 936 1425 936 c 256,31,32
 1374 936 1374 936 1327 908.5 c 128,-1,33
 1280 881 1280 881 1239.5 830 c 128,-1,34
 1199 779 1199 779 1168 707.5 c 128,-1,35
 1137 636 1137 636 1118 549 c 2,36,-1
 1117 544 l 2,37,38
 1097 447 1097 447 1056 351 c 128,-1,39
 1015 255 1015 255 953 155 c 1,40,-1
 1395 155 l 1,21,22
758 155 m 1,41,42
 801 223 801 223 829.5 277.5 c 128,-1,43
 858 332 858 332 877.5 378.5 c 128,-1,44
 897 425 897 425 909.5 467.5 c 128,-1,45
 922 510 922 510 931 555 c 0,46,47
 950 643 950 643 948.5 713.5 c 128,-1,48
 947 784 947 784 928.5 833.5 c 128,-1,49
 910 883 910 883 875.5 909.5 c 128,-1,50
 841 936 841 936 793 936 c 0,51,52
 754 936 754 936 714.5 922.5 c 128,-1,53
 675 909 675 909 638 885.5 c 128,-1,54
 601 862 601 862 568 830 c 128,-1,55
 535 798 535 798 510 761 c 0,56,57
 433 649 433 649 395 467 c 0,58,59
 374 369 374 369 362.5 292 c 128,-1,60
 351 215 351 215 347 155 c 1,61,-1
 758 155 l 1,41,42
EndSplineSet
Validated: 33
EndChar

StartChar: uniE012
Encoding: 26 57362 22
Width: 1731
GlyphClass: 1
Flags: W
AnchorPoint: "TehtaBelow" 1031 -200 basechar 0
AnchorPoint: "TehtaAbove" 1231 1500 basechar 0
LayerCount: 2
Fore
SplineSet
1621 1061 m 1,0,-1
 1807 1061 l 1,1,-1
 1582 0 l 1,2,-1
 1396 0 l 1,3,-1
 1424 132 l 1,4,5
 1281 -25 1281 -25 1089 -25 c 0,6,7
 923 -25 923 -25 843 115 c 1,8,-1
 843 114 l 1,9,10
 834 126 834 126 829 139 c 128,-1,11
 824 152 824 152 819 166 c 1,12,13
 782 118 782 118 739.5 82 c 128,-1,14
 697 46 697 46 652 22 c 128,-1,15
 607 -2 607 -2 561.5 -13.5 c 128,-1,16
 516 -25 516 -25 471 -25 c 0,17,18
 372 -25 372 -25 304 13 c 128,-1,19
 236 51 236 51 199.5 121 c 128,-1,20
 163 191 163 191 158 290.5 c 128,-1,21
 153 390 153 390 179 512 c 0,22,23
 235 774 235 774 454 1061 c 1,24,-1
 639 1061 l 1,25,26
 586 979 586 979 547.5 916 c 128,-1,27
 509 853 509 853 481.5 803.5 c 128,-1,28
 454 754 454 754 435.5 715 c 128,-1,29
 417 676 417 676 404.5 642 c 128,-1,30
 392 608 392 608 383.5 575.5 c 128,-1,31
 375 543 375 543 367 506 c 0,32,33
 348 418 348 418 349.5 347.5 c 128,-1,34
 351 277 351 277 369.5 227.5 c 128,-1,35
 388 178 388 178 423.5 151 c 128,-1,36
 459 124 459 124 507 124 c 0,37,38
 561 124 561 124 609.5 152.5 c 128,-1,39
 658 181 658 181 698.5 232 c 128,-1,40
 739 283 739 283 769.5 354.5 c 128,-1,41
 800 426 800 426 818 512 c 0,42,43
 876 781 876 781 1092 1061 c 1,44,-1
 1276 1061 l 1,45,46
 1223 979 1223 979 1184.5 916 c 128,-1,47
 1146 853 1146 853 1118.5 803.5 c 128,-1,48
 1091 754 1091 754 1072.5 715 c 128,-1,49
 1054 676 1054 676 1041.5 642 c 128,-1,50
 1029 608 1029 608 1020.5 575.5 c 128,-1,51
 1012 543 1012 543 1004 506 c 0,52,53
 985 417 985 417 986.5 346.5 c 128,-1,54
 988 276 988 276 1007 226.5 c 128,-1,55
 1026 177 1026 177 1061 150.5 c 128,-1,56
 1096 124 1096 124 1143 124 c 0,57,58
 1188 124 1188 124 1239 144.5 c 128,-1,59
 1290 165 1290 165 1336.5 200.5 c 128,-1,60
 1383 236 1383 236 1420 282 c 128,-1,61
 1457 328 1457 328 1476 379 c 1,62,-1
 1621 1061 l 1,0,-1
EndSplineSet
Validated: 33
EndChar

StartChar: uniE013
Encoding: 27 57363 23
Width: 1812
GlyphClass: 1
Flags: W
AnchorPoint: "TehtaAbove" 1312 1500 basechar 0
AnchorPoint: "TehtaBelow" 1112 -200 basechar 0
LayerCount: 2
Fore
SplineSet
296 1061 m 1,0,-1
 1888 1061 l 1,1,-1
 1663 0 l 1,2,-1
 1475 0 l 1,3,-1
 1503 132 l 1,4,5
 1360 -25 1360 -25 1168 -25 c 0,6,7
 1003 -25 1003 -25 923 115 c 1,8,-1
 923 114 l 1,9,10
 914 126 914 126 909 139 c 128,-1,11
 904 152 904 152 899 166 c 1,12,13
 823 69 823 69 732 22 c 128,-1,14
 641 -25 641 -25 550 -25 c 0,15,16
 452 -25 452 -25 384 13 c 128,-1,17
 316 51 316 51 279.5 120.5 c 128,-1,18
 243 190 243 190 237.5 289.5 c 128,-1,19
 232 389 232 389 258 512 c 0,20,21
 300 706 300 706 426 906 c 1,22,-1
 263 906 l 1,23,-1
 296 1061 l 1,0,-1
620 906 m 1,24,25
 583 846 583 846 557 797.5 c 128,-1,26
 531 749 531 749 516 715 c 0,27,28
 492 658 492 658 474.5 604.5 c 128,-1,29
 457 551 457 551 447 506 c 0,30,31
 428 417 428 417 429.5 346.5 c 128,-1,32
 431 276 431 276 450 226.5 c 128,-1,33
 469 177 469 177 504.5 150.5 c 128,-1,34
 540 124 540 124 590 124 c 256,35,36
 640 124 640 124 687 151 c 128,-1,37
 734 178 734 178 774.5 228 c 128,-1,38
 815 278 815 278 846.5 350 c 128,-1,39
 878 422 878 422 897 512 c 0,40,41
 939 708 939 708 1063 906 c 1,42,-1
 620 906 l 1,24,25
1257 906 m 1,43,44
 1220 846 1220 846 1194.5 797.5 c 128,-1,45
 1169 749 1169 749 1153 715 c 0,46,47
 1128 658 1128 658 1111 604.5 c 128,-1,48
 1094 551 1094 551 1084 506 c 0,49,50
 1065 417 1065 417 1066.5 346.5 c 128,-1,51
 1068 276 1068 276 1087 226.5 c 128,-1,52
 1106 177 1106 177 1140.5 150.5 c 128,-1,53
 1175 124 1175 124 1223 124 c 0,54,55
 1261 124 1261 124 1301.5 138 c 128,-1,56
 1342 152 1342 152 1379 176 c 128,-1,57
 1416 200 1416 200 1449 232 c 128,-1,58
 1482 264 1482 264 1505 300 c 0,59,60
 1580 407 1580 407 1619 589 c 1,61,-1
 1621 602 l 1,62,63
 1640 696 1640 696 1651 771 c 128,-1,64
 1662 846 1662 846 1667 906 c 1,65,-1
 1257 906 l 1,43,44
EndSplineSet
Validated: 33
EndChar

StartChar: uniE014
Encoding: 28 57364 24
Width: 1093
GlyphClass: 1
Flags: W
AnchorPoint: "TehtaAbove" 893 1500 basechar 0
AnchorPoint: "TehtaBelow" 693 -200 basechar 0
LayerCount: 2
Fore
SplineSet
315 0 m 1,0,-1
 127 0 l 1,1,-1
 352 1061 l 1,2,-1
 540 1061 l 1,3,-1
 512 928 l 1,4,5
 654 1085 654 1085 848 1085 c 0,6,7
 932 1085 932 1085 996 1049.5 c 128,-1,8
 1060 1014 1060 1014 1097.5 946 c 128,-1,9
 1135 878 1135 878 1143.5 778 c 128,-1,10
 1152 678 1152 678 1124 549 c 0,11,12
 1095 414 1095 414 1026.5 279 c 128,-1,13
 958 144 958 144 849 0 c 1,14,-1
 664 0 l 1,15,16
 743 121 743 121 793.5 207.5 c 128,-1,17
 844 294 844 294 866 346 c 0,18,19
 890 401 890 401 907.5 452.5 c 128,-1,20
 925 504 925 504 935 555 c 0,21,22
 954 642 954 642 953 712.5 c 128,-1,23
 952 783 952 783 933.5 832.5 c 128,-1,24
 915 882 915 882 879.5 909 c 128,-1,25
 844 936 844 936 794 936 c 0,26,27
 740 936 740 936 687.5 912.5 c 128,-1,28
 635 889 635 889 591 851.5 c 128,-1,29
 547 814 547 814 512 768 c 128,-1,30
 477 722 477 722 458 677 c 1,31,-1
 315 0 l 1,0,-1
EndSplineSet
Validated: 33
EndChar

StartChar: uniE015
Encoding: 29 57365 25
Width: 1170
GlyphClass: 1
Flags: W
AnchorPoint: "TehtaBelow" 770 -200 basechar 0
AnchorPoint: "TehtaAbove" 970 1500 basechar 0
LayerCount: 2
Fore
SplineSet
762 155 m 1,0,1
 801 218 801 218 826 264.5 c 128,-1,2
 851 311 851 311 866 346 c 0,3,4
 919 465 919 465 938 555 c 0,5,6
 956 636 956 636 954.5 706 c 128,-1,7
 953 776 953 776 935 827 c 128,-1,8
 917 878 917 878 881.5 907 c 128,-1,9
 846 936 846 936 794 936 c 0,10,11
 754 936 754 936 714 922.5 c 128,-1,12
 674 909 674 909 636.5 885 c 128,-1,13
 599 861 599 861 566 829 c 128,-1,14
 533 797 533 797 509 761 c 0,15,16
 471 704 471 704 442 631.5 c 128,-1,17
 413 559 413 559 394 468 c 0,18,19
 373 369 373 369 361.5 292 c 128,-1,20
 350 215 350 215 346 155 c 1,21,-1
 762 155 l 1,0,1
1084 0 m 1,22,-1
 127 0 l 1,23,-1
 352 1061 l 1,24,-1
 540 1061 l 1,25,-1
 512 928 l 1,26,27
 654 1085 654 1085 848 1085 c 0,28,29
 932 1085 932 1085 996 1049.5 c 128,-1,30
 1060 1014 1060 1014 1097.5 946 c 128,-1,31
 1135 878 1135 878 1143.5 778 c 128,-1,32
 1152 678 1152 678 1124 549 c 0,33,34
 1083 354 1083 354 957 155 c 1,35,-1
 1116 155 l 1,36,-1
 1084 0 l 1,22,-1
EndSplineSet
Validated: 33
EndChar

StartChar: uniE016
Encoding: 30 57366 26
Width: 1095
GlyphClass: 1
Flags: W
AnchorPoint: "TehtaAbove" 895 1500 basechar 0
AnchorPoint: "TehtaBelow" 695 -200 basechar 0
LayerCount: 2
Fore
SplineSet
988 1061 m 1,0,-1
 1175 1061 l 1,1,-1
 950 0 l 1,2,-1
 763 0 l 1,3,-1
 791 132 l 1,4,5
 648 -25 648 -25 453 -25 c 0,6,7
 369 -25 369 -25 305 11 c 128,-1,8
 241 47 241 47 204 115.5 c 128,-1,9
 167 184 167 184 158.5 284 c 128,-1,10
 150 384 150 384 177 512 c 0,11,12
 206 646 206 646 274.5 781 c 128,-1,13
 343 916 343 916 453 1061 c 1,14,-1
 638 1061 l 1,15,16
 558 939 558 939 509.5 857.5 c 128,-1,17
 461 776 461 776 433.5 716 c 128,-1,18
 406 656 406 656 392 608 c 128,-1,19
 378 560 378 560 366 506 c 0,20,21
 347 417 347 417 348.5 346.5 c 128,-1,22
 350 276 350 276 369 226.5 c 128,-1,23
 388 177 388 177 422.5 150.5 c 128,-1,24
 457 124 457 124 504 124 c 2,25,-1
 508 124 l 2,26,27
 563 124 563 124 615 147.5 c 128,-1,28
 667 171 667 171 712 208 c 128,-1,29
 757 245 757 245 791 291.5 c 128,-1,30
 825 338 825 338 844 383 c 1,31,-1
 988 1061 l 1,0,-1
EndSplineSet
Validated: 33
EndChar

StartChar: uniE017
Encoding: 31 57367 27
Width: 1172
GlyphClass: 1
Flags: W
AnchorPoint: "TehtaBelow" 772 -200 basechar 0
AnchorPoint: "TehtaAbove" 972 1500 basechar 0
LayerCount: 2
Fore
SplineSet
616 906 m 1,0,1
 569 830 569 830 538.5 771.5 c 128,-1,2
 508 713 508 713 488.5 666 c 128,-1,3
 469 619 469 619 458.5 580.5 c 128,-1,4
 448 542 448 542 440 506 c 0,5,6
 422 422 422 422 423 351.5 c 128,-1,7
 424 281 424 281 443 230.5 c 128,-1,8
 462 180 462 180 497.5 152 c 128,-1,9
 533 124 533 124 584 124 c 0,10,11
 623 124 623 124 662 137 c 128,-1,12
 701 150 701 150 738.5 173.5 c 128,-1,13
 776 197 776 197 809.5 229 c 128,-1,14
 843 261 843 261 869 299 c 0,15,16
 944 407 944 407 983 589 c 1,17,-1
 985 602 l 1,18,19
 1004 696 1004 696 1015 771 c 128,-1,20
 1026 846 1026 846 1031 906 c 1,21,-1
 616 906 l 1,0,1
295 1061 m 1,22,-1
 1251 1061 l 1,23,-1
 1026 0 l 1,24,-1
 839 0 l 1,25,-1
 867 132 l 1,26,27
 724 -25 724 -25 530 -25 c 0,28,29
 446 -25 446 -25 382 10 c 128,-1,30
 318 45 318 45 280.5 113.5 c 128,-1,31
 243 182 243 182 235 282 c 128,-1,32
 227 382 227 382 254 512 c 0,33,34
 295 705 295 705 420 906 c 1,35,-1
 262 906 l 1,36,-1
 295 1061 l 1,22,-1
EndSplineSet
Validated: 33
EndChar

StartChar: uniE018
Encoding: 32 57368 28
Width: 1093
GlyphClass: 1
Flags: W
AnchorPoint: "TehtaAbove" 993 1500 basechar 0
AnchorPoint: "TehtaBelow" 793 -200 basechar 0
LayerCount: 2
Fore
SplineSet
228 -406 m 1,0,-1
 40 -406 l 1,1,-1
 438 1465 l 1,2,-1
 626 1465 l 1,3,-1
 512 928 l 1,4,5
 654 1085 654 1085 847 1085 c 0,6,7
 931 1085 931 1085 995.5 1050 c 128,-1,8
 1060 1015 1060 1015 1097.5 946.5 c 128,-1,9
 1135 878 1135 878 1143.5 778 c 128,-1,10
 1152 678 1152 678 1124 549 c 0,11,12
 1095 414 1095 414 1026.5 279 c 128,-1,13
 958 144 958 144 849 0 c 1,14,-1
 664 0 l 1,15,16
 743 121 743 121 793.5 207.5 c 128,-1,17
 844 294 844 294 866 346 c 0,18,19
 890 401 890 401 907.5 452.5 c 128,-1,20
 925 504 925 504 935 555 c 0,21,22
 954 641 954 641 953 711.5 c 128,-1,23
 952 782 952 782 933.5 832 c 128,-1,24
 915 882 915 882 879.5 909 c 128,-1,25
 844 936 844 936 794 936 c 0,26,27
 738 936 738 936 685.5 912 c 128,-1,28
 633 888 633 888 588.5 850 c 128,-1,29
 544 812 544 812 510.5 766 c 128,-1,30
 477 720 477 720 458 677 c 1,31,-1
 228 -406 l 1,0,-1
EndSplineSet
Validated: 33
EndChar

StartChar: uniE019
Encoding: 33 57369 29
Width: 1170
GlyphClass: 1
Flags: W
AnchorPoint: "TehtaBelow" 870 -200 basechar 0
AnchorPoint: "TehtaAbove" 1070 1500 basechar 0
LayerCount: 2
Fore
SplineSet
762 155 m 1,0,1
 801 218 801 218 826 264.5 c 128,-1,2
 851 311 851 311 866 346 c 0,3,4
 919 465 919 465 938 555 c 0,5,6
 956 636 956 636 954.5 706 c 128,-1,7
 953 776 953 776 935 827 c 128,-1,8
 917 878 917 878 881.5 907 c 128,-1,9
 846 936 846 936 794 936 c 0,10,11
 754 936 754 936 714 922.5 c 128,-1,12
 674 909 674 909 636.5 885 c 128,-1,13
 599 861 599 861 566 829 c 128,-1,14
 533 797 533 797 509 761 c 0,15,16
 471 704 471 704 442 631.5 c 128,-1,17
 413 559 413 559 394 468 c 0,18,19
 373 369 373 369 361.5 292 c 128,-1,20
 350 215 350 215 346 155 c 1,21,-1
 762 155 l 1,0,1
315 0 m 1,22,-1
 228 -406 l 1,23,-1
 40 -406 l 1,24,-1
 438 1465 l 1,25,-1
 626 1465 l 1,26,-1
 512 928 l 1,27,28
 654 1085 654 1085 848 1085 c 0,29,30
 932 1085 932 1085 996 1049.5 c 128,-1,31
 1060 1014 1060 1014 1097.5 946 c 128,-1,32
 1135 878 1135 878 1143.5 778 c 128,-1,33
 1152 678 1152 678 1124 549 c 0,34,35
 1083 354 1083 354 957 155 c 1,36,-1
 1116 155 l 1,37,-1
 1084 0 l 1,38,-1
 315 0 l 1,22,-1
EndSplineSet
Validated: 33
EndChar

StartChar: uniE01A
Encoding: 34 57370 30
Width: 1095
GlyphClass: 1
Flags: W
AnchorPoint: "TehtaAbove" 795 1500 basechar 0
AnchorPoint: "TehtaBelow" 595 -200 basechar 0
LayerCount: 2
Fore
SplineSet
1074 1465 m 1,0,-1
 1261 1465 l 1,1,-1
 863 -406 l 1,2,-1
 676 -406 l 1,3,-1
 791 132 l 1,4,5
 648 -25 648 -25 453 -25 c 0,6,7
 369 -25 369 -25 305 11 c 128,-1,8
 241 47 241 47 204 115.5 c 128,-1,9
 167 184 167 184 158.5 284 c 128,-1,10
 150 384 150 384 177 512 c 0,11,12
 206 646 206 646 274.5 781 c 128,-1,13
 343 916 343 916 453 1061 c 1,14,-1
 638 1061 l 1,15,16
 558 939 558 939 509.5 857.5 c 128,-1,17
 461 776 461 776 433.5 716 c 128,-1,18
 406 656 406 656 392 608 c 128,-1,19
 378 560 378 560 366 506 c 0,20,21
 347 417 347 417 348.5 346.5 c 128,-1,22
 350 276 350 276 369 226.5 c 128,-1,23
 388 177 388 177 422.5 150.5 c 128,-1,24
 457 124 457 124 504 124 c 2,25,-1
 508 124 l 2,26,27
 563 124 563 124 615 147.5 c 128,-1,28
 667 171 667 171 712 208 c 128,-1,29
 757 245 757 245 791 291.5 c 128,-1,30
 825 338 825 338 844 383 c 1,31,-1
 1074 1465 l 1,0,-1
EndSplineSet
Validated: 33
EndChar

StartChar: uniE01B
Encoding: 35 57371 31
Width: 1172
GlyphClass: 1
Flags: W
AnchorPoint: "TehtaBelow" 672 -200 basechar 0
AnchorPoint: "TehtaAbove" 872 1500 basechar 0
LayerCount: 2
Fore
SplineSet
616 906 m 1,0,1
 569 830 569 830 538.5 771.5 c 128,-1,2
 508 713 508 713 488.5 666 c 128,-1,3
 469 619 469 619 458.5 580.5 c 128,-1,4
 448 542 448 542 440 506 c 0,5,6
 422 422 422 422 423 351.5 c 128,-1,7
 424 281 424 281 443 230.5 c 128,-1,8
 462 180 462 180 497.5 152 c 128,-1,9
 533 124 533 124 584 124 c 0,10,11
 623 124 623 124 662 137 c 128,-1,12
 701 150 701 150 738.5 173.5 c 128,-1,13
 776 197 776 197 809.5 229 c 128,-1,14
 843 261 843 261 869 299 c 0,15,16
 944 407 944 407 983 589 c 1,17,-1
 985 602 l 1,18,19
 1004 696 1004 696 1015 771 c 128,-1,20
 1026 846 1026 846 1031 906 c 1,21,-1
 616 906 l 1,0,1
1064 1061 m 1,22,-1
 1150 1465 l 1,23,-1
 1337 1465 l 1,24,-1
 939 -405 l 1,25,-1
 752 -405 l 1,26,-1
 867 132 l 1,27,28
 724 -25 724 -25 530 -25 c 0,29,30
 446 -25 446 -25 382 10 c 128,-1,31
 318 45 318 45 280.5 113.5 c 128,-1,32
 243 182 243 182 235 282 c 128,-1,33
 227 382 227 382 254 512 c 0,34,35
 295 705 295 705 420 906 c 1,36,-1
 262 906 l 1,37,-1
 295 1061 l 1,38,-1
 1064 1061 l 1,22,-1
EndSplineSet
Validated: 33
EndChar

StartChar: uniE01C
Encoding: 36 57372 32
Width: 1729
GlyphClass: 1
Flags: W
AnchorPoint: "TehtaBelow" 1029 -200 basechar 0
AnchorPoint: "TehtaAbove" 1229 1500 basechar 0
LayerCount: 2
Fore
SplineSet
229 -406 m 1,0,-1
 41 -406 l 1,1,-1
 439 1465 l 1,2,-1
 627 1465 l 1,3,-1
 513 928 l 1,4,5
 655 1085 655 1085 846 1085 c 0,6,7
 1041 1085 1041 1085 1116 893 c 1,8,9
 1191 990 1191 990 1281.5 1037.5 c 128,-1,10
 1372 1085 1372 1085 1465 1085 c 0,11,12
 1562 1085 1562 1085 1629.5 1048 c 128,-1,13
 1697 1011 1697 1011 1734.5 941.5 c 128,-1,14
 1772 872 1772 872 1777.5 772.5 c 128,-1,15
 1783 673 1783 673 1756 549 c 0,16,17
 1727 414 1727 414 1658.5 279 c 128,-1,18
 1590 144 1590 144 1481 0 c 1,19,-1
 1298 0 l 1,20,21
 1375 121 1375 121 1426 207.5 c 128,-1,22
 1477 294 1477 294 1500 346 c 0,23,24
 1522 400 1522 400 1539.5 453.5 c 128,-1,25
 1557 507 1557 507 1567 555 c 0,26,27
 1586 643 1586 643 1584.5 714 c 128,-1,28
 1583 785 1583 785 1564.5 834 c 128,-1,29
 1546 883 1546 883 1511 909.5 c 128,-1,30
 1476 936 1476 936 1427 936 c 0,31,32
 1375 936 1375 936 1327.5 908.5 c 128,-1,33
 1280 881 1280 881 1239.5 830.5 c 128,-1,34
 1199 780 1199 780 1168 708.5 c 128,-1,35
 1137 637 1137 637 1118 549 c 0,36,37
 1089 413 1089 413 1021 278 c 128,-1,38
 953 143 953 143 845 0 c 1,39,-1
 660 0 l 1,40,41
 738 122 738 122 786.5 205 c 128,-1,42
 835 288 835 288 863.5 348.5 c 128,-1,43
 892 409 892 409 906.5 456.5 c 128,-1,44
 921 504 921 504 931 555 c 0,45,46
 950 640 950 640 948.5 710 c 128,-1,47
 947 780 947 780 929 830.5 c 128,-1,48
 911 881 911 881 876 908.5 c 128,-1,49
 841 936 841 936 792 936 c 256,50,51
 743 936 743 936 692 914.5 c 128,-1,52
 641 893 641 893 595 857.5 c 128,-1,53
 549 822 549 822 513.5 776 c 128,-1,54
 478 730 478 730 460 681 c 1,55,-1
 229 -406 l 1,0,-1
EndSplineSet
Validated: 33
EndChar

StartChar: uniE01D
Encoding: 37 57373 33
Width: 1810
GlyphClass: 1
Flags: W
AnchorPoint: "TehtaAbove" 1310 1500 basechar 0
AnchorPoint: "TehtaBelow" 1110 -200 basechar 0
LayerCount: 2
Fore
SplineSet
316 0 m 1,0,-1
 229 -406 l 1,1,-1
 42 -406 l 1,2,-1
 440 1465 l 1,3,-1
 627 1465 l 1,4,-1
 513 928 l 1,5,6
 655 1085 655 1085 847 1085 c 0,7,8
 943 1085 943 1085 1012 1037 c 128,-1,9
 1081 989 1081 989 1117 892 c 1,10,11
 1192 989 1192 989 1282 1037 c 128,-1,12
 1372 1085 1372 1085 1465 1085 c 0,13,14
 1565 1085 1565 1085 1633 1046.5 c 128,-1,15
 1701 1008 1701 1008 1737 937.5 c 128,-1,16
 1773 867 1773 867 1778 768.5 c 128,-1,17
 1783 670 1783 670 1757 549 c 0,18,19
 1716 356 1716 356 1590 155 c 1,20,-1
 1753 155 l 1,21,-1
 1721 0 l 1,22,-1
 316 0 l 1,0,-1
1395 155 m 1,23,24
 1442 231 1442 231 1471.5 286 c 128,-1,25
 1501 341 1501 341 1519.5 386 c 128,-1,26
 1538 431 1538 431 1549 470.5 c 128,-1,27
 1560 510 1560 510 1569 555 c 0,28,29
 1587 639 1587 639 1586 709 c 128,-1,30
 1585 779 1585 779 1567 829.5 c 128,-1,31
 1549 880 1549 880 1512.5 908 c 128,-1,32
 1476 936 1476 936 1425 936 c 256,33,34
 1374 936 1374 936 1327 908.5 c 128,-1,35
 1280 881 1280 881 1239.5 830 c 128,-1,36
 1199 779 1199 779 1168 707.5 c 128,-1,37
 1137 636 1137 636 1118 549 c 2,38,-1
 1117 544 l 2,39,40
 1097 447 1097 447 1056 351 c 128,-1,41
 1015 255 1015 255 953 155 c 1,42,-1
 1395 155 l 1,23,24
758 155 m 1,43,44
 801 223 801 223 829.5 277.5 c 128,-1,45
 858 332 858 332 877.5 378.5 c 128,-1,46
 897 425 897 425 909.5 467.5 c 128,-1,47
 922 510 922 510 931 555 c 0,48,49
 950 643 950 643 948.5 713.5 c 128,-1,50
 947 784 947 784 928.5 833.5 c 128,-1,51
 910 883 910 883 875.5 909.5 c 128,-1,52
 841 936 841 936 793 936 c 0,53,54
 754 936 754 936 714.5 922.5 c 128,-1,55
 675 909 675 909 638 885.5 c 128,-1,56
 601 862 601 862 568 830 c 128,-1,57
 535 798 535 798 510 761 c 0,58,59
 433 649 433 649 395 467 c 0,60,61
 374 369 374 369 362.5 292 c 128,-1,62
 351 215 351 215 347 155 c 1,63,-1
 758 155 l 1,43,44
EndSplineSet
Validated: 33
EndChar

StartChar: uniE01E
Encoding: 38 57374 34
Width: 1731
GlyphClass: 1
Flags: W
AnchorPoint: "TehtaBelow" 1031 -200 basechar 0
AnchorPoint: "TehtaAbove" 1231 1500 basechar 0
LayerCount: 2
Fore
SplineSet
1707 1465 m 1,0,-1
 1893 1465 l 1,1,-1
 1495 -405 l 1,2,-1
 1309 -405 l 1,3,-1
 1424 132 l 1,4,5
 1281 -25 1281 -25 1089 -25 c 0,6,7
 923 -25 923 -25 843 115 c 1,8,-1
 843 114 l 1,9,10
 834 126 834 126 829 139 c 128,-1,11
 824 152 824 152 819 166 c 1,12,13
 782 118 782 118 739.5 82 c 128,-1,14
 697 46 697 46 652 22 c 128,-1,15
 607 -2 607 -2 561.5 -13.5 c 128,-1,16
 516 -25 516 -25 471 -25 c 0,17,18
 372 -25 372 -25 304 13 c 128,-1,19
 236 51 236 51 199.5 121 c 128,-1,20
 163 191 163 191 158 290.5 c 128,-1,21
 153 390 153 390 179 512 c 0,22,23
 235 774 235 774 454 1061 c 1,24,-1
 639 1061 l 1,25,26
 586 979 586 979 547.5 916 c 128,-1,27
 509 853 509 853 481.5 803.5 c 128,-1,28
 454 754 454 754 435.5 715 c 128,-1,29
 417 676 417 676 404.5 642 c 128,-1,30
 392 608 392 608 383.5 575.5 c 128,-1,31
 375 543 375 543 367 506 c 0,32,33
 348 418 348 418 349.5 347.5 c 128,-1,34
 351 277 351 277 369.5 227.5 c 128,-1,35
 388 178 388 178 423.5 151 c 128,-1,36
 459 124 459 124 507 124 c 0,37,38
 561 124 561 124 609.5 152.5 c 128,-1,39
 658 181 658 181 698.5 232 c 128,-1,40
 739 283 739 283 769.5 354.5 c 128,-1,41
 800 426 800 426 818 512 c 0,42,43
 876 781 876 781 1092 1061 c 1,44,-1
 1276 1061 l 1,45,46
 1223 979 1223 979 1184.5 916 c 128,-1,47
 1146 853 1146 853 1118.5 803.5 c 128,-1,48
 1091 754 1091 754 1072.5 715 c 128,-1,49
 1054 676 1054 676 1041.5 642 c 128,-1,50
 1029 608 1029 608 1020.5 575.5 c 128,-1,51
 1012 543 1012 543 1004 506 c 0,52,53
 985 417 985 417 986.5 346.5 c 128,-1,54
 988 276 988 276 1007 226.5 c 128,-1,55
 1026 177 1026 177 1061 150.5 c 128,-1,56
 1096 124 1096 124 1143 124 c 0,57,58
 1188 124 1188 124 1239 144.5 c 128,-1,59
 1290 165 1290 165 1336.5 200.5 c 128,-1,60
 1383 236 1383 236 1420 282 c 128,-1,61
 1457 328 1457 328 1476 379 c 1,62,-1
 1707 1465 l 1,0,-1
EndSplineSet
Validated: 33
EndChar

StartChar: uniE01F
Encoding: 39 57375 35
Width: 1812
GlyphClass: 1
Flags: W
AnchorPoint: "TehtaAbove" 1312 1500 basechar 0
AnchorPoint: "TehtaBelow" 1112 -200 basechar 0
LayerCount: 2
Fore
SplineSet
1700 1061 m 1,0,-1
 1786 1465 l 1,1,-1
 1974 1465 l 1,2,-1
 1576 -405 l 1,3,-1
 1388 -405 l 1,4,-1
 1503 132 l 1,5,6
 1362 -24 1362 -24 1168 -24 c 0,7,8
 1002 -24 1002 -24 923 115 c 1,9,-1
 923 114 l 1,10,11
 914 126 914 126 909 139 c 128,-1,12
 904 152 904 152 899 166 c 1,13,14
 823 69 823 69 732 22.5 c 128,-1,15
 641 -24 641 -24 550 -24 c 0,16,17
 451 -24 451 -24 383.5 13.5 c 128,-1,18
 316 51 316 51 279.5 120.5 c 128,-1,19
 243 190 243 190 237.5 289.5 c 128,-1,20
 232 389 232 389 258 512 c 0,21,22
 300 706 300 706 426 906 c 1,23,-1
 263 906 l 1,24,-1
 296 1061 l 1,25,-1
 1700 1061 l 1,0,-1
620 906 m 1,26,27
 583 846 583 846 557 797.5 c 128,-1,28
 531 749 531 749 516 715 c 0,29,30
 492 658 492 658 474.5 604.5 c 128,-1,31
 457 551 457 551 447 506 c 0,32,33
 428 417 428 417 429.5 346.5 c 128,-1,34
 431 276 431 276 450 226.5 c 128,-1,35
 469 177 469 177 504.5 150.5 c 128,-1,36
 540 124 540 124 590 124 c 256,37,38
 640 124 640 124 687 151 c 128,-1,39
 734 178 734 178 774.5 228 c 128,-1,40
 815 278 815 278 846.5 350 c 128,-1,41
 878 422 878 422 897 512 c 0,42,43
 939 708 939 708 1063 906 c 1,44,-1
 620 906 l 1,26,27
1257 906 m 1,45,46
 1220 846 1220 846 1194.5 797.5 c 128,-1,47
 1169 749 1169 749 1153 715 c 0,48,49
 1128 658 1128 658 1111 604.5 c 128,-1,50
 1094 551 1094 551 1084 506 c 0,51,52
 1065 417 1065 417 1066.5 346.5 c 128,-1,53
 1068 276 1068 276 1087 226.5 c 128,-1,54
 1106 177 1106 177 1140.5 150.5 c 128,-1,55
 1175 124 1175 124 1223 124 c 0,56,57
 1261 124 1261 124 1301.5 138 c 128,-1,58
 1342 152 1342 152 1379 176 c 128,-1,59
 1416 200 1416 200 1449 232 c 128,-1,60
 1482 264 1482 264 1505 300 c 0,61,62
 1580 407 1580 407 1619 589 c 1,63,-1
 1621 602 l 1,64,65
 1640 696 1640 696 1651 771 c 128,-1,66
 1662 846 1662 846 1667 906 c 1,67,-1
 1257 906 l 1,45,46
EndSplineSet
Validated: 33
EndChar

StartChar: uniE020
Encoding: 40 57376 36
Width: 1157
GlyphClass: 1
Flags: W
AnchorPoint: "TehtaAbove" 957 1500 basechar 0
AnchorPoint: "TehtaBelow" 757 -500 basechar 0
LayerCount: 2
Fore
SplineSet
615 -66 m 2,0,1
 602 -89 602 -89 596 -116 c 0,2,3
 590 -144 590 -144 595.5 -168.5 c 128,-1,4
 601 -193 601 -193 616.5 -211 c 128,-1,5
 632 -229 632 -229 653.5 -239.5 c 128,-1,6
 675 -250 675 -250 701 -250 c 2,7,-1
 938 -250 l 1,8,-1
 905 -406 l 1,9,-1
 632 -405 l 2,10,11
 572 -405 572 -405 524 -382 c 128,-1,12
 476 -359 476 -359 445.5 -320 c 128,-1,13
 415 -281 415 -281 403 -228 c 128,-1,14
 391 -175 391 -175 404 -115 c 0,15,16
 417 -53 417 -53 446 -9 c 1,17,-1
 445 -10 l 1,18,19
 492 68 492 68 539.5 146.5 c 128,-1,20
 587 225 587 225 635 303 c 1,21,22
 548 493 548 493 463 682 c 128,-1,23
 378 871 378 871 292 1061 c 1,24,-1
 513 1061 l 1,25,-1
 760 510 l 1,26,27
 843 648 843 648 926.5 785.5 c 128,-1,28
 1010 923 1010 923 1093 1061 c 1,29,-1
 1298 1061 l 1,30,-1
 615 -66 l 2,0,1
EndSplineSet
Validated: 33
EndChar

StartChar: uniE021
Encoding: 41 57377 37
Width: 1157
GlyphClass: 1
Flags: W
AnchorPoint: "TehtaBelow" 757 -500 basechar 0
AnchorPoint: "TehtaAbove" 957 1500 basechar 0
LayerCount: 2
Fore
SplineSet
293 1061 m 1,0,-1
 513 1061 l 1,1,-1
 760 510 l 1,2,3
 843 648 843 648 926.5 785.5 c 128,-1,4
 1010 923 1010 923 1093 1061 c 1,5,-1
 1298 1061 l 1,6,-1
 616 -66 l 2,7,8
 603 -89 603 -89 597 -116 c 0,9,10
 591 -145 591 -145 596.5 -169.5 c 128,-1,11
 602 -194 602 -194 617.5 -212 c 128,-1,12
 633 -230 633 -230 654 -240 c 128,-1,13
 675 -250 675 -250 701 -250 c 2,14,-1
 939 -250 l 1,15,-1
 906 -406 l 1,16,-1
 632 -405 l 2,17,18
 572 -405 572 -405 524 -382 c 128,-1,19
 476 -359 476 -359 445.5 -320 c 128,-1,20
 415 -281 415 -281 403 -228 c 128,-1,21
 391 -175 391 -175 404 -115 c 0,22,23
 417 -53 417 -53 446 -9 c 1,24,-1
 445 -10 l 1,25,26
 492 68 492 68 540 146.5 c 128,-1,27
 588 225 588 225 636 303 c 1,28,29
 609 363 609 363 582.5 421.5 c 128,-1,30
 556 480 556 480 528 540 c 1,31,-1
 529 538 l 1,32,33
 504 550 504 550 475 550 c 0,34,35
 448 550 448 550 422 539 c 128,-1,36
 396 528 396 528 373.5 509.5 c 128,-1,37
 351 491 351 491 335 467 c 128,-1,38
 319 443 319 443 313 416 c 0,39,40
 307 387 307 387 312.5 362.5 c 128,-1,41
 318 338 318 338 333.5 320 c 128,-1,42
 349 302 349 302 370.5 291.5 c 128,-1,43
 392 281 392 281 418 281 c 2,44,-1
 507 280 l 1,45,-1
 474 125 l 1,46,-1
 386 126 l 2,47,48
 329 127 329 127 281 148 c 128,-1,49
 233 169 233 169 201.5 207 c 128,-1,50
 170 245 170 245 157 298 c 128,-1,51
 144 351 144 351 158 415 c 0,52,53
 169 467 169 467 197 515 c 128,-1,54
 225 563 225 563 265.5 601.5 c 128,-1,55
 306 640 306 640 354.5 666 c 128,-1,56
 403 692 403 692 455 701 c 1,57,-1
 293 1061 l 1,0,-1
EndSplineSet
Validated: 37
EndChar

StartChar: lambe
Encoding: 42 57378 38
Width: 1217
GlyphClass: 1
Flags: W
AnchorPoint: "LambeXhook" 417 0 basechar 0
AnchorPoint: "TehtaBelow" 817 300 basechar 0
AnchorPoint: "TehtaAbove" 1017 1500 basechar 0
AnchorPoint: "LambeBar" 1042 800 basechar 0
LayerCount: 2
Fore
SplineSet
845 906 m 1,0,1
 835 880 835 880 824 857.5 c 128,-1,2
 813 835 813 835 801 817 c 1,3,-1
 801 818 l 1,4,5
 787 792 787 792 769 768.5 c 128,-1,6
 751 745 751 745 722.5 718.5 c 128,-1,7
 694 692 694 692 653.5 659.5 c 128,-1,8
 613 627 613 627 552 583 c 0,9,10
 503 547 503 547 468.5 519 c 128,-1,11
 434 491 434 491 410 461 c 128,-1,12
 386 431 386 431 371 393.5 c 128,-1,13
 356 356 356 356 344 301 c 0,14,15
 333 249 333 249 331 213.5 c 128,-1,16
 329 178 329 178 335 151 c 128,-1,17
 341 124 341 124 353 102.5 c 128,-1,18
 365 81 365 81 381 58 c 0,19,20
 448 -38 448 -38 578 -38 c 0,21,22
 641 -38 641 -38 703 -11 c 128,-1,23
 765 16 765 16 819 58 c 1,24,25
 861 100 861 100 895 157.5 c 128,-1,26
 929 215 929 215 952 290 c 1,27,-1
 1137 267 l 1,28,29
 1112 187 1112 187 1080 126 c 128,-1,30
 1048 65 1048 65 1008 18 c 128,-1,31
 968 -29 968 -29 920.5 -64 c 128,-1,32
 873 -99 873 -99 818 -125 c 0,33,34
 685 -188 685 -188 546 -188 c 0,35,36
 466 -188 466 -188 399 -168 c 128,-1,37
 332 -148 332 -148 280.5 -111.5 c 128,-1,38
 229 -75 229 -75 194.5 -23 c 128,-1,39
 160 29 160 29 143 93 c 0,40,41
 124 164 124 164 152 296 c 0,42,43
 168 371 168 371 194 427 c 128,-1,44
 220 483 220 483 257.5 529.5 c 128,-1,45
 295 576 295 576 345 618 c 128,-1,46
 395 660 395 660 460 707 c 0,47,48
 513 745 513 745 544 770 c 128,-1,49
 575 795 575 795 595 815 c 128,-1,50
 615 835 615 835 627 853.5 c 128,-1,51
 639 872 639 872 652 898 c 0,52,53
 653 899 653 899 654.5 902.5 c 128,-1,54
 656 906 656 906 656 905 c 1,55,-1
 656 906 l 1,56,-1
 212 906 l 1,57,-1
 245 1061 l 1,58,-1
 1306 1061 l 1,59,-1
 1273 906 l 1,60,-1
 845 906 l 1,0,1
EndSplineSet
Validated: 33
EndChar

StartChar: alda
Encoding: 43 57379 39
Width: 1367
GlyphClass: 1
Flags: W
AnchorPoint: "LambeXhook" 417 0 basechar 0
AnchorPoint: "TehtaAbove" 1017 1500 basechar 0
AnchorPoint: "TehtaBelow" 817 300 basechar 0
AnchorPoint: "LambeBar" 1117 800 basechar 0
LayerCount: 2
Fore
SplineSet
951 -26 m 0,0,1
 871 -79 871 -79 785 -101.5 c 128,-1,2
 699 -124 699 -124 611 -124 c 0,3,4
 531 -124 531 -124 463 -105 c 128,-1,5
 395 -86 395 -86 343 -51 c 128,-1,6
 291 -16 291 -16 255.5 33 c 128,-1,7
 220 82 220 82 203 141 c 0,8,9
 194 176 194 176 196 223.5 c 128,-1,10
 198 271 198 271 211 334 c 0,11,12
 227 407 227 407 252.5 461 c 128,-1,13
 278 515 278 515 315 559 c 128,-1,14
 352 603 352 603 401 642.5 c 128,-1,15
 450 682 450 682 514 726 c 0,16,17
 567 763 567 763 598.5 786.5 c 128,-1,18
 630 810 630 810 650 829 c 128,-1,19
 670 848 670 848 682 866.5 c 128,-1,20
 694 885 694 885 708 911 c 1,21,-1
 708 910 l 1,22,23
 709 912 709 912 708.5 912 c 128,-1,24
 708 912 708 912 710 914 c 1,25,-1
 264 914 l 1,26,-1
 295 1061 l 1,27,-1
 1356 1061 l 1,28,-1
 1325 914 l 1,29,-1
 897 914 l 1,30,31
 888 890 888 890 877 868.5 c 128,-1,32
 866 847 866 847 855 829 c 1,33,-1
 855 830 l 1,34,35
 838 803 838 803 814 775.5 c 128,-1,36
 790 748 790 748 760 722 c 0,37,38
 750 713 750 713 728 697 c 128,-1,39
 706 681 706 681 678.5 660.5 c 128,-1,40
 651 640 651 640 619.5 616.5 c 128,-1,41
 588 593 588 593 558.5 570 c 128,-1,42
 529 547 529 547 504.5 526 c 128,-1,43
 480 505 480 505 467 490 c 0,44,45
 446 467 446 467 429.5 428.5 c 128,-1,46
 413 390 413 390 403 339 c 0,47,48
 392 291 392 291 391 258.5 c 128,-1,49
 390 226 390 226 395.5 200.5 c 128,-1,50
 401 175 401 175 413 153.5 c 128,-1,51
 425 132 425 132 441 108 c 0,52,53
 510 17 510 17 641 17 c 0,54,55
 760 17 760 17 863 95 c 0,56,57
 958 169 958 169 1072 169 c 0,58,59
 1132 169 1132 169 1180 145 c 128,-1,60
 1228 121 1228 121 1259 81 c 128,-1,61
 1290 41 1290 41 1301.5 -11.5 c 128,-1,62
 1313 -64 1313 -64 1301 -121 c 0,63,64
 1288 -180 1288 -180 1254.5 -232.5 c 128,-1,65
 1221 -285 1221 -285 1173.5 -324.5 c 128,-1,66
 1126 -364 1126 -364 1068 -387 c 128,-1,67
 1010 -410 1010 -410 949 -410 c 2,68,-1
 860 -410 l 1,69,-1
 893 -255 l 1,70,-1
 976 -255 l 2,71,72
 1002 -254 1002 -254 1027 -244 c 128,-1,73
 1052 -234 1052 -234 1072.5 -217 c 128,-1,74
 1093 -200 1093 -200 1108 -177.5 c 128,-1,75
 1123 -155 1123 -155 1128 -129 c 0,76,77
 1133 -104 1133 -104 1128 -81.5 c 128,-1,78
 1123 -59 1123 -59 1109 -41.5 c 128,-1,79
 1095 -24 1095 -24 1075 -13.5 c 128,-1,80
 1055 -3 1055 -3 1030 -3 c 0,81,82
 991 -3 991 -3 951 -26 c 0,0,1
EndSplineSet
Validated: 33
EndChar

StartChar: uniE024
Encoding: 44 57380 40
Width: 1102
GlyphClass: 1
Flags: W
AnchorPoint: "TehtaBelow" 702 -200 basechar 0
AnchorPoint: "TehtaAbove" 602 1500 basechar 0
LayerCount: 2
Fore
SplineSet
429 580 m 2,0,1
 425 577 425 577 418.5 569 c 128,-1,2
 412 561 412 561 405 552 c 1,3,-1
 406 552 l 1,4,5
 366 497 366 497 353 435 c 0,6,7
 341 378 341 378 351.5 326 c 128,-1,8
 362 274 362 274 391 234 c 128,-1,9
 420 194 420 194 465.5 170 c 128,-1,10
 511 146 511 146 569 146 c 0,11,12
 624 146 624 146 675 165 c 128,-1,13
 726 184 726 184 771.5 224 c 128,-1,14
 817 264 817 264 856 326.5 c 128,-1,15
 895 389 895 389 927 476 c 1,16,-1
 1111 451 l 1,17,18
 1074 332 1074 332 1016.5 242.5 c 128,-1,19
 959 153 959 153 885.5 93.5 c 128,-1,20
 812 34 812 34 723.5 4.5 c 128,-1,21
 635 -25 635 -25 535 -25 c 0,22,23
 427 -25 427 -25 347.5 10.5 c 128,-1,24
 268 46 268 46 219.5 106.5 c 128,-1,25
 171 167 171 167 155.5 248.5 c 128,-1,26
 140 330 140 330 159 422 c 0,27,28
 175 494 175 494 206.5 558 c 128,-1,29
 238 622 238 622 296 680 c 0,30,31
 426 822 426 822 562 969.5 c 128,-1,32
 698 1117 698 1117 828 1260 c 0,33,34
 856 1290 856 1290 881.5 1337 c 128,-1,35
 907 1384 907 1384 929 1464 c 1,36,-1
 1113 1465 l 1,37,38
 1095 1411 1095 1411 1078 1366.5 c 128,-1,39
 1061 1322 1061 1322 1042 1284 c 128,-1,40
 1023 1246 1023 1246 1000.5 1213 c 128,-1,41
 978 1180 978 1180 951 1150 c 2,42,-1
 429 580 l 2,0,1
EndSplineSet
Validated: 33
EndChar

StartChar: uniE025
Encoding: 45 57381 41
Width: 1102
GlyphClass: 1
Flags: W
AnchorPoint: "TehtaAbove" 902 1500 basechar 0
AnchorPoint: "TehtaBelow" 1102 -200 basechar 0
LayerCount: 2
Fore
SplineSet
971 485 m 2,0,1
 972 486 972 486 971.5 486 c 128,-1,2
 971 486 971 486 972 487 c 1,3,-1
 972 486 l 1,4,5
 974 488 974 488 978.5 495.5 c 128,-1,6
 983 503 983 503 990 511 c 0,7,8
 1029 561 1029 561 1043 627 c 0,9,10
 1054 681 1054 681 1044.5 732.5 c 128,-1,11
 1035 784 1035 784 1006.5 824.5 c 128,-1,12
 978 865 978 865 932.5 890 c 128,-1,13
 887 915 887 915 827 915 c 0,14,15
 770 915 770 915 718.5 895.5 c 128,-1,16
 667 876 667 876 621.5 835.5 c 128,-1,17
 576 795 576 795 537.5 733 c 128,-1,18
 499 671 499 671 470 586 c 1,19,-1
 284 611 l 1,20,21
 321 727 321 727 377 816 c 128,-1,22
 433 905 433 905 506 965 c 128,-1,23
 579 1025 579 1025 668.5 1056 c 128,-1,24
 758 1087 758 1087 861 1087 c 0,25,26
 970 1087 970 1087 1049 1051 c 128,-1,27
 1128 1015 1128 1015 1176 954 c 128,-1,28
 1224 893 1224 893 1240 812 c 128,-1,29
 1256 731 1256 731 1237 640 c 0,30,31
 1228 601 1228 601 1217.5 570.5 c 128,-1,32
 1207 540 1207 540 1191.5 511 c 128,-1,33
 1176 482 1176 482 1154 451.5 c 128,-1,34
 1132 421 1132 421 1101 382 c 2,35,-1
 567 -198 l 2,36,37
 537 -233 537 -233 511 -281 c 128,-1,38
 485 -329 485 -329 467 -401 c 1,39,-1
 284 -402 l 1,40,41
 314 -299 314 -299 352.5 -223.5 c 128,-1,42
 391 -148 391 -148 445 -88 c 2,43,-1
 971 485 l 2,0,1
EndSplineSet
Validated: 33
EndChar

StartChar: uniE026
Encoding: 46 57382 42
Width: 1102
GlyphClass: 1
Flags: W
AnchorPoint: "TehtaAbove" 602 1500 basechar 0
AnchorPoint: "TehtaBelow" 702 -500 basechar 0
LayerCount: 2
Fore
SplineSet
557 76 m 0,0,1
 405 76 405 76 312 140 c 1,2,3
 280 93 280 93 268 36 c 0,4,5
 256 -20 256 -20 267 -72 c 128,-1,6
 278 -124 278 -124 307 -164 c 128,-1,7
 336 -204 336 -204 381.5 -228 c 128,-1,8
 427 -252 427 -252 484 -252 c 0,9,10
 540 -252 540 -252 591 -233 c 128,-1,11
 642 -214 642 -214 687.5 -174.5 c 128,-1,12
 733 -135 733 -135 771.5 -72.5 c 128,-1,13
 810 -10 810 -10 842 77 c 1,14,-1
 1027 52 l 1,15,16
 989 -67 989 -67 931 -156.5 c 128,-1,17
 873 -246 873 -246 799 -305.5 c 128,-1,18
 725 -365 725 -365 636.5 -394.5 c 128,-1,19
 548 -424 548 -424 450 -424 c 0,20,21
 342 -424 342 -424 263 -388 c 128,-1,22
 184 -352 184 -352 135.5 -291 c 128,-1,23
 87 -230 87 -230 71 -149 c 128,-1,24
 55 -68 55 -68 74 22 c 0,25,26
 89 91 89 91 119.5 154 c 128,-1,27
 150 217 150 217 202 271 c 1,28,29
 150 380 150 380 181 523 c 0,30,31
 197 598 197 598 229 659.5 c 128,-1,32
 261 721 261 721 318 781 c 1,33,-1
 829 1261 l 1,34,-1
 828 1260 l 1,35,36
 855 1289 855 1289 880.5 1336.5 c 128,-1,37
 906 1384 906 1384 929 1464 c 1,38,-1
 1113 1465 l 1,39,40
 1095 1410 1095 1410 1078 1365.5 c 128,-1,41
 1061 1321 1061 1321 1041.5 1283 c 128,-1,42
 1022 1245 1022 1245 999 1211.5 c 128,-1,43
 976 1178 976 1178 947 1145 c 1,44,-1
 450 681 l 1,45,-1
 450 682 l 1,46,47
 436 664 436 664 431 658.5 c 128,-1,48
 426 653 426 653 426 652 c 1,49,-1
 427 653 l 1,50,51
 388 601 388 601 375 537 c 0,52,53
 362 479 362 479 373 426.5 c 128,-1,54
 384 374 384 374 413.5 334.5 c 128,-1,55
 443 295 443 295 488 271.5 c 128,-1,56
 533 248 533 248 590 248 c 0,57,58
 644 248 644 248 695 266 c 128,-1,59
 746 284 746 284 791.5 324 c 128,-1,60
 837 364 837 364 876.5 426.5 c 128,-1,61
 916 489 916 489 949 579 c 1,62,-1
 1133 553 l 1,63,64
 1096 434 1096 434 1038.5 344.5 c 128,-1,65
 981 255 981 255 907 195.5 c 128,-1,66
 833 136 833 136 745 106 c 128,-1,67
 657 76 657 76 557 76 c 0,0,1
EndSplineSet
Validated: 37
EndChar

StartChar: uniE027
Encoding: 47 57383 43
Width: 1102
GlyphClass: 1
Flags: W
AnchorPoint: "TehtaBelow" 1102 -200 basechar 0
AnchorPoint: "TehtaAbove" 902 1800 basechar 0
LayerCount: 2
Fore
SplineSet
754 987 m 0,0,1
 906 987 906 987 998 922 c 1,2,3
 1030 969 1030 969 1043 1027 c 0,4,5
 1054 1081 1054 1081 1044.5 1132.5 c 128,-1,6
 1035 1184 1035 1184 1006.5 1224.5 c 128,-1,7
 978 1265 978 1265 932.5 1290 c 128,-1,8
 887 1315 887 1315 827 1315 c 0,9,10
 770 1315 770 1315 718.5 1295.5 c 128,-1,11
 667 1276 667 1276 621.5 1235.5 c 128,-1,12
 576 1195 576 1195 537.5 1133 c 128,-1,13
 499 1071 499 1071 470 986 c 1,14,-1
 284 1011 l 1,15,16
 321 1127 321 1127 377 1216 c 128,-1,17
 433 1305 433 1305 506 1365 c 128,-1,18
 579 1425 579 1425 668.5 1456 c 128,-1,19
 758 1487 758 1487 861 1487 c 0,20,21
 970 1487 970 1487 1049 1451 c 128,-1,22
 1128 1415 1128 1415 1176 1354 c 128,-1,23
 1224 1293 1224 1293 1240 1212 c 128,-1,24
 1256 1131 1256 1131 1237 1040 c 0,25,26
 1222 971 1222 971 1190.5 908 c 128,-1,27
 1159 845 1159 845 1109 791 c 1,28,29
 1160 681 1160 681 1130 539 c 0,30,31
 1122 500 1122 500 1111 468 c 128,-1,32
 1100 436 1100 436 1083.5 406 c 128,-1,33
 1067 376 1067 376 1044.5 345.5 c 128,-1,34
 1022 315 1022 315 991 278 c 1,35,-1
 483 -197 l 1,36,-1
 483 -196 l 1,37,38
 452 -230 452 -230 426 -278 c 128,-1,39
 400 -326 400 -326 382 -401 c 1,40,-1
 199 -401 l 1,41,42
 217 -345 217 -345 234 -300 c 128,-1,43
 251 -255 251 -255 270.5 -217 c 128,-1,44
 290 -179 290 -179 312.5 -146 c 128,-1,45
 335 -113 335 -113 365 -81 c 2,46,-1
 862 382 l 2,47,48
 863 383 863 383 863.5 384 c 128,-1,49
 864 385 864 385 866 386 c 1,50,-1
 865 385 l 1,51,52
 868 387 868 387 872.5 394.5 c 128,-1,53
 877 402 877 402 884 410 c 0,54,55
 922 460 922 460 936 526 c 0,56,57
 948 583 948 583 937.5 635 c 128,-1,58
 927 687 927 687 898 727 c 128,-1,59
 869 767 869 767 823.5 791 c 128,-1,60
 778 815 778 815 721 815 c 0,61,62
 667 815 667 815 615.5 796 c 128,-1,63
 564 777 564 777 518 737 c 128,-1,64
 472 697 472 697 432.5 634.5 c 128,-1,65
 393 572 393 572 363 484 c 1,66,-1
 178 510 l 1,67,68
 215 627 215 627 272.5 716 c 128,-1,69
 330 805 330 805 403.5 865.5 c 128,-1,70
 477 926 477 926 565.5 956.5 c 128,-1,71
 654 987 654 987 754 987 c 0,0,1
EndSplineSet
Validated: 33
EndChar

StartChar: uniE028
Encoding: 48 57384 44
Width: 1248
GlyphClass: 1
Flags: W
AnchorPoint: "TehtaAbove" 1248 1500 basechar 0
AnchorPoint: "TehtaBelow" 848 -200 basechar 0
LayerCount: 2
Fore
SplineSet
740 882 m 1,0,1
 733 920 733 920 719.5 975.5 c 128,-1,2
 706 1031 706 1031 686 1107 c 0,3,4
 645 1256 645 1256 628 1275 c 0,5,6
 584 1320 584 1320 518 1320 c 0,7,8
 430 1320 430 1320 340 1273 c 1,9,-1
 377 1447 l 1,10,11
 497 1483 497 1483 571 1483 c 0,12,13
 634 1483 634 1483 675 1469.5 c 128,-1,14
 716 1456 716 1456 746.5 1418.5 c 128,-1,15
 777 1381 777 1381 802 1313 c 128,-1,16
 827 1245 827 1245 857 1137 c 2,17,-1
 1165 0 l 1,18,-1
 963 0 l 1,19,-1
 788 693 l 1,20,21
 657 518 657 518 529.5 346.5 c 128,-1,22
 402 175 402 175 271 0 c 1,23,-1
 67 0 l 1,24,-1
 740 882 l 1,0,1
EndSplineSet
Validated: 1
EndChar

StartChar: uniE029
Encoding: 49 57385 45
Width: 1465
GlyphClass: 1
Flags: W
AnchorPoint: "TehtaAbove" 772 1500 basechar 0
AnchorPoint: "TehtaBelow" 772 -200 basechar 0
LayerCount: 2
Fore
SplineSet
1377 0 m 1,0,-1
 1034 0 l 2,1,2
 1005 0 1005 0 979.5 5.5 c 128,-1,3
 954 11 954 11 931 26 c 128,-1,4
 908 41 908 41 888 66.5 c 128,-1,5
 868 92 868 92 851 132 c 1,6,7
 714 -21 714 -21 523 -21 c 0,8,9
 426 -21 426 -21 350.5 19.5 c 128,-1,10
 275 60 275 60 229 132.5 c 128,-1,11
 183 205 183 205 169.5 307 c 128,-1,12
 156 409 156 409 183 532 c 0,13,14
 207 646 207 646 258 747 c 128,-1,15
 309 848 309 848 382 924 c 128,-1,16
 455 1000 455 1000 548.5 1044 c 128,-1,17
 642 1088 642 1088 751 1088 c 0,18,19
 842 1088 842 1088 908.5 1050 c 128,-1,20
 975 1012 975 1012 1009 951 c 1,21,-1
 1118 1465 l 1,22,-1
 1303 1465 l 1,23,-1
 1100 505 l 2,24,25
 1086 438 1086 438 1082.5 377 c 128,-1,26
 1079 316 1079 316 1092 269.5 c 128,-1,27
 1105 223 1105 223 1137 195.5 c 128,-1,28
 1169 168 1169 168 1227 168 c 2,29,-1
 1412 168 l 1,30,-1
 1377 0 l 1,0,-1
375 532 m 0,31,32
 353 430 353 430 360.5 355 c 128,-1,33
 368 280 368 280 397 230.5 c 128,-1,34
 426 181 426 181 472 157 c 128,-1,35
 518 133 518 133 573 133 c 256,36,37
 628 133 628 133 683 155.5 c 128,-1,38
 738 178 738 178 786.5 225.5 c 128,-1,39
 835 273 835 273 872.5 345.5 c 128,-1,40
 910 418 910 418 931 517 c 0,41,42
 954 625 954 625 948.5 703.5 c 128,-1,43
 943 782 943 782 915 832.5 c 128,-1,44
 887 883 887 883 840.5 907.5 c 128,-1,45
 794 932 794 932 735 932 c 256,46,47
 676 932 676 932 620 908 c 128,-1,48
 564 884 564 884 517 835 c 128,-1,49
 470 786 470 786 433 710.5 c 128,-1,50
 396 635 396 635 375 532 c 0,31,32
EndSplineSet
Validated: 33
EndChar

StartChar: uniE02A
Encoding: 50 57386 46
Width: 1055
GlyphClass: 1
Flags: W
AnchorPoint: "TehtaBelow" 655 -200 basechar 0
AnchorPoint: "TehtaAbove" 855 1500 basechar 0
LayerCount: 2
Fore
SplineSet
292 0 m 1,0,-1
 94 0 l 1,1,-1
 609 676 l 1,2,3
 597 753 597 753 581 801 c 128,-1,4
 565 849 565 849 544 876 c 128,-1,5
 523 903 523 903 495.5 912.5 c 128,-1,6
 468 922 468 922 432 922 c 0,7,8
 347 922 347 922 254 875 c 1,9,-1
 291 1049 l 1,10,11
 413 1085 413 1085 486 1085 c 0,12,13
 611 1085 611 1085 663 1018 c 0,14,15
 687 986 687 986 715 915 c 128,-1,16
 743 844 743 844 772 739 c 0,17,18
 821 558 821 558 872 370 c 128,-1,19
 923 182 923 182 973 1 c 1,20,-1
 777 0 l 1,21,-1
 654 488 l 1,22,-1
 292 0 l 1,0,-1
EndSplineSet
Validated: 1
EndChar

StartChar: uniE02B
Encoding: 51 57387 47
Width: 1151
GlyphClass: 1
Flags: W
AnchorPoint: "TehtaAbove" 951 1500 basechar 0
AnchorPoint: "TehtaBelow" 751 -200 basechar 0
LayerCount: 2
Fore
SplineSet
182 530 m 0,0,1
 211 664 211 664 269.5 767.5 c 128,-1,2
 328 871 328 871 409 941.5 c 128,-1,3
 490 1012 490 1012 589 1048.5 c 128,-1,4
 688 1085 688 1085 798 1085 c 0,5,6
 907 1085 907 1085 990.5 1048 c 128,-1,7
 1074 1011 1074 1011 1125.5 941.5 c 128,-1,8
 1177 872 1177 872 1192 771.5 c 128,-1,9
 1207 671 1207 671 1180 545 c 0,10,11
 1158 439 1158 439 1125 359 c 128,-1,12
 1092 279 1092 279 1048.5 218.5 c 128,-1,13
 1005 158 1005 158 951.5 115 c 128,-1,14
 898 72 898 72 833 40 c 0,15,16
 701 -24 701 -24 562 -24 c 0,17,18
 452 -24 452 -24 368 11.5 c 128,-1,19
 284 47 284 47 233 117 c 128,-1,20
 182 187 182 187 167.5 290.5 c 128,-1,21
 153 394 153 394 182 530 c 0,0,1
373 530 m 256,22,23
 352 432 352 432 359.5 357 c 128,-1,24
 367 282 367 282 397.5 231.5 c 128,-1,25
 428 181 428 181 479 155.5 c 128,-1,26
 530 130 530 130 595 130 c 0,27,28
 659 130 659 130 720.5 154.5 c 128,-1,29
 782 179 782 179 833.5 229.5 c 128,-1,30
 885 280 885 280 925 356 c 128,-1,31
 965 432 965 432 987 536 c 0,32,33
 1008 631 1008 631 999.5 704.5 c 128,-1,34
 991 778 991 778 960.5 828 c 128,-1,35
 930 878 930 878 879.5 903.5 c 128,-1,36
 829 929 829 929 765 929 c 0,37,38
 700 929 700 929 638.5 903.5 c 128,-1,39
 577 878 577 878 525 827.5 c 128,-1,40
 473 777 473 777 433.5 702.5 c 128,-1,41
 394 628 394 628 373 530 c 256,22,23
EndSplineSet
Validated: 33
EndChar

StartChar: uniE02C
Encoding: 52 57388 48
Width: 290
GlyphClass: 1
Flags: W
AnchorPoint: "TehtaBelow" 190 -500 basechar 0
AnchorPoint: "TehtaAbove" 490 1500 basechar 0
LayerCount: 2
Fore
SplineSet
-33 -406 m 1,0,-1
 279 1061 l 1,1,-1
 465 1061 l 1,2,-1
 153 -406 l 1,3,-1
 -33 -406 l 1,0,-1
EndSplineSet
Validated: 1
EndChar

StartChar: uniE02D
Encoding: 53 57389 49
Width: 290
GlyphClass: 1
Flags: W
AnchorPoint: "TehtaBelow" 290 -200 basechar 0
AnchorPoint: "TehtaAbove" 590 1800 basechar 0
LayerCount: 2
Fore
SplineSet
54 0 m 1,0,-1
 365 1465 l 1,1,-1
 551 1465 l 1,2,-1
 240 0 l 1,3,-1
 54 0 l 1,0,-1
EndSplineSet
Validated: 1
EndChar

StartChar: uniE02E
Encoding: 54 57390 50
Width: 290
GlyphClass: 1
Flags: W
AnchorPoint: "TehtaAbove" 490 1500 basechar 0
AnchorPoint: "TehtaBelow" 290 -200 basechar 0
LayerCount: 2
Fore
SplineSet
54 0 m 1,0,-1
 279 1061 l 1,1,-1
 465 1061 l 1,2,-1
 240 0 l 1,3,-1
 54 0 l 1,0,-1
EndSplineSet
Validated: 1
EndChar

StartChar: uniE02F
Encoding: 55 57391 51
Width: 290
GlyphClass: 1
Flags: W
AnchorPoint: "TehtaAbove" 590 1800 basechar 0
AnchorPoint: "TehtaBelow" 190 -500 basechar 0
LayerCount: 2
Fore
SplineSet
-33 -406 m 1,0,-1
 365 1465 l 1,1,-1
 551 1465 l 1,2,-1
 153 -406 l 1,3,-1
 -33 -406 l 1,0,-1
EndSplineSet
Validated: 1
EndChar

StartChar: uniE030
Encoding: 56 57392 52
Width: 793
GlyphClass: 1
Flags: W
LayerCount: 2
Fore
SplineSet
104 779 m 1,0,1
 131 816 131 816 159 852 c 0,2,3
 187 888 187 888 218 926 c 0,4,5
 358 1085 358 1085 556 1085 c 0,6,7
 640 1086 640 1086 704 1050 c 0,8,9
 768 1014 768 1014 806 946 c 0,10,11
 844 878 844 878 851 777 c 0,12,13
 859 677 859 677 832 549 c 0,14,15
 776 284 776 284 558 0 c 1,16,-1
 373 0 l 1,17,18
 426 80 426 80 464 144 c 0,19,20
 502 208 502 208 530 258 c 0,21,22
 558 308 558 308 576 348 c 0,23,24
 594 388 594 388 608 422 c 0,25,26
 621 456 621 456 629 489 c 0,27,28
 637 521 637 521 644 555 c 0,29,30
 662 638 662 638 662 708 c 0,31,32
 662 778 662 778 642 828 c 0,33,34
 624 878 624 878 588 908 c 0,35,36
 552 936 552 936 501 936 c 0,37,38
 452 936 452 936 406 916 c 0,39,40
 360 896 360 896 316 866 c 0,41,42
 272 834 272 834 234 796 c 0,43,44
 194 758 194 758 159 718 c 1,45,-1
 104 779 l 1,0,1
EndSplineSet
Validated: 33
EndChar

StartChar: uniE031
Encoding: 57 57393 53
Width: 871
GlyphClass: 1
Flags: W
LayerCount: 2
Fore
SplineSet
826 155 m 1,0,-1
 794 0 l 1,1,-1
 -56 0 l 1,2,-1
 -24 155 l 1,3,-1
 474 155 l 1,4,5
 520 230 520 230 550 286 c 0,6,7
 580 342 580 342 598 389 c 0,8,9
 617 434 617 434 628 474 c 0,10,11
 639 514 639 514 647 555 c 0,12,13
 664 638 664 638 664 708 c 0,14,15
 664 778 664 778 645 828 c 0,16,17
 626 878 626 878 591 908 c 0,18,19
 556 936 556 936 505 936 c 0,20,21
 454 936 454 936 408 916 c 0,22,23
 362 896 362 896 319 866 c 0,24,25
 276 834 276 834 236 796 c 0,26,27
 196 758 196 758 162 718 c 1,28,-1
 107 779 l 1,29,30
 134 816 134 816 162 852 c 0,31,32
 190 888 190 888 221 926 c 0,33,34
 361 1085 361 1085 559 1085 c 0,35,36
 643 1086 643 1086 707 1050 c 0,37,38
 770 1014 770 1014 808 946 c 0,39,40
 846 878 846 878 854 777 c 0,41,42
 862 677 862 677 835 549 c 0,43,44
 794 357 794 357 668 155 c 1,45,-1
 826 155 l 1,0,-1
EndSplineSet
Validated: 33
EndChar

StartChar: uniE032
Encoding: 58 57394 54
Width: 775
GlyphClass: 1
Flags: W
LayerCount: 2
Fore
SplineSet
907 283 m 1,0,1
 854 206 854 206 804 149 c 0,2,3
 754 92 754 92 700 54 c 0,4,5
 646 16 646 16 586 -4 c 0,6,7
 526 -23 526 -23 454 -23 c 0,8,9
 369 -24 369 -24 305 12 c 0,10,11
 242 48 242 48 204 116 c 0,12,13
 166 184 166 184 158 284 c 0,14,15
 150 384 150 384 178 513 c 0,16,17
 206 648 206 648 274 782 c 0,18,19
 342 916 342 916 453 1061 c 1,20,-1
 638 1061 l 1,21,22
 483 824 483 824 436 716 c 0,23,24
 388 609 388 609 366 506 c 0,25,26
 348 420 348 420 349 350 c 0,27,28
 350 280 350 280 368 230 c 0,29,30
 386 180 386 180 422 152 c 0,31,32
 458 124 458 124 508 125 c 0,33,34
 556 124 556 124 602 144 c 0,35,36
 648 164 648 164 692 195 c 0,37,38
 736 226 736 226 775 265 c 0,39,40
 815 304 815 304 852 343 c 1,41,-1
 907 283 l 1,0,1
EndSplineSet
Validated: 33
EndChar

StartChar: uniE033
Encoding: 59 57395 55
Width: 856
GlyphClass: 1
Flags: W
LayerCount: 2
Fore
SplineSet
261 906 m 1,0,-1
 294 1061 l 1,1,-1
 1145 1061 l 1,2,-1
 1112 906 l 1,3,-1
 613 906 l 1,4,5
 575 844 575 844 550 796 c 0,6,7
 525 748 525 748 511 716 c 0,8,9
 463 607 463 607 441 506 c 0,10,11
 422 417 422 417 424 346 c 0,12,13
 426 275 426 275 444 226 c 0,14,15
 462 177 462 177 498 151 c 0,16,17
 534 125 534 125 583 125 c 256,18,19
 632 125 632 125 678 144 c 0,20,21
 724 163 724 163 766 194 c 0,22,23
 808 225 808 225 848 264 c 0,24,25
 888 303 888 303 926 343 c 1,26,-1
 983 283 l 1,27,28
 931 208 931 208 880 151 c 0,29,30
 830 94 830 94 776 55 c 0,31,32
 722 16 722 16 662 -4 c 0,33,34
 602 -24 602 -24 530 -23 c 0,35,36
 444 -23 444 -23 380 13 c 0,37,38
 316 50 316 50 278 118 c 0,39,40
 241 186 241 186 233 286 c 0,41,42
 225 386 225 386 253 513 c 0,43,44
 293 705 293 705 419 906 c 1,45,-1
 261 906 l 1,0,-1
EndSplineSet
Validated: 33
EndChar

StartChar: uniE034
Encoding: 60 57396 56
Width: 1058
GlyphClass: 1
Flags: W
LayerCount: 2
Fore
SplineSet
256 0 m 1,0,-1
 69 0 l 1,1,-1
 294 1061 l 1,2,-1
 481 1061 l 1,3,-1
 467 997 l 1,4,5
 544 1042 544 1042 620 1064 c 0,6,7
 696 1086 696 1086 778 1085 c 0,8,9
 862 1085 862 1085 928 1063 c 0,10,11
 994 1041 994 1041 1041 999 c 0,12,13
 1087 957 1087 957 1111 895 c 0,14,15
 1135 833 1135 833 1133 752 c 1,16,-1
 946 724 l 1,17,18
 941 827 941 827 893 880 c 0,19,20
 845 933 845 933 753 933 c 0,21,22
 688 932 688 932 628 910 c 0,23,24
 568 888 568 888 518 841 c 0,25,26
 468 794 468 794 430 720 c 0,27,28
 392 646 392 646 371 544 c 2,29,-1
 256 0 l 1,0,-1
EndSplineSet
Validated: 33
EndChar

StartChar: uniE035
Encoding: 61 57397 57
Width: 1895
GlyphClass: 1
Flags: W
AnchorPoint: "TehtaBelow" 695 -200 basechar 0
AnchorPoint: "TehtaAbove" 895 1500 basechar 0
LayerCount: 2
Fore
SplineSet
921 92 m 1,0,1
 840 34 840 34 751.5 5 c 128,-1,2
 663 -24 663 -24 563 -24 c 0,3,4
 452 -24 452 -24 368.5 12.5 c 128,-1,5
 285 49 285 49 234 119.5 c 128,-1,6
 183 190 183 190 169 293.5 c 128,-1,7
 155 397 155 397 183 530 c 256,8,9
 211 663 211 663 269 766.5 c 128,-1,10
 327 870 327 870 408.5 941 c 128,-1,11
 490 1012 490 1012 590 1048.5 c 128,-1,12
 690 1085 690 1085 803 1085 c 1,13,-1
 770 929 l 1,14,15
 702 929 702 929 640 903.5 c 128,-1,16
 578 878 578 878 526 827.5 c 128,-1,17
 474 777 474 777 435 702.5 c 128,-1,18
 396 628 396 628 375 530 c 256,19,20
 354 432 354 432 361.5 357 c 128,-1,21
 369 282 369 282 399.5 232 c 128,-1,22
 430 182 430 182 480.5 156.5 c 128,-1,23
 531 131 531 131 596 131 c 0,24,25
 727 131 727 131 837 230 c 0,26,27
 865 255 865 255 892 286.5 c 128,-1,28
 919 318 919 318 943 356 c 128,-1,29
 967 394 967 394 986 438 c 128,-1,30
 1005 482 1005 482 1016 532 c 2,31,-1
 1127 1061 l 1,32,-1
 1312 1061 l 1,33,-1
 1298 997 l 1,34,35
 1372 1039 1372 1039 1450.5 1062 c 128,-1,36
 1529 1085 1529 1085 1610 1085 c 0,37,38
 1782 1085 1782 1085 1875 999 c 128,-1,39
 1968 913 1968 913 1965 752 c 1,40,-1
 1777 724 l 1,41,42
 1771 833 1771 833 1722 883 c 128,-1,43
 1673 933 1673 933 1585 933 c 0,44,45
 1520 933 1520 933 1460 910.5 c 128,-1,46
 1400 888 1400 888 1350 841 c 128,-1,47
 1300 794 1300 794 1262 720 c 128,-1,48
 1224 646 1224 646 1202 544 c 2,49,-1
 1087 0 l 1,50,-1
 902 0 l 1,51,-1
 921 92 l 1,0,1
EndSplineSet
Validated: 33
EndChar

StartChar: uniE036
Encoding: 62 57398 58
Width: 1078
GlyphClass: 1
Flags: W
AnchorPoint: "TehtaBelow" 678 -200 basechar 0
AnchorPoint: "TehtaAbove" 878 1500 basechar 0
LayerCount: 2
Fore
SplineSet
937 0 m 1,0,-1
 769 0 l 1,1,-1
 801 153 l 1,2,3
 641 -24 641 -24 431 -24 c 0,4,5
 375 -24 375 -24 324.5 -10.5 c 128,-1,6
 274 3 274 3 235.5 28.5 c 128,-1,7
 197 54 197 54 171.5 90 c 128,-1,8
 146 126 146 126 141 171 c 0,9,10
 129 264 129 264 158 404 c 2,11,-1
 298 1061 l 1,12,-1
 485 1061 l 1,13,-1
 360 473 l 2,14,15
 346 407 346 407 338 359.5 c 128,-1,16
 330 312 330 312 331 277.5 c 128,-1,17
 332 243 332 243 343 219 c 128,-1,18
 354 195 354 195 378 177 c 0,19,20
 424 138 424 138 503 138 c 0,21,22
 551 138 551 138 602.5 155 c 128,-1,23
 654 172 654 172 706 207 c 0,24,25
 808 274 808 274 855 494 c 2,26,-1
 975 1061 l 1,27,-1
 1162 1061 l 1,28,-1
 937 0 l 1,0,-1
EndSplineSet
Validated: 33
EndChar

StartChar: uniE037
Encoding: 63 57399 59
Width: 1172
GlyphClass: 1
Flags: W
AnchorPoint: "TehtaAbove" 972 1500 basechar 0
AnchorPoint: "TehtaBelow" 672 -200 basechar 0
LayerCount: 2
Fore
SplineSet
871 155 m 1,0,1
 892 215 892 215 913 289 c 128,-1,2
 934 363 934 363 955 459 c 2,3,-1
 958 471 l 1,4,5
 990 622 990 622 975 722.5 c 128,-1,6
 960 823 960 823 894 884 c 0,7,8
 867 910 867 910 831 923 c 128,-1,9
 795 936 795 936 756 936 c 0,10,11
 705 936 705 936 658 908 c 128,-1,12
 611 880 611 880 570.5 829.5 c 128,-1,13
 530 779 530 779 499 709 c 128,-1,14
 468 639 468 639 450 555 c 0,15,16
 443 518 443 518 437.5 478.5 c 128,-1,17
 432 439 432 439 431.5 392 c 128,-1,18
 431 345 431 345 436.5 287 c 128,-1,19
 442 229 442 229 456 155 c 1,20,-1
 871 155 l 1,0,1
839 0 m 1,21,-1
 70 0 l 1,22,-1
 102 155 l 1,23,-1
 260 155 l 1,24,25
 221 356 221 356 262 549 c 0,26,27
 290 678 290 678 340.5 778 c 128,-1,28
 391 878 391 878 457.5 946 c 128,-1,29
 524 1014 524 1014 603 1049.5 c 128,-1,30
 682 1085 682 1085 766 1085 c 0,31,32
 960 1085 960 1085 1035 927 c 1,33,-1
 1064 1061 l 1,34,-1
 1251 1061 l 1,35,-1
 939 -406 l 1,36,-1
 752 -406 l 1,37,-1
 839 0 l 1,21,-1
EndSplineSet
Validated: 33
EndChar

StartChar: uniE038
Encoding: 64 57400 60
Width: 1172
GlyphClass: 1
Flags: W
AnchorPoint: "TehtaAbove" 872 1500 basechar 0
AnchorPoint: "TehtaBelow" 772 -200 basechar 0
LayerCount: 2
Fore
SplineSet
871 155 m 1,0,1
 892 215 892 215 913 289 c 128,-1,2
 934 363 934 363 955 459 c 2,3,-1
 958 471 l 1,4,5
 990 622 990 622 975 722.5 c 128,-1,6
 960 823 960 823 894 884 c 0,7,8
 867 910 867 910 831 923 c 128,-1,9
 795 936 795 936 756 936 c 0,10,11
 705 936 705 936 658 908 c 128,-1,12
 611 880 611 880 570.5 829.5 c 128,-1,13
 530 779 530 779 499 709 c 128,-1,14
 468 639 468 639 450 555 c 0,15,16
 443 518 443 518 437.5 478.5 c 128,-1,17
 432 439 432 439 431.5 392 c 128,-1,18
 431 345 431 345 436.5 287 c 128,-1,19
 442 229 442 229 456 155 c 1,20,-1
 871 155 l 1,0,1
70 0 m 1,21,-1
 102 155 l 1,22,-1
 260 155 l 1,23,24
 221 356 221 356 262 549 c 0,25,26
 290 678 290 678 340.5 778 c 128,-1,27
 391 878 391 878 457.5 946 c 128,-1,28
 524 1014 524 1014 603 1049.5 c 128,-1,29
 682 1085 682 1085 766 1085 c 0,30,31
 960 1085 960 1085 1035 927 c 1,32,-1
 1150 1465 l 1,33,-1
 1337 1465 l 1,34,-1
 1026 0 l 1,35,-1
 70 0 l 1,21,-1
EndSplineSet
Validated: 33
EndChar

StartChar: uniE039
Encoding: 65 57401 61
Width: 1108
GlyphClass: 1
Flags: W
LayerCount: 2
Fore
SplineSet
588 213 m 1,0,1
 652 189 652 189 709 168 c 0,2,3
 766 147 766 147 811 147 c 0,4,5
 840 148 840 148 874 156 c 0,6,7
 908 164 908 164 943 180 c 0,8,9
 978 196 978 196 1012 216 c 0,10,11
 1046 237 1046 237 1077 262 c 1,12,-1
 1039 81 l 1,13,14
 1002 57 1002 57 969 39 c 0,15,16
 936 22 936 22 903 10 c 0,17,18
 870 -2 870 -2 835 -8 c 0,19,20
 800 -14 800 -14 759 -13 c 0,21,22
 727 -12 727 -12 702 -10 c 0,23,24
 677 -8 677 -8 650 -0 c 0,25,26
 623 8 623 8 589 20 c 0,27,28
 555 32 555 32 507 53 c 0,29,30
 457 74 457 74 412 84 c 0,31,32
 367 94 367 94 335 95 c 0,33,34
 306 95 306 95 280 91 c 0,35,36
 254 87 254 87 222 75 c 0,37,38
 192 63 192 63 154 40 c 0,39,40
 116 17 116 17 65 -20 c 1,41,-1
 103 156 l 1,42,43
 224 255 224 255 385 255 c 2,44,-1
 396 255 l 2,45,46
 398 254 398 254 400 254 c 0,47,48
 402 254 402 254 406 254 c 0,49,50
 412 259 412 259 421 272 c 0,51,52
 430 285 430 285 446 302 c 2,53,-1
 969 871 l 2,54,55
 973 876 973 876 977 882 c 0,56,57
 981 888 981 888 986 893 c 1,58,-1
 985 893 l 1,59,60
 987 895 987 895 988 896 c 0,61,62
 989 897 989 897 991 899 c 0,63,64
 1030 951 1030 951 1043 1015 c 0,65,66
 1055 1072 1055 1072 1044 1124 c 0,67,68
 1033 1176 1033 1176 1004 1216 c 0,69,70
 975 1256 975 1256 930 1280 c 0,71,72
 885 1304 885 1304 828 1304 c 256,73,74
 771 1304 771 1304 719 1284 c 0,75,76
 668 1264 668 1264 622 1224 c 0,77,78
 576 1184 576 1184 538 1122 c 0,79,80
 500 1060 500 1060 471 975 c 1,81,-1
 285 999 l 1,82,83
 320 1114 320 1114 376 1202 c 0,84,85
 432 1290 432 1290 505 1352 c 0,86,87
 578 1412 578 1412 668 1444 c 0,88,89
 758 1476 758 1476 861 1476 c 0,90,91
 968 1476 968 1476 1048 1440 c 0,92,93
 1128 1404 1128 1404 1176 1344 c 0,94,95
 1224 1284 1224 1284 1241 1202 c 0,96,97
 1257 1120 1257 1120 1237 1029 c 0,98,99
 1229 991 1229 991 1218 959 c 0,100,101
 1206 927 1206 927 1190 897 c 0,102,103
 1174 866 1174 866 1152 836 c 0,104,105
 1130 806 1130 806 1100 771 c 2,106,-1
 588 213 l 1,0,1
EndSplineSet
Validated: 33
EndChar

StartChar: uniE03A
Encoding: 66 57402 62
Width: 1970
GlyphClass: 1
Flags: W
AnchorPoint: "TehtaBelow" 1110 -200 basechar 0
AnchorPoint: "TehtaAbove" 1310 1500 basechar 0
LayerCount: 2
Fore
SplineSet
714 155 m 1,0,1
 760 230 760 230 790 286 c 128,-1,2
 820 342 820 342 839 388 c 128,-1,3
 858 434 858 434 869 474 c 128,-1,4
 880 514 880 514 888 555 c 0,5,6
 906 639 906 639 905 709 c 128,-1,7
 904 779 904 779 886 829.5 c 128,-1,8
 868 880 868 880 832.5 908 c 128,-1,9
 797 936 797 936 748 936 c 0,10,11
 710 936 710 936 671 922.5 c 128,-1,12
 632 909 632 909 594.5 885.5 c 128,-1,13
 557 862 557 862 524 830 c 128,-1,14
 491 798 491 798 466 761 c 0,15,16
 391 651 391 651 352 467 c 0,17,18
 331 369 331 369 319.5 292 c 128,-1,19
 308 215 308 215 303 155 c 1,20,-1
 714 155 l 1,0,1
1352 155 m 1,21,22
 1397 229 1397 229 1426.5 284 c 128,-1,23
 1456 339 1456 339 1474.5 385 c 128,-1,24
 1493 431 1493 431 1504 471 c 128,-1,25
 1515 511 1515 511 1524 555 c 0,26,27
 1543 641 1543 641 1542 711.5 c 128,-1,28
 1541 782 1541 782 1522.5 832 c 128,-1,29
 1504 882 1504 882 1468 909 c 128,-1,30
 1432 936 1432 936 1381 936 c 256,31,32
 1330 936 1330 936 1283 908.5 c 128,-1,33
 1236 881 1236 881 1195.5 830.5 c 128,-1,34
 1155 780 1155 780 1124 708.5 c 128,-1,35
 1093 637 1093 637 1074 549 c 0,36,37
 1054 452 1054 452 1012.5 353.5 c 128,-1,38
 971 255 971 255 909 155 c 1,39,-1
 1352 155 l 1,21,22
75 2 m 1,40,-1
 300 1063 l 1,41,-1
 497 1063 l 1,42,-1
 469 928 l 1,43,44
 611 1085 611 1085 802 1085 c 0,45,46
 998 1085 998 1085 1073 893 c 1,47,48
 1148 990 1148 990 1238 1037.5 c 128,-1,49
 1328 1085 1328 1085 1422 1085 c 0,50,51
 1520 1085 1520 1085 1587.5 1048 c 128,-1,52
 1655 1011 1655 1011 1691.5 941.5 c 128,-1,53
 1728 872 1728 872 1733.5 772.5 c 128,-1,54
 1739 673 1739 673 1712 549 c 0,55,56
 1691 450 1691 450 1650.5 352.5 c 128,-1,57
 1610 255 1610 255 1546 155 c 1,58,-1
 1625 155 l 2,59,60
 1684 155 1684 155 1732 132.5 c 128,-1,61
 1780 110 1780 110 1811.5 71 c 128,-1,62
 1843 32 1843 32 1855 -20.5 c 128,-1,63
 1867 -73 1867 -73 1854 -133 c 256,64,65
 1841 -193 1841 -193 1807 -245.5 c 128,-1,66
 1773 -298 1773 -298 1725.5 -338 c 128,-1,67
 1678 -378 1678 -378 1620 -401 c 128,-1,68
 1562 -424 1562 -424 1502 -424 c 0,69,70
 1383 -424 1383 -424 1314 -336 c 1,71,-1
 1446 -226 l 1,72,73
 1481 -269 1481 -269 1535 -269 c 0,74,75
 1562 -269 1562 -269 1588.5 -258.5 c 128,-1,76
 1615 -248 1615 -248 1637.5 -229.5 c 128,-1,77
 1660 -211 1660 -211 1676 -186.5 c 128,-1,78
 1692 -162 1692 -162 1698 -134 c 0,79,80
 1704 -107 1704 -107 1698.5 -82.5 c 128,-1,81
 1693 -58 1693 -58 1679 -40 c 128,-1,82
 1665 -22 1665 -22 1643 -11 c 128,-1,83
 1621 0 1621 0 1593 0 c 2,84,-1
 75 2 l 1,40,-1
EndSplineSet
Validated: 33
EndChar

StartChar: uniE03B
Encoding: 67 57403 63
Width: 1333
GlyphClass: 1
Flags: W
AnchorPoint: "TehtaAbove" 970 1500 basechar 0
AnchorPoint: "TehtaBelow" 770 -200 basechar 0
LayerCount: 2
Fore
SplineSet
267 2 m 1,0,-1
 74 2 l 1,1,-1
 299 1063 l 1,2,-1
 495 1063 l 1,3,-1
 468 928 l 1,4,5
 610 1085 610 1085 804 1085 c 0,6,7
 888 1085 888 1085 952 1049.5 c 128,-1,8
 1016 1014 1016 1014 1053.5 946 c 128,-1,9
 1091 878 1091 878 1099.5 778 c 128,-1,10
 1108 678 1108 678 1080 549 c 0,11,12
 1039 353 1039 353 914 155 c 1,13,-1
 992 155 l 2,14,15
 1049 155 1049 155 1097 133.5 c 128,-1,16
 1145 112 1145 112 1177 73.5 c 128,-1,17
 1209 35 1209 35 1221.5 -18 c 128,-1,18
 1234 -71 1234 -71 1221 -133 c 0,19,20
 1208 -193 1208 -193 1174.5 -246 c 128,-1,21
 1141 -299 1141 -299 1093.5 -338.5 c 128,-1,22
 1046 -378 1046 -378 988 -401 c 128,-1,23
 930 -424 930 -424 869 -424 c 0,24,25
 750 -424 750 -424 682 -336 c 1,26,-1
 814 -226 l 1,27,28
 849 -269 849 -269 903 -269 c 0,29,30
 931 -269 931 -269 958 -258 c 128,-1,31
 985 -247 985 -247 1007 -228 c 128,-1,32
 1029 -209 1029 -209 1044.5 -185 c 128,-1,33
 1060 -161 1060 -161 1066 -134 c 0,34,35
 1071 -109 1071 -109 1066.5 -85 c 128,-1,36
 1062 -61 1062 -61 1048 -42 c 128,-1,37
 1034 -23 1034 -23 1012 -11.5 c 128,-1,38
 990 0 990 0 961 0 c 2,39,-1
 267 2 l 1,0,-1
718 155 m 1,40,41
 756 216 756 216 782 263.5 c 128,-1,42
 808 311 808 311 823 346 c 0,43,44
 850 409 850 409 867.5 459.5 c 128,-1,45
 885 510 885 510 894 555 c 0,46,47
 912 639 912 639 911 709 c 128,-1,48
 910 779 910 779 891.5 829.5 c 128,-1,49
 873 880 873 880 837 908 c 128,-1,50
 801 936 801 936 750 936 c 0,51,52
 710 936 710 936 670.5 922.5 c 128,-1,53
 631 909 631 909 593.5 885.5 c 128,-1,54
 556 862 556 862 523 830 c 128,-1,55
 490 798 490 798 465 761 c 0,56,57
 388 647 388 647 350 468 c 0,58,59
 329 369 329 369 317.5 292 c 128,-1,60
 306 215 306 215 302 155 c 1,61,-1
 718 155 l 1,40,41
EndSplineSet
Validated: 33
EndChar

StartChar: uniE03C
Encoding: 68 57404 64
Width: 1140
GlyphClass: 1
Flags: W
LayerCount: 2
Fore
SplineSet
511 73 m 1,0,1
 478 424 478 424 445 769 c 0,2,3
 412 1114 412 1114 379 1465 c 1,4,-1
 573 1465 l 1,5,-1
 681 296 l 1,6,7
 764 404 764 404 844 509 c 0,8,9
 924 614 924 614 1005 723 c 0,10,11
 1019 743 1019 743 1025 771 c 0,12,13
 1032 800 1032 800 1026 824 c 0,14,15
 1020 848 1020 848 1004 867 c 0,16,17
 990 886 990 886 968 896 c 0,18,19
 946 906 946 906 920 906 c 2,20,-1
 683 906 l 1,21,-1
 716 1061 l 1,22,-1
 989 1061 l 2,23,24
 1047 1060 1047 1060 1095 1038 c 0,25,26
 1142 1016 1142 1016 1174 976 c 0,27,28
 1206 936 1206 936 1218 884 c 0,29,30
 1230 831 1230 831 1217 770 c 256,31,32
 1204 709 1204 709 1176 664 c 1,33,-1
 357 -406 l 1,34,-1
 150 -406 l 1,35,-1
 511 73 l 1,0,1
EndSplineSet
Validated: 33
EndChar

StartChar: uniE03D
Encoding: 69 57405 65
Width: 1337
GlyphClass: 1
Flags: W
AnchorPoint: "TehtaBelow" 751 -200 basechar 0
AnchorPoint: "TehtaAbove" 951 1500 basechar 0
LayerCount: 2
Fore
SplineSet
369 506 m 0,0,1
 348 407 348 407 355.5 332.5 c 128,-1,2
 363 258 363 258 393.5 207.5 c 128,-1,3
 424 157 424 157 474.5 131.5 c 128,-1,4
 525 106 525 106 590 106 c 0,5,6
 653 106 653 106 714 130 c 128,-1,7
 775 154 775 154 827 203.5 c 128,-1,8
 879 253 879 253 919.5 329.5 c 128,-1,9
 960 406 960 406 982 512 c 0,10,11
 1003 608 1003 608 994.5 681.5 c 128,-1,12
 986 755 986 755 955 804.5 c 128,-1,13
 924 854 924 854 874 879.5 c 128,-1,14
 824 905 824 905 760 905 c 0,15,16
 695 905 695 905 633.5 879.5 c 128,-1,17
 572 854 572 854 520.5 803.5 c 128,-1,18
 469 753 469 753 429.5 678.5 c 128,-1,19
 390 604 390 604 369 506 c 0,0,1
727 -23 m 1,20,21
 687 -35 687 -35 643.5 -41.5 c 128,-1,22
 600 -48 600 -48 557 -48 c 0,23,24
 445 -48 445 -48 361.5 -11.5 c 128,-1,25
 278 25 278 25 227.5 95.5 c 128,-1,26
 177 166 177 166 163 269 c 128,-1,27
 149 372 149 372 177 506 c 0,28,29
 205 639 205 639 263.5 742 c 128,-1,30
 322 845 322 845 402.5 916 c 128,-1,31
 483 987 483 987 582.5 1024 c 128,-1,32
 682 1061 682 1061 793 1061 c 0,33,34
 900 1061 900 1061 983.5 1025 c 128,-1,35
 1067 989 1067 989 1118.5 920 c 128,-1,36
 1170 851 1170 851 1186.5 750.5 c 128,-1,37
 1203 650 1203 650 1175 521 c 0,38,39
 1149 398 1149 398 1110 311.5 c 128,-1,40
 1071 225 1071 225 1012 159 c 1,41,-1
 1016 162 l 1,42,43
 1061 158 1061 158 1106 146.5 c 128,-1,44
 1151 135 1151 135 1183.5 104.5 c 128,-1,45
 1216 74 1216 74 1228.5 18 c 128,-1,46
 1241 -38 1241 -38 1222 -131 c 0,47,48
 1204 -214 1204 -214 1166 -303 c 1,49,-1
 1071 -283 l 1,50,51
 1083 -253 1083 -253 1091.5 -224 c 128,-1,52
 1100 -195 1100 -195 1106 -166 c 0,53,54
 1113 -136 1113 -136 1114.5 -110 c 128,-1,55
 1116 -84 1116 -84 1104 -64.5 c 128,-1,56
 1092 -45 1092 -45 1062.5 -34 c 128,-1,57
 1033 -23 1033 -23 978 -23 c 2,58,-1
 727 -23 l 1,20,21
EndSplineSet
Validated: 33
EndChar

StartChar: uniE040
Encoding: 70 57408 66
Width: 0
Flags: W
AnchorPoint: "mkmk_up" -200 1500 mark 0
AnchorPoint: "mkmk_up" -100 1800 basemark 0
AnchorPoint: "TehtaAbove" -200 1500 mark 0
LayerCount: 2
Fore
SplineSet
-321 1440 m 1,0,-1
 -286 1606 l 1,1,-1
 -120 1606 l 1,2,-1
 -155 1440 l 1,3,-1
 -321 1440 l 1,0,-1
-150 1249 m 1,4,-1
 -115 1414 l 1,5,-1
 50 1414 l 1,6,-1
 15 1249 l 1,7,-1
 -150 1249 l 1,4,-1
-574 1249 m 1,8,-1
 -539 1414 l 1,9,-1
 -373 1414 l 1,10,-1
 -408 1249 l 1,11,-1
 -574 1249 l 1,8,-1
EndSplineSet
Validated: 1
EndChar

StartChar: uniE041
Encoding: 71 57409 67
Width: 0
Flags: W
AnchorPoint: "mkmk_down" -500 -500 basemark 0
AnchorPoint: "mkmk_down" -400 -200 mark 0
AnchorPoint: "TehtaBelow" -400 -200 mark 0
LayerCount: 2
Fore
SplineSet
-264 -66 m 1,0,-1
 -299 -232 l 1,1,-1
 -465 -232 l 1,2,-1
 -430 -66 l 1,3,-1
 -264 -66 l 1,0,-1
-688 -66 m 1,4,-1
 -723 -232 l 1,5,-1
 -889 -232 l 1,6,-1
 -854 -66 l 1,7,-1
 -688 -66 l 1,4,-1
-516 -258 m 1,8,-1
 -552 -424 l 1,9,-1
 -718 -424 l 1,10,-1
 -682 -258 l 1,11,-1
 -516 -258 l 1,8,-1
EndSplineSet
Validated: 1
EndChar

StartChar: uniE042
Encoding: 72 57410 68
Width: 0
Flags: W
AnchorPoint: "mkmk_up" -100 1800 basemark 0
AnchorPoint: "mkmk_up" -200 1500 mark 0
AnchorPoint: "TehtaAbove" -200 1500 mark 0
LayerCount: 2
Fore
SplineSet
-175 1321 m 1,0,-1
 -130 1532 l 1,1,-1
 64 1532 l 1,2,-1
 19 1321 l 1,3,-1
 -175 1321 l 1,0,-1
-545 1321 m 1,4,-1
 -500 1532 l 1,5,-1
 -305 1532 l 1,6,-1
 -350 1321 l 1,7,-1
 -545 1321 l 1,4,-1
EndSplineSet
Validated: 1
Ligature2: "Ligatures subtable" uniE044 uniE044
LCarets2: 1 0
EndChar

StartChar: uniE043
Encoding: 73 57411 69
Width: 0
Flags: W
AnchorPoint: "mkmk_down" -400 -200 mark 0
AnchorPoint: "mkmk_down" -500 -500 basemark 0
AnchorPoint: "TehtaBelow" -400 -200 mark 0
LayerCount: 2
Fore
SplineSet
-912 -406 m 1,0,-1
 -867 -195 l 1,1,-1
 -672 -195 l 1,2,-1
 -717 -406 l 1,3,-1
 -912 -406 l 1,0,-1
-542 -406 m 1,4,-1
 -497 -195 l 1,5,-1
 -302 -195 l 1,6,-1
 -347 -406 l 1,7,-1
 -542 -406 l 1,4,-1
EndSplineSet
Validated: 1
Ligature2: "Ligatures subtable" uniE045 uniE045
LCarets2: 1 0
EndChar

StartChar: uniE044
Encoding: 74 57412 70
Width: 0
Flags: W
AnchorPoint: "mkmk_up" -100 1800 basemark 0
AnchorPoint: "mkmk_up" -200 1500 mark 0
AnchorPoint: "TehtaAbove" -200 1500 mark 0
LayerCount: 2
Fore
SplineSet
-359 1320 m 1,0,-1
 -314 1531 l 1,1,-1
 -120 1531 l 1,2,-1
 -165 1320 l 1,3,-1
 -359 1320 l 1,0,-1
EndSplineSet
Validated: 1
EndChar

StartChar: uniE045
Encoding: 75 57413 71
Width: 0
Flags: W
AnchorPoint: "mkmk_down" -400 -200 mark 0
AnchorPoint: "mkmk_down" -500 -500 basemark 0
AnchorPoint: "TehtaBelow" -400 -200 mark 0
LayerCount: 2
Fore
SplineSet
-489 -195 m 1,0,-1
 -534 -406 l 1,1,-1
 -728 -406 l 1,2,-1
 -683 -195 l 1,3,-1
 -489 -195 l 1,0,-1
EndSplineSet
Validated: 1
EndChar

StartChar: uniE046
Encoding: 76 57414 72
Width: 0
Flags: W
AnchorPoint: "mkmk_up" -100 1800 basemark 0
AnchorPoint: "mkmk_up" -200 1500 mark 0
AnchorPoint: "TehtaAbove" -200 1500 mark 0
LayerCount: 2
Fore
SplineSet
39 1571 m 1,0,-1
 -247 1284 l 1,1,-1
 -402 1284 l 1,2,-1
 -205 1571 l 1,3,-1
 39 1571 l 1,0,-1
EndSplineSet
Validated: 1
EndChar

StartChar: uniE047
Encoding: 77 57415 73
Width: 0
Flags: W
AnchorPoint: "mkmk_down" -400 -200 mark 0
AnchorPoint: "mkmk_down" -500 -500 basemark 0
AnchorPoint: "TehtaBelow" -400 -200 mark 0
LayerCount: 2
Fore
SplineSet
-879 -424 m 1,0,-1
 -592 -137 l 1,1,-1
 -437 -137 l 1,2,-1
 -634 -424 l 1,3,-1
 -879 -424 l 1,0,-1
EndSplineSet
Validated: 1
EndChar

StartChar: uniE048
Encoding: 78 57416 74
Width: 0
Flags: W
AnchorPoint: "mkmk_up" -100 1800 basemark 0
AnchorPoint: "mkmk_up" -200 1500 mark 0
AnchorPoint: "TehtaAbove" -200 1500 mark 0
LayerCount: 2
Fore
SplineSet
204 1570 m 1,0,-1
 -82 1283 l 1,1,-1
 -237 1283 l 1,2,-1
 -40 1570 l 1,3,-1
 204 1570 l 1,0,-1
-131 1570 m 1,4,-1
 -418 1283 l 1,5,-1
 -573 1283 l 1,6,-1
 -376 1570 l 1,7,-1
 -131 1570 l 1,4,-1
EndSplineSet
Validated: 1
Ligature2: "Ligatures subtable" uniE046 uniE046
LCarets2: 1 0
EndChar

StartChar: uniE049
Encoding: 79 57417 75
Width: 0
Flags: W
AnchorPoint: "mkmk_down" -400 -200 mark 0
AnchorPoint: "mkmk_down" -500 -500 basemark 0
AnchorPoint: "TehtaBelow" -400 -200 mark 0
LayerCount: 2
Fore
SplineSet
-714 -424 m 1,0,-1
 -427 -137 l 1,1,-1
 -272 -137 l 1,2,-1
 -469 -424 l 1,3,-1
 -714 -424 l 1,0,-1
-1050 -424 m 1,4,-1
 -763 -137 l 1,5,-1
 -608 -137 l 1,6,-1
 -805 -424 l 1,7,-1
 -1050 -424 l 1,4,-1
EndSplineSet
Validated: 1
Ligature2: "Ligatures subtable" uniE047 uniE047
LCarets2: 1 0
EndChar

StartChar: uniE04A
Encoding: 80 57418 76
Width: 0
AnchorPoint: "mkmk_up" -100 1800 basemark 0
AnchorPoint: "mkmk_up" -200 1500 mark 0
AnchorPoint: "TehtaAbove" -200 1500 mark 0
LayerCount: 2
Fore
SplineSet
-73 1410 m 1,0,1
 -69 1450 -69 1450 -71.5 1485 c 128,-1,2
 -74 1520 -74 1520 -88 1542 c 0,3,4
 -99 1559 -99 1559 -118.5 1565.5 c 128,-1,5
 -138 1572 -138 1572 -157 1566 c 1,6,-1
 -156 1566 l 1,7,8
 -179 1555 -179 1555 -223 1512 c 2,9,-1
 -493 1239 l 1,10,-1
 -560 1341 l 1,11,-1
 -218 1682 l 2,12,13
 -184 1712 -184 1712 -153.5 1722 c 128,-1,14
 -123 1732 -123 1732 -95.5 1727.5 c 128,-1,15
 -68 1723 -68 1723 -45 1706 c 128,-1,16
 -22 1689 -22 1689 -5 1662 c 0,17,18
 21 1622 21 1622 30 1565 c 128,-1,19
 39 1508 39 1508 39 1455 c 1,20,-1
 -73 1410 l 1,0,1
EndSplineSet
Validated: 33
EndChar

StartChar: uniE04B
Encoding: 81 57419 77
Width: 0
Flags: W
AnchorPoint: "mkmk_down" -400 -200 mark 0
AnchorPoint: "mkmk_down" -500 -500 basemark 0
AnchorPoint: "TehtaBelow" -400 -200 mark 0
LayerCount: 2
Fore
SplineSet
-757 -549 m 1,0,1
 -798 -524 -798 -524 -833.5 -490.5 c 128,-1,2
 -869 -457 -869 -457 -883 -416 c 0,3,4
 -893 -385 -893 -385 -893 -352 c 128,-1,5
 -893 -319 -893 -319 -881 -287 c 128,-1,6
 -869 -255 -869 -255 -845.5 -224.5 c 128,-1,7
 -822 -194 -822 -194 -785 -167 c 1,8,-1
 -366 75 l 1,9,-1
 -328 -41 l 1,10,-1
 -661 -232 l 2,11,12
 -724 -268 -724 -268 -745.5 -298 c 128,-1,13
 -767 -328 -767 -328 -754 -369 c 0,14,15
 -740 -413 -740 -413 -668 -441 c 1,16,-1
 -757 -549 l 1,0,1
EndSplineSet
Validated: 33
EndChar

StartChar: uniE04C
Encoding: 82 57420 78
Width: 0
Flags: W
AnchorPoint: "mkmk_up" -100 1800 basemark 0
AnchorPoint: "mkmk_up" -200 1500 mark 0
AnchorPoint: "TehtaAbove" -200 1500 mark 0
LayerCount: 2
Fore
SplineSet
-81 1878 m 5,0,1
 -40 1852 -40 1852 -5 1818 c 132,-1,2
 30 1784 30 1784 43 1743 c 4,3,4
 53 1714 53 1714 53 1682.5 c 132,-1,5
 53 1651 53 1651 42.5 1619 c 132,-1,6
 32 1587 32 1587 8.5 1556 c 132,-1,7
 -15 1525 -15 1525 -54 1498 c 6,8,-1
 -474 1255 l 5,9,-1
 -511 1371 l 5,10,-1
 -178 1561 l 6,11,12
 -149 1578 -149 1578 -130.5 1591.5 c 132,-1,13
 -112 1605 -112 1605 -101.5 1617.5 c 132,-1,14
 -91 1630 -91 1630 -86.5 1643 c 132,-1,15
 -82 1656 -82 1656 -82 1671 c 5,16,-1
 -81 1670 l 5,17,18
 -82 1687 -82 1687 -85 1698 c 4,19,20
 -90 1712 -90 1712 -101 1727 c 5,21,-1
 -101 1726 l 5,22,23
 -126 1753 -126 1753 -172 1771 c 5,24,-1
 -81 1878 l 5,0,1
EndSplineSet
Validated: 1
EndChar

StartChar: uniE04D
Encoding: 83 57421 79
Width: 0
Flags: W
AnchorPoint: "mkmk_down" -400 -200 mark 0
AnchorPoint: "mkmk_down" -500 -500 basemark 0
AnchorPoint: "TehtaBelow" -400 -200 mark 0
LayerCount: 2
Fore
SplineSet
-757 -178 m 1,0,1
 -772 -216 -772 -216 -778 -251 c 128,-1,2
 -784 -286 -784 -286 -777 -309 c 0,3,4
 -764 -347 -764 -347 -733 -350 c 128,-1,5
 -702 -353 -702 -353 -648 -321 c 2,6,-1
 -307 -121 l 1,7,-1
 -270 -237 l 1,8,-1
 -688 -480 l 1,9,10
 -729 -499 -729 -499 -762 -500.5 c 128,-1,11
 -795 -502 -795 -502 -820 -490.5 c 128,-1,12
 -845 -479 -845 -479 -862.5 -457 c 128,-1,13
 -880 -435 -880 -435 -890 -405 c 0,14,15
 -897 -383 -897 -383 -898.5 -357.5 c 128,-1,16
 -900 -332 -900 -332 -897.5 -303.5 c 128,-1,17
 -895 -275 -895 -275 -890 -246.5 c 128,-1,18
 -885 -218 -885 -218 -878 -192 c 1,19,-1
 -757 -178 l 1,0,1
EndSplineSet
Validated: 33
EndChar

StartChar: bar_above
Encoding: 86 57424 80
Width: 0
Flags: W
AnchorPoint: "mkmk_up" -150 1700 basemark 0
AnchorPoint: "mkmk_up" -200 1500 mark 0
AnchorPoint: "TehtaAbove" -200 1500 mark 0
LayerCount: 2
Fore
SplineSet
49 1243 m 1,0,-1
 -580 1243 l 1,1,-1
 -543 1390 l 1,2,-1
 86 1390 l 1,3,-1
 49 1243 l 1,0,-1
EndSplineSet
Validated: 1
Substitution2: "Single Substitution lookup 8 subtable" bar_above_narrow
Substitution2: "Single Substitution lookup 7 subtable" bar_above_narrow
Substitution2: "Single Substitution lookup 6 subtable" bar_above_narrow
Substitution2: "Single Substitution lookup 5 subtable" bar_above_narrow
Substitution2: "Single Substitution lookup 4 subtable" bar_above_wide
Substitution2: "Single Substitution lookup 3 subtable" bar_above_wide
Substitution2: "Single Substitution lookup 2 subtable" bar_above_wide
Substitution2: "Single Substitution lookup 1 subtable" bar_above_wide
EndChar

StartChar: bar_below
Encoding: 87 57425 81
Width: 0
Flags: W
AnchorPoint: "mkmk_down" -400 -200 mark 0
AnchorPoint: "mkmk_down" -500 -500 basemark 0
AnchorPoint: "TehtaBelow" -400 -200 mark 0
LayerCount: 2
Fore
SplineSet
-326 -326 m 1,0,-1
 -956 -326 l 1,1,-1
 -919 -179 l 1,2,-1
 -289 -179 l 1,3,-1
 -326 -326 l 1,0,-1
EndSplineSet
Validated: 1
Substitution2: "Single Substitution lookup 13 subtable" lambe_bar_below
Substitution2: "Single Substitution lookup 12 subtable" lambe_bar_below
Substitution2: "Single Substitution lookup 11 subtable" lambe_bar_below
Substitution2: "Single Substitution lookup 10 subtable" lambe_bar_below
Substitution2: "Single Substitution lookup 8 subtable" bar_below_narrow
Substitution2: "Single Substitution lookup 7 subtable" bar_below_narrow
Substitution2: "Single Substitution lookup 6 subtable" bar_below_narrow
Substitution2: "Single Substitution lookup 5 subtable" bar_below_narrow
Substitution2: "Single Substitution lookup 4 subtable" bar_below_wide
Substitution2: "Single Substitution lookup 3 subtable" bar_below_wide
Substitution2: "Single Substitution lookup 2 subtable" bar_below_wide
Substitution2: "Single Substitution lookup 1 subtable" bar_below_wide
EndChar

StartChar: uniE052
Encoding: 88 57426 82
Width: 0
Flags: W
AnchorPoint: "mkmk_up" -100 1800 basemark 0
AnchorPoint: "mkmk_up" -200 1500 mark 0
AnchorPoint: "TehtaAbove" -200 1500 mark 0
LayerCount: 2
Fore
SplineSet
-420 1544 m 1,0,1
 -431 1451 -431 1451 -365 1451 c 0,2,3
 -319 1451 -319 1451 -235 1497 c 0,4,5
 -191 1521 -191 1521 -152.5 1532.5 c 128,-1,6
 -114 1544 -114 1544 -83 1544 c 0,7,8
 -43 1544 -43 1544 -9.5 1530 c 128,-1,9
 24 1516 24 1516 46.5 1487.5 c 128,-1,10
 69 1459 69 1459 76.5 1415 c 128,-1,11
 84 1371 84 1371 71 1311 c 1,12,-1
 -58 1311 l 1,13,14
 -43 1404 -43 1404 -119 1404 c 0,15,16
 -139 1404 -139 1404 -169.5 1393.5 c 128,-1,17
 -200 1383 -200 1383 -238 1361 c 0,18,19
 -265 1346 -265 1346 -284 1336 c 128,-1,20
 -303 1326 -303 1326 -320 1320.5 c 128,-1,21
 -337 1315 -337 1315 -356 1313 c 128,-1,22
 -375 1311 -375 1311 -401 1311 c 0,23,24
 -442 1311 -442 1311 -475.5 1325 c 128,-1,25
 -509 1339 -509 1339 -530 1368 c 128,-1,26
 -551 1397 -551 1397 -557 1441 c 128,-1,27
 -563 1485 -563 1485 -550 1544 c 1,28,-1
 -420 1544 l 1,0,1
EndSplineSet
Validated: 33
EndChar

StartChar: uniE053
Encoding: 89 57427 83
Width: 0
Flags: W
AnchorPoint: "mkmk_up" -100 1800 basemark 0
AnchorPoint: "mkmk_up" -200 1500 mark 0
AnchorPoint: "TehtaAbove" -200 1500 mark 0
LayerCount: 2
Fore
SplineSet
110 1570 m 1,0,-1
 -173 1284 l 1,1,-1
 -364 1284 l 1,2,-1
 -534 1570 l 1,3,-1
 -320 1570 l 1,4,-1
 -249 1403 l 1,5,6
 -211 1445 -211 1445 -175.5 1486.5 c 128,-1,7
 -140 1528 -140 1528 -102 1570 c 1,8,-1
 110 1570 l 1,0,-1
EndSplineSet
Validated: 1
EndChar

StartChar: uniE054
Encoding: 90 57428 84
Width: 0
Flags: W
AnchorPoint: "mkmk_up" -100 1800 basemark 0
AnchorPoint: "mkmk_up" -200 1500 mark 0
AnchorPoint: "TehtaAbove" -200 1500 mark 0
LayerCount: 2
Fore
SplineSet
-144 1283 m 1,0,-1
 -299 1283 l 1,1,-1
 -464 1570 l 1,2,-1
 -219 1570 l 1,3,-1
 -144 1283 l 1,0,-1
EndSplineSet
Validated: 1
EndChar

StartChar: uniE055
Encoding: 91 57429 85
Width: 0
Flags: W
AnchorPoint: "mkmk_up" -100 1800 basemark 0
AnchorPoint: "mkmk_up" -200 1500 mark 0
AnchorPoint: "TehtaAbove" -200 1500 mark 0
LayerCount: 2
Fore
SplineSet
53 1282 m 1,0,-1
 -161 1282 l 1,1,-1
 -231 1449 l 1,2,3
 -268 1407 -268 1407 -304.5 1365.5 c 128,-1,4
 -341 1324 -341 1324 -379 1282 c 1,5,-1
 -592 1282 l 1,6,-1
 -308 1569 l 1,7,-1
 -116 1569 l 1,8,-1
 53 1282 l 1,0,-1
EndSplineSet
Validated: 1
EndChar

StartChar: uniE056
Encoding: 92 57430 86
Width: 0
Flags: W
AnchorPoint: "mkmk_up" -100 1800 basemark 0
AnchorPoint: "mkmk_up" -200 1500 mark 0
AnchorPoint: "TehtaAbove" -200 1500 mark 0
LayerCount: 2
Fore
SplineSet
-159 1412 m 1,0,-1
 -194 1247 l 1,1,-1
 -360 1247 l 1,2,-1
 -325 1412 l 1,3,-1
 -159 1412 l 1,0,-1
-331 1604 m 1,4,-1
 -366 1438 l 1,5,-1
 -532 1438 l 1,6,-1
 -497 1604 l 1,7,-1
 -331 1604 l 1,4,-1
92 1604 m 1,8,-1
 57 1438 l 1,9,-1
 -108 1438 l 1,10,-1
 -73 1604 l 1,11,-1
 92 1604 l 1,8,-1
EndSplineSet
Validated: 1
EndChar

StartChar: uniE057
Encoding: 93 57431 87
Width: 0
Flags: W
AnchorPoint: "TehtaBelow" -400 -200 mark 0
AnchorPoint: "mkmk_down" -400 -200 mark 0
AnchorPoint: "mkmk_down" -500 -500 basemark 0
LayerCount: 2
Fore
SplineSet
-571 -424 m 1,0,-1
 -700 -424 l 1,1,-1
 -633 -111 l 1,2,-1
 -504 -111 l 1,3,-1
 -571 -424 l 1,0,-1
EndSplineSet
Validated: 1
Ligature2: "Ligatures subtable" zwj uniE02C
LCarets2: 1 0
EndChar

StartChar: uniE058
Encoding: 94 57432 88
Width: 378
GlyphClass: 1
Flags: W
LayerCount: 2
Fore
SplineSet
128 -338 m 0,0,1
 92 -366 92 -366 76 -405 c 1,2,-1
 -84 -425 l 1,3,4
 -54 -307 -54 -307 41 -228 c 0,5,6
 90 -188 90 -188 101 -134 c 0,7,8
 108 -107 108 -107 102 -83 c 0,9,10
 96 -58 96 -58 82 -40 c 0,11,12
 68 -22 68 -22 46 -11 c 0,13,14
 24 0 24 0 -4 0 c 2,15,-1
 -111 0 l 1,16,-1
 -78 155 l 1,17,-1
 27 155 l 2,18,19
 86 154 86 154 134 132 c 0,20,21
 182 110 182 110 214 71 c 0,22,23
 246 32 246 32 258 -20 c 0,24,25
 270 -72 270 -72 257 -133 c 0,26,27
 232 -252 232 -252 128 -338 c 0,0,1
EndSplineSet
Validated: 33
EndChar

StartChar: uniE059
Encoding: 95 57433 89
Width: 0
Flags: W
AnchorPoint: "mkmk_down" -400 -200 mark 0
AnchorPoint: "mkmk_down" -500 -500 basemark 0
AnchorPoint: "TehtaBelow" -400 -200 mark 0
LayerCount: 2
Fore
SplineSet
-757 -549 m 1,0,1
 -798 -524 -798 -524 -833.5 -490.5 c 128,-1,2
 -869 -457 -869 -457 -883 -416 c 0,3,4
 -893 -385 -893 -385 -893 -352 c 128,-1,5
 -893 -319 -893 -319 -881 -287 c 128,-1,6
 -869 -255 -869 -255 -845.5 -224.5 c 128,-1,7
 -822 -194 -822 -194 -785 -167 c 1,8,-1
 -366 75 l 1,9,-1
 -328 -41 l 1,10,-1
 -661 -232 l 2,11,12
 -724 -268 -724 -268 -745.5 -298 c 128,-1,13
 -767 -328 -767 -328 -754 -369 c 0,14,15
 -740 -413 -740 -413 -668 -441 c 1,16,-1
 -757 -549 l 1,0,1
EndSplineSet
Validated: 33
Substitution2: "Single Substitution lookup 18 subtable" lambe_xhook
Substitution2: "Single Substitution lookup 17 subtable" lambe_xhook
Substitution2: "Single Substitution lookup 16 subtable" lambe_xhook
Substitution2: "Single Substitution lookup 15 subtable" lambe_xhook
EndChar

StartChar: uniE05A
Encoding: 96 57434 90
Width: 0
GlyphClass: 1
Flags: W
LayerCount: 2
Fore
SplineSet
-406 671 m 256,0,1
 -399 671 -399 671 -393 666 c 128,-1,2
 -387 661 -387 661 -377.5 649 c 128,-1,3
 -368 637 -368 637 -353 617 c 128,-1,4
 -338 597 -338 597 -310 567 c 0,5,6
 -304 559 -304 559 -300.5 548.5 c 128,-1,7
 -297 538 -297 538 -297 532 c 0,8,9
 -300 520 -300 520 -312.5 506.5 c 128,-1,10
 -325 493 -325 493 -360 467 c 0,11,12
 -398 438 -398 438 -423.5 415.5 c 128,-1,13
 -449 393 -449 393 -464 393 c 0,14,15
 -472 393 -472 393 -479 398 c 128,-1,16
 -486 403 -486 403 -495.5 415 c 128,-1,17
 -505 427 -505 427 -520 447 c 128,-1,18
 -535 467 -535 467 -561 497 c 0,19,20
 -570 507 -570 507 -573 516 c 128,-1,21
 -576 525 -576 525 -574 533 c 0,22,23
 -573 540 -573 540 -561 551.5 c 128,-1,24
 -549 563 -549 563 -533.5 576 c 128,-1,25
 -518 589 -518 589 -502 602.5 c 128,-1,26
 -486 616 -486 616 -474 626 c 2,27,-1
 -440 654 l 2,28,29
 -428 664 -428 664 -420.5 667.5 c 128,-1,30
 -413 671 -413 671 -406 671 c 256,0,1
EndSplineSet
Validated: 1
EndChar

StartChar: uniE060
Encoding: 99 57440 91
Width: 361
GlyphClass: 1
Flags: W
LayerCount: 2
Fore
SplineSet
415 636 m 1,0,-1
 370 425 l 1,1,-1
 158 425 l 1,2,-1
 203 636 l 1,3,-1
 415 636 l 1,0,-1
EndSplineSet
Validated: 1
EndChar

StartChar: uniE061
Encoding: 100 57441 92
Width: 361
GlyphClass: 1
Flags: W
LayerCount: 2
Fore
SplineSet
370 424 m 1,0,-1
 325 212 l 1,1,-1
 113 212 l 1,2,-1
 158 424 l 1,3,-1
 370 424 l 1,0,-1
460 849 m 1,4,-1
 415 637 l 1,5,-1
 203 637 l 1,6,-1
 248 849 l 1,7,-1
 460 849 l 1,4,-1
EndSplineSet
Validated: 1
EndChar

StartChar: uniE062
Encoding: 101 57442 93
Width: 361
GlyphClass: 1
Flags: W
LayerCount: 2
Fore
SplineSet
505 1061 m 1,0,-1
 460 850 l 1,1,-1
 248 850 l 1,2,-1
 293 1061 l 1,3,-1
 505 1061 l 1,0,-1
324 211 m 1,4,-1
 280 0 l 1,5,-1
 68 0 l 1,6,-1
 112 211 l 1,7,-1
 324 211 l 1,4,-1
415 636 m 1,8,-1
 370 425 l 1,9,-1
 158 425 l 1,10,-1
 203 636 l 1,11,-1
 415 636 l 1,8,-1
EndSplineSet
Validated: 1
EndChar

StartChar: uniE063
Encoding: 102 57443 94
Width: 945
GlyphClass: 1
Flags: W
LayerCount: 2
Fore
SplineSet
204 636 m 1,0,-1
 416 636 l 1,1,-1
 371 425 l 1,2,-1
 159 425 l 1,3,-1
 204 636 l 1,0,-1
784 636 m 1,4,-1
 995 636 l 1,5,-1
 950 425 l 1,6,-1
 739 425 l 1,7,-1
 784 636 l 1,4,-1
649 375 m 1,8,-1
 604 164 l 1,9,-1
 393 164 l 1,10,-1
 438 375 l 1,11,-1
 649 375 l 1,8,-1
760 897 m 1,12,-1
 715 686 l 1,13,-1
 504 686 l 1,14,-1
 549 897 l 1,15,-1
 760 897 l 1,12,-1
EndSplineSet
Validated: 1
EndChar

StartChar: uniE064
Encoding: 103 57444 95
Width: 1217
GlyphClass: 1
Flags: W
LayerCount: 2
Fore
SplineSet
931 1061 m 1,0,-1
 886 850 l 1,1,-1
 676 850 l 1,2,-1
 721 1061 l 1,3,-1
 931 1061 l 1,0,-1
750 211 m 1,4,-1
 706 0 l 1,5,-1
 496 0 l 1,6,-1
 540 211 l 1,7,-1
 750 211 l 1,4,-1
841 636 m 1,8,-1
 796 425 l 1,9,-1
 586 425 l 1,10,-1
 631 636 l 1,11,-1
 841 636 l 1,8,-1
1055 636 m 1,12,-1
 1266 636 l 1,13,-1
 1221 425 l 1,14,-1
 1010 425 l 1,15,-1
 1055 636 l 1,12,-1
205 636 m 1,16,-1
 416 636 l 1,17,-1
 371 425 l 1,18,-1
 160 425 l 1,19,-1
 205 636 l 1,16,-1
EndSplineSet
Validated: 1
EndChar

StartChar: uniE065
Encoding: 104 57445 96
Width: 498
GlyphClass: 1
Flags: W
LayerCount: 2
Fore
SplineSet
155 441 m 1,0,1
 207 481 207 481 242 515 c 0,2,3
 276 550 276 550 300 580 c 0,4,5
 324 610 324 610 338 640 c 0,6,7
 352 670 352 670 358 704 c 0,8,9
 375 781 375 781 345 898 c 0,10,11
 332 952 332 952 324 990 c 0,12,13
 316 1028 316 1028 312 1058 c 0,14,15
 310 1089 310 1089 312 1118 c 0,16,17
 314 1147 314 1147 322 1185 c 0,18,19
 330 1226 330 1226 344 1262 c 0,20,21
 358 1298 358 1298 380 1332 c 0,22,23
 402 1366 402 1366 430 1398 c 0,24,25
 460 1430 460 1430 501 1465 c 1,26,-1
 734 1465 l 1,27,28
 647 1400 647 1400 595 1334 c 0,29,30
 543 1268 543 1268 529 1204 c 0,31,32
 525 1182 525 1182 524 1166 c 0,33,34
 522 1150 522 1150 524 1132 c 0,35,36
 526 1114 526 1114 530 1091 c 0,37,38
 534 1068 534 1068 541 1034 c 0,39,40
 554 980 554 980 562 936 c 0,41,42
 570 892 570 892 573 856 c 0,43,44
 577 820 577 820 575 787 c 0,45,46
 573 754 573 754 566 721 c 0,47,48
 529 549 529 549 380 441 c 1,49,-1
 155 441 l 1,0,1
EndSplineSet
Validated: 33
EndChar

StartChar: uniE066
Encoding: 105 57446 97
Width: 913
GlyphClass: 1
Flags: W
LayerCount: 2
Fore
SplineSet
440 592 m 1,0,1
 544 607 544 607 618 621 c 0,2,3
 692 635 692 635 731 661 c 1,4,-1
 730 661 l 1,5,6
 784 698 784 698 800 774 c 2,7,-1
 801 780 l 2,8,9
 809 832 809 832 779 866 c 0,10,11
 749 900 749 900 690 901 c 0,12,13
 642 901 642 901 552 889 c 2,14,-1
 502 882 l 1,15,-1
 440 592 l 1,0,1
533 1029 m 1,16,17
 538 1029 538 1029 542 1030 c 0,18,19
 546 1031 546 1031 550 1031 c 0,20,21
 602 1038 602 1038 638 1045 c 0,22,23
 674 1052 674 1052 698 1062 c 0,24,25
 724 1072 724 1072 742 1084 c 0,26,27
 760 1097 760 1097 779 1116 c 0,28,29
 811 1150 811 1150 820 1194 c 1,30,-1
 822 1200 l 1,31,32
 830 1258 830 1258 802 1284 c 0,33,34
 774 1310 774 1310 700 1310 c 0,35,36
 679 1310 679 1310 653 1308 c 0,37,38
 627 1306 627 1306 597 1302 c 1,39,-1
 591 1302 l 1,40,-1
 533 1029 l 1,16,17
404 422 m 1,41,-1
 315 0 l 1,42,-1
 127 0 l 1,43,-1
 438 1465 l 1,44,-1
 626 1465 l 1,45,-1
 622 1448 l 1,46,47
 678 1452 678 1452 722 1458 c 0,48,49
 766 1464 766 1464 801 1464 c 0,50,51
 852 1464 852 1464 896 1449 c 0,52,53
 940 1434 940 1434 972 1404 c 0,54,55
 1002 1374 1002 1374 1014 1326 c 0,56,57
 1026 1279 1026 1279 1013 1215 c 0,58,59
 998 1150 998 1150 964 1098 c 0,60,61
 930 1046 930 1046 867 1004 c 1,62,63
 900 994 900 994 926 976 c 0,64,65
 952 958 952 958 969 930 c 0,66,67
 986 902 986 902 993 864 c 0,68,69
 1000 826 1000 826 995 781 c 1,70,71
 963 632 963 632 855 550 c 0,72,73
 747 468 747 468 567 444 c 2,74,-1
 404 422 l 1,41,-1
EndSplineSet
Validated: 33
EndChar

StartChar: uniE067
Encoding: 106 57447 98
Width: 788
GlyphClass: 1
Flags: W
LayerCount: 2
Fore
SplineSet
740 1287 m 1,0,-1
 629 1287 l 1,1,-1
 355 -2 l 1,2,-1
 178 -2 l 1,3,-1
 490 1465 l 1,4,-1
 956 1465 l 1,5,-1
 621 -111 l 2,6,7
 616 -139 616 -139 608 -168 c 0,8,9
 600 -198 600 -198 589 -226 c 0,10,11
 578 -254 578 -254 562 -281 c 0,12,13
 546 -308 546 -308 522 -330 c 0,14,15
 464 -388 464 -388 396 -408 c 0,16,17
 328 -428 328 -428 259 -428 c 0,18,19
 224 -428 224 -428 195 -426 c 0,20,21
 166 -424 166 -424 140 -418 c 0,22,23
 114 -414 114 -414 90 -408 c 0,24,25
 66 -402 66 -402 42 -394 c 1,26,-1
 117 -287 l 1,27,28
 173 -308 173 -308 258 -308 c 0,29,30
 286 -308 286 -308 314 -302 c 0,31,32
 342 -296 342 -296 365 -280 c 0,33,34
 388 -264 388 -264 406 -236 c 0,35,36
 424 -208 424 -208 433 -165 c 2,37,-1
 437 -146 l 2,38,39
 442 -118 442 -118 447 -94 c 0,40,41
 452 -70 452 -70 456 -49 c 2,42,-1
 740 1287 l 1,0,-1
EndSplineSet
Validated: 1
EndChar

StartChar: uniE068
Encoding: 107 57448 99
Width: 1179
GlyphClass: 1
Flags: W
LayerCount: 2
Fore
SplineSet
191 573 m 1,0,1
 324 695 324 695 497 695 c 0,2,3
 530 696 530 696 558 692 c 0,4,5
 586 688 586 688 618 678 c 0,6,7
 650 668 650 668 691 652 c 0,8,9
 732 635 732 635 792 608 c 0,10,11
 827 591 827 591 850 582 c 0,12,13
 873 573 873 573 890 568 c 0,14,15
 907 563 907 563 921 562 c 0,16,17
 935 561 935 561 952 561 c 0,18,19
 1014 560 1014 560 1090 598 c 0,20,21
 1166 636 1166 636 1242 705 c 1,22,-1
 1195 481 l 1,23,24
 1158 452 1158 452 1122 430 c 0,25,26
 1086 408 1086 408 1050 394 c 0,27,28
 1014 380 1014 380 974 373 c 0,29,30
 936 366 936 366 891 366 c 0,31,32
 856 366 856 366 828 369 c 0,33,34
 800 372 800 372 769 381 c 0,35,36
 738 390 738 390 704 406 c 0,37,38
 670 422 670 422 622 447 c 0,39,40
 515 498 515 498 439 498 c 0,41,42
 406 498 406 498 378 493 c 0,43,44
 350 488 350 488 317 473 c 0,45,46
 284 458 284 458 242 430 c 0,47,48
 200 402 200 402 146 358 c 1,49,-1
 191 573 l 1,0,1
EndSplineSet
Validated: 33
EndChar

StartChar: uniE069
Encoding: 108 57449 100
Width: 1179
GlyphClass: 1
Flags: W
LayerCount: 2
Fore
SplineSet
145 357 m 1,0,1
 278 479 278 479 451 479 c 0,2,3
 486 479 486 479 518 474 c 0,4,5
 550 468 550 468 584 458 c 0,6,7
 618 448 618 448 658 432 c 0,8,9
 697 416 697 416 746 392 c 0,10,11
 782 376 782 376 804 366 c 0,12,13
 826 356 826 356 842 352 c 0,14,15
 858 348 858 348 872 346 c 0,16,17
 886 345 886 345 906 345 c 0,18,19
 967 345 967 345 1046 384 c 1,20,-1
 1046 383 l 1,21,22
 1084 403 1084 403 1122 430 c 0,23,24
 1160 457 1160 457 1196 489 c 1,25,-1
 1149 266 l 1,26,27
 1111 237 1111 237 1076 215 c 0,28,29
 1040 193 1040 193 1004 179 c 0,30,31
 968 165 968 165 930 158 c 0,32,33
 892 151 892 151 846 151 c 0,34,35
 810 151 810 151 782 154 c 0,36,37
 754 157 754 157 725 166 c 0,38,39
 696 174 696 174 660 190 c 0,40,41
 624 206 624 206 575 230 c 0,42,43
 520 256 520 256 476 270 c 0,44,45
 432 284 432 284 394 283 c 0,46,47
 362 282 362 282 334 278 c 0,48,49
 306 274 306 274 272 259 c 0,50,51
 238 244 238 244 198 216 c 0,52,53
 157 188 157 188 100 143 c 1,54,-1
 145 357 l 1,0,1
237 788 m 1,55,56
 370 910 370 910 543 910 c 0,57,58
 576 910 576 910 604 907 c 0,59,60
 632 904 632 904 664 894 c 0,61,62
 696 884 696 884 737 868 c 0,63,64
 778 851 778 851 838 824 c 0,65,66
 865 810 865 810 886 801 c 0,67,68
 907 792 907 792 926 786 c 0,69,70
 944 780 944 780 962 779 c 0,71,72
 980 777 980 777 998 777 c 0,73,74
 1063 778 1063 778 1140 816 c 0,75,76
 1217 854 1217 854 1288 920 c 1,77,-1
 1241 697 l 1,78,79
 1162 634 1162 634 1091 608 c 0,80,81
 1020 582 1020 582 937 582 c 0,82,83
 902 582 902 582 874 585 c 0,84,85
 846 588 846 588 816 597 c 0,86,87
 786 606 786 606 751 622 c 0,88,89
 716 638 716 638 667 662 c 0,90,91
 615 688 615 688 569 701 c 0,92,93
 523 714 523 714 485 714 c 0,94,95
 454 714 454 714 424 708 c 0,96,97
 394 702 394 702 360 688 c 0,98,99
 326 672 326 672 286 644 c 0,100,101
 246 616 246 616 192 574 c 1,102,-1
 237 788 l 1,55,56
EndSplineSet
Validated: 33
EndChar

StartChar: uniE06A
Encoding: 109 57450 101
Width: 617
GlyphClass: 1
Flags: W
LayerCount: 2
Fore
SplineSet
845 1465 m 1,0,-1
 752 1028 l 2,1,2
 738 968 738 968 718 911 c 0,3,4
 698 854 698 854 658 810 c 0,5,6
 618 766 618 766 554 738 c 0,7,8
 490 712 490 712 390 712 c 0,9,10
 310 712 310 712 223 730 c 1,11,-1
 264 830 l 1,12,13
 296 824 296 824 324 822 c 0,14,15
 352 820 352 820 379 819 c 0,16,17
 441 819 441 819 488 846 c 0,18,19
 532 870 532 870 555 978 c 2,20,-1
 626 1310 l 1,21,-1
 501 1310 l 1,22,-1
 423 944 l 1,23,-1
 269 944 l 1,24,-1
 380 1465 l 1,25,-1
 845 1465 l 1,0,-1
EndSplineSet
Validated: 1
EndChar

StartChar: uniE06B
Encoding: 110 57451 102
Width: 617
GlyphClass: 1
Flags: W
LayerCount: 2
Fore
SplineSet
69 0 m 1,0,-1
 161 437 l 2,1,2
 173 491 173 491 193 547 c 0,3,4
 212 603 212 603 252 649 c 0,5,6
 292 695 292 695 357 724 c 0,7,8
 422 753 422 753 523 753 c 0,9,10
 563 752 563 752 605 748 c 0,11,12
 647 744 647 744 691 734 c 1,13,-1
 649 635 l 1,14,15
 618 642 618 642 590 644 c 0,16,17
 562 646 562 646 536 646 c 0,18,19
 474 646 474 646 426 619 c 0,20,21
 381 594 381 594 358 486 c 2,22,-1
 287 155 l 1,23,-1
 411 155 l 1,24,-1
 489 521 l 1,25,-1
 644 521 l 1,26,-1
 534 0 l 1,27,-1
 69 0 l 1,0,-1
EndSplineSet
Validated: 1
EndChar

StartChar: uniE06C
Encoding: 111 57452 103
Width: 855
GlyphClass: 1
Flags: W
LayerCount: 2
Fore
SplineSet
785 906 m 1,0,-1
 261 906 l 1,1,-1
 294 1061 l 1,2,-1
 996 1061 l 1,3,-1
 848 365 l 2,4,5
 826 261 826 261 785.5 187.5 c 128,-1,6
 745 114 745 114 691 66.5 c 128,-1,7
 637 19 637 19 570.5 -3 c 128,-1,8
 504 -25 504 -25 431 -25 c 0,9,10
 340 -25 340 -25 275 7 c 1,11,-1
 369 150 l 1,12,13
 407 130 407 130 459 130 c 0,14,15
 494 130 494 130 525.5 140 c 128,-1,16
 557 150 557 150 584 175.5 c 128,-1,17
 611 201 611 201 632.5 245 c 128,-1,18
 654 289 654 289 669 358 c 2,19,-1
 785 906 l 1,0,-1
EndSplineSet
Validated: 1
EndChar

StartChar: uniE070
Encoding: 112 57456 104
Width: 1153
GlyphClass: 1
Flags: W
AnchorPoint: "TehtaAbove" 953 1500 basechar 0
AnchorPoint: "TehtaBelow" 753 -200 basechar 0
LayerCount: 2
Fore
SplineSet
182 530 m 2,0,1
 211 664 211 664 270 767.5 c 128,-1,2
 329 871 329 871 410.5 941.5 c 128,-1,3
 492 1012 492 1012 591 1048.5 c 128,-1,4
 690 1085 690 1085 799 1085 c 0,5,6
 907 1085 907 1085 990.5 1049 c 128,-1,7
 1074 1013 1074 1013 1125.5 943 c 128,-1,8
 1177 873 1177 873 1192.5 769.5 c 128,-1,9
 1208 666 1208 666 1179 530 c 0,10,11
 1150 395 1150 395 1091 291.5 c 128,-1,12
 1032 188 1032 188 951 117.5 c 128,-1,13
 870 47 870 47 771 11 c 128,-1,14
 672 -25 672 -25 563 -25 c 0,15,16
 364 -25 364 -25 251 96 c 1,17,-1
 392 233 l 1,18,19
 461 130 461 130 596 130 c 0,20,21
 661 130 661 130 723 154 c 128,-1,22
 785 178 785 178 837.5 227.5 c 128,-1,23
 890 277 890 277 930.5 352.5 c 128,-1,24
 971 428 971 428 993 530 c 0,25,26
 1015 631 1015 631 1007 706 c 128,-1,27
 999 781 999 781 967.5 831 c 128,-1,28
 936 881 936 881 884 905.5 c 128,-1,29
 832 930 832 930 766 930 c 0,30,31
 707 930 707 930 651 910.5 c 128,-1,32
 595 891 595 891 545.5 851 c 128,-1,33
 496 811 496 811 455.5 750 c 128,-1,34
 415 689 415 689 389 607 c 1,35,-1
 613 607 l 1,36,-1
 580 453 l 1,37,-1
 166 453 l 1,38,-1
 182 530 l 2,0,1
EndSplineSet
Validated: 33
EndChar

StartChar: uniE071
Encoding: 113 57457 105
Width: 1332
GlyphClass: 1
Flags: W
AnchorPoint: "TehtaBelow" 932 -200 basechar 0
AnchorPoint: "TehtaAbove" 932 1500 basechar 0
LayerCount: 2
Fore
SplineSet
721 906 m 1,0,1
 694 778 694 778 667 654 c 128,-1,2
 640 530 640 530 613 402 c 0,3,4
 585 270 585 270 619 199.5 c 128,-1,5
 653 129 653 129 752 129 c 0,6,7
 849 129 849 129 914.5 197 c 128,-1,8
 980 265 980 265 1011 412 c 1,9,-1
 1185 408 l 1,10,11
 1166 319 1166 319 1125 240 c 128,-1,12
 1084 161 1084 161 1024.5 102 c 128,-1,13
 965 43 965 43 888 9 c 128,-1,14
 811 -25 811 -25 721 -25 c 0,15,16
 632 -25 632 -25 569.5 6.5 c 128,-1,17
 507 38 507 38 470.5 94.5 c 128,-1,18
 434 151 434 151 424.5 228 c 128,-1,19
 415 305 415 305 435 397 c 2,20,-1
 543 906 l 1,21,-1
 262 906 l 1,22,-1
 295 1061 l 1,23,-1
 1470 1061 l 1,24,-1
 1437 906 l 1,25,-1
 721 906 l 1,0,1
EndSplineSet
Validated: 33
EndChar

StartChar: uniE072
Encoding: 114 57458 106
Width: 1491
GlyphClass: 1
Flags: W
AnchorPoint: "TehtaBelow" 891 -200 basechar 0
AnchorPoint: "TehtaAbove" 991 1500 basechar 0
LayerCount: 2
Fore
SplineSet
1138 906 m 1,0,-1
 1022 358 l 2,1,2
 1007 290 1007 290 1009.5 245.5 c 128,-1,3
 1012 201 1012 201 1027.5 175.5 c 128,-1,4
 1043 150 1043 150 1070.5 140 c 128,-1,5
 1098 130 1098 130 1133 130 c 0,6,7
 1205 130 1205 130 1257 163 c 1,8,-1
 1371 78 l 1,9,10
 1264 -25 1264 -25 1095 -25 c 0,11,12
 1022 -25 1022 -25 965.5 -3.5 c 128,-1,13
 909 18 909 18 875 65 c 128,-1,14
 841 112 841 112 832.5 186 c 128,-1,15
 824 260 824 260 846 365 c 2,16,-1
 961 906 l 1,17,-1
 535 906 l 1,18,-1
 419 358 l 2,19,20
 404 288 404 288 407 244 c 128,-1,21
 410 200 410 200 426 174.5 c 128,-1,22
 442 149 442 149 469.5 139.5 c 128,-1,23
 497 130 497 130 531 130 c 0,24,25
 602 130 602 130 654 163 c 1,26,-1
 768 78 l 1,27,28
 664 -25 664 -25 493 -25 c 0,29,30
 419 -25 419 -25 363 -3 c 128,-1,31
 307 19 307 19 273 66 c 128,-1,32
 239 113 239 113 230 187 c 128,-1,33
 221 261 221 261 243 365 c 2,34,-1
 358 906 l 1,35,-1
 262 906 l 1,36,-1
 295 1061 l 1,37,-1
 1628 1061 l 1,38,-1
 1595 906 l 1,39,-1
 1138 906 l 1,0,-1
EndSplineSet
Validated: 33
EndChar

StartChar: uniE073
Encoding: 115 57459 107
Width: 1491
GlyphClass: 1
Flags: W
AnchorPoint: "TehtaAbove" 991 1500 basechar 0
AnchorPoint: "TehtaBelow" 891 -200 basechar 0
LayerCount: 2
Fore
SplineSet
295 1061 m 1,0,-1
 1628 1061 l 1,1,-1
 1595 906 l 1,2,-1
 1277 906 l 1,3,-1
 1161 358 l 2,4,5
 1146 290 1146 290 1148.5 245.5 c 128,-1,6
 1151 201 1151 201 1166.5 175.5 c 128,-1,7
 1182 150 1182 150 1209.5 140 c 128,-1,8
 1237 130 1237 130 1272 130 c 0,9,10
 1329 130 1329 130 1371 150 c 1,11,-1
 1406 7 l 1,12,13
 1327 -25 1327 -25 1235 -25 c 0,14,15
 1159 -25 1159 -25 1102.5 -2 c 128,-1,16
 1046 21 1046 21 1012.5 69 c 128,-1,17
 979 117 979 117 971.5 190.5 c 128,-1,18
 964 264 964 264 985 365 c 2,19,-1
 1100 906 l 1,20,-1
 859 906 l 1,21,-1
 743 358 l 2,22,23
 728 289 728 289 730.5 244.5 c 128,-1,24
 733 200 733 200 749 174.5 c 128,-1,25
 765 149 765 149 792.5 139.5 c 128,-1,26
 820 130 820 130 855 130 c 0,27,28
 910 130 910 130 952 150 c 1,29,-1
 987 7 l 1,30,31
 908 -25 908 -25 817 -25 c 0,32,33
 742 -25 742 -25 685.5 -2.5 c 128,-1,34
 629 20 629 20 595 67.5 c 128,-1,35
 561 115 561 115 552.5 188.5 c 128,-1,36
 544 262 544 262 566 365 c 2,37,-1
 681 906 l 1,38,-1
 440 906 l 1,39,-1
 324 358 l 2,40,41
 309 289 309 289 311.5 245 c 128,-1,42
 314 201 314 201 330 175.5 c 128,-1,43
 346 150 346 150 373.5 140 c 128,-1,44
 401 130 401 130 436 130 c 0,45,46
 492 130 492 130 534 150 c 1,47,-1
 569 7 l 1,48,49
 489 -25 489 -25 398 -25 c 0,50,51
 323 -25 323 -25 266 -2.5 c 128,-1,52
 209 20 209 20 175.5 68 c 128,-1,53
 142 116 142 116 133.5 189.5 c 128,-1,54
 125 263 125 263 147 365 c 2,55,-1
 295 1061 l 1,0,-1
EndSplineSet
Validated: 33
EndChar

StartChar: uniE074
Encoding: 116 57460 108
Width: 1354
GlyphClass: 1
Flags: W
AnchorPoint: "TehtaBelow" 854 -500 basechar 0
AnchorPoint: "TehtaAbove" 1054 1800 basechar 0
LayerCount: 2
Fore
SplineSet
818 1310 m 1,0,-1
 551 55 l 2,1,2
 538 -8 538 -8 533 -51.5 c 128,-1,3
 528 -95 528 -95 532 -125.5 c 128,-1,4
 536 -156 536 -156 549.5 -176.5 c 128,-1,5
 563 -197 563 -197 585 -213 c 0,6,7
 608 -230 608 -230 635.5 -238 c 128,-1,8
 663 -246 663 -246 701 -246 c 0,9,10
 747 -246 747 -246 789 -229.5 c 128,-1,11
 831 -213 831 -213 865 -186 c 1,12,13
 918 -135 918 -135 959 -14 c 1,14,-1
 1113 -116 l 1,15,16
 1078 -198 1078 -198 1033.5 -256.5 c 128,-1,17
 989 -315 989 -315 932.5 -352.5 c 128,-1,18
 876 -390 876 -390 808.5 -408 c 128,-1,19
 741 -426 741 -426 662 -426 c 0,20,21
 529 -426 529 -426 443.5 -371 c 128,-1,22
 358 -316 358 -316 337 -218 c 0,23,24
 315 -115 315 -115 354 66 c 2,25,-1
 618 1310 l 1,26,-1
 348 1310 l 1,27,-1
 381 1465 l 1,28,-1
 1578 1465 l 1,29,-1
 1545 1310 l 1,30,-1
 818 1310 l 1,0,-1
EndSplineSet
Validated: 33
EndChar

StartChar: uniE075
Encoding: 117 57461 109
Width: 1400
GlyphClass: 1
Flags: W
AnchorPoint: "TehtaAbove" 1100 1500 basechar 0
AnchorPoint: "TehtaBelow" 900 -500 basechar 0
LayerCount: 2
Fore
SplineSet
727 906 m 1,0,-1
 463 906 l 1,1,-1
 282 55 l 2,2,3
 269 -5 269 -5 264 -48.5 c 128,-1,4
 259 -92 259 -92 262.5 -122.5 c 128,-1,5
 266 -153 266 -153 279 -174.5 c 128,-1,6
 292 -196 292 -196 316 -213 c 0,7,8
 339 -230 339 -230 366.5 -238 c 128,-1,9
 394 -246 394 -246 432 -246 c 0,10,11
 474 -246 474 -246 511.5 -235.5 c 128,-1,12
 549 -225 549 -225 581 -198.5 c 128,-1,13
 613 -172 613 -172 640 -127 c 128,-1,14
 667 -82 667 -82 690 -14 c 1,15,-1
 844 -116 l 1,16,17
 781 -274 781 -274 666.5 -350 c 128,-1,18
 552 -426 552 -426 393 -426 c 0,19,20
 259 -426 259 -426 174.5 -371 c 128,-1,21
 90 -316 90 -316 68 -218 c 0,22,23
 57 -170 57 -170 61.5 -96 c 128,-1,24
 66 -22 66 -22 84 66 c 2,25,-1
 381 1465 l 1,26,-1
 582 1465 l 1,27,-1
 496 1061 l 1,28,-1
 1538 1061 l 1,29,-1
 1505 906 l 1,30,-1
 904 906 l 1,31,32
 886 822 886 822 868.5 741 c 128,-1,33
 851 660 851 660 833 576 c 0,34,35
 806 450 806 450 839 377 c 128,-1,36
 872 304 872 304 973 304 c 0,37,38
 1075 304 1075 304 1137.5 373 c 128,-1,39
 1200 442 1200 442 1231 587 c 1,40,-1
 1406 582 l 1,41,42
 1387 490 1387 490 1344.5 411 c 128,-1,43
 1302 332 1302 332 1241.5 273.5 c 128,-1,44
 1181 215 1181 215 1105 182 c 128,-1,45
 1029 149 1029 149 942 149 c 0,46,47
 852 149 852 149 789 181 c 128,-1,48
 726 213 726 213 690 269.5 c 128,-1,49
 654 326 654 326 645.5 403.5 c 128,-1,50
 637 481 637 481 656 571 c 2,51,-1
 727 906 l 1,0,-1
EndSplineSet
Validated: 33
EndChar

StartChar: uniE076
Encoding: 118 57462 110
Width: 1491
GlyphClass: 1
Flags: W
AnchorPoint: "TehtaBelow" 991 -500 basechar 0
AnchorPoint: "TehtaAbove" 1091 1500 basechar 0
LayerCount: 2
Fore
SplineSet
1278 906 m 1,0,-1
 1199 532 l 2,1,2
 1184 462 1184 462 1186.5 418 c 128,-1,3
 1189 374 1189 374 1204.5 348.5 c 128,-1,4
 1220 323 1220 323 1247.5 313.5 c 128,-1,5
 1275 304 1275 304 1310 304 c 0,6,7
 1366 304 1366 304 1408 324 c 1,8,-1
 1443 181 l 1,9,10
 1364 149 1364 149 1272 149 c 0,11,12
 1199 149 1199 149 1143 171.5 c 128,-1,13
 1087 194 1087 194 1052.5 241 c 128,-1,14
 1018 288 1018 288 1009 362 c 128,-1,15
 1000 436 1000 436 1022 540 c 2,16,-1
 1100 906 l 1,17,-1
 819 906 l 1,18,-1
 740 532 l 2,19,20
 726 466 726 466 728 422 c 128,-1,21
 730 378 730 378 745.5 351.5 c 128,-1,22
 761 325 761 325 788 314.5 c 128,-1,23
 815 304 815 304 852 304 c 0,24,25
 908 304 908 304 950 324 c 1,26,-1
 986 181 l 1,27,28
 904 149 904 149 815 149 c 0,29,30
 741 149 741 149 684.5 171.5 c 128,-1,31
 628 194 628 194 594 241.5 c 128,-1,32
 560 289 560 289 551 363 c 128,-1,33
 542 437 542 437 564 540 c 2,34,-1
 642 906 l 1,35,-1
 463 906 l 1,36,-1
 282 55 l 2,37,38
 270 -3 270 -3 264.5 -46.5 c 128,-1,39
 259 -90 259 -90 263 -121.5 c 128,-1,40
 267 -153 267 -153 280 -175 c 128,-1,41
 293 -197 293 -197 316 -213 c 0,42,43
 358 -246 358 -246 432 -246 c 0,44,45
 475 -246 475 -246 512.5 -235 c 128,-1,46
 550 -224 550 -224 582 -197 c 128,-1,47
 614 -170 614 -170 641 -125.5 c 128,-1,48
 668 -81 668 -81 691 -14 c 1,49,-1
 844 -116 l 1,50,51
 781 -276 781 -276 665 -351 c 128,-1,52
 549 -426 549 -426 393 -426 c 0,53,54
 259 -426 259 -426 174.5 -371 c 128,-1,55
 90 -316 90 -316 68 -218 c 0,56,57
 57 -170 57 -170 61.5 -96 c 128,-1,58
 66 -22 66 -22 84 66 c 2,59,-1
 381 1465 l 1,60,-1
 582 1465 l 1,61,-1
 496 1061 l 1,62,-1
 1628 1061 l 1,63,-1
 1595 906 l 1,64,-1
 1278 906 l 1,0,-1
EndSplineSet
Validated: 33
EndChar

StartChar: uniE077
Encoding: 119 57463 111
Width: 1354
GlyphClass: 1
Flags: W
AnchorPoint: "TehtaAbove" 1154 1800 basechar 0
AnchorPoint: "TehtaBelow" 854 -500 basechar 0
LayerCount: 2
Fore
SplineSet
1277 1310 m 1,0,-1
 1013 66 l 2,1,2
 993 -26 993 -26 968 -94.5 c 128,-1,3
 943 -163 943 -163 909.5 -215 c 128,-1,4
 876 -267 876 -267 833 -305 c 128,-1,5
 790 -343 790 -343 733 -373 c 0,6,7
 624 -426 624 -426 495 -426 c 0,8,9
 333 -426 333 -426 249 -347.5 c 128,-1,10
 165 -269 165 -269 175 -116 c 1,11,-1
 374 -14 l 1,12,13
 365 -82 365 -82 373 -126.5 c 128,-1,14
 381 -171 381 -171 402.5 -197.5 c 128,-1,15
 424 -224 424 -224 457 -235 c 128,-1,16
 490 -246 490 -246 532 -246 c 0,17,18
 602 -246 602 -246 661.5 -214 c 128,-1,19
 721 -182 721 -182 752 -126 c 0,20,21
 785 -63 785 -63 810 55 c 2,22,-1
 1077 1310 l 1,23,-1
 348 1310 l 1,24,-1
 381 1465 l 1,25,-1
 1578 1465 l 1,26,-1
 1545 1310 l 1,27,-1
 1277 1310 l 1,0,-1
EndSplineSet
Validated: 33
EndChar

StartChar: uniE078
Encoding: 120 57464 112
Width: 1490
GlyphClass: 1
Flags: W
AnchorPoint: "TehtaBelow" 990 -200 basechar 0
AnchorPoint: "TehtaAbove" 1390 1500 basechar 0
LayerCount: 2
Fore
SplineSet
1183 328 m 1,0,1
 1201 412 1201 412 1219 493 c 128,-1,2
 1237 574 1237 574 1254 658 c 0,3,4
 1282 789 1282 789 1248 859.5 c 128,-1,5
 1214 930 1214 930 1115 930 c 0,6,7
 1012 930 1012 930 949 859.5 c 128,-1,8
 886 789 886 789 857 651 c 2,9,-1
 788 328 l 1,10,-1
 1183 328 l 1,0,1
1361 328 m 1,11,-1
 1471 328 l 1,12,-1
 1438 173 l 1,13,-1
 755 173 l 1,14,-1
 733 66 l 2,15,16
 713 -26 713 -26 688 -95 c 128,-1,17
 663 -164 663 -164 630 -215.5 c 128,-1,18
 597 -267 597 -267 553.5 -305 c 128,-1,19
 510 -343 510 -343 454 -373 c 0,20,21
 342 -426 342 -426 215 -426 c 0,22,23
 75 -426 75 -426 -8 -363 c 1,24,-1
 113 -181 l 1,25,26
 158 -246 158 -246 252 -246 c 0,27,28
 321 -246 321 -246 380 -215 c 128,-1,29
 439 -184 439 -184 472 -126 c 0,30,31
 505 -63 505 -63 530 55 c 2,32,-1
 830 1465 l 1,33,-1
 1030 1465 l 1,34,-1
 938 1032 l 1,35,36
 1031 1085 1031 1085 1146 1085 c 0,37,38
 1235 1085 1235 1085 1298 1052.5 c 128,-1,39
 1361 1020 1361 1020 1397 963.5 c 128,-1,40
 1433 907 1433 907 1442.5 830 c 128,-1,41
 1452 753 1452 753 1432 663 c 2,42,-1
 1361 328 l 1,11,-1
EndSplineSet
Validated: 33
EndChar

StartChar: uniE079
Encoding: 121 57465 113
Width: 1491
GlyphClass: 1
Flags: W
AnchorPoint: "TehtaAbove" 1291 1500 basechar 0
AnchorPoint: "TehtaBelow" 991 -200 basechar 0
LayerCount: 2
Fore
SplineSet
1295 328 m 1,0,-1
 1375 702 l 2,1,2
 1389 771 1389 771 1386 815 c 128,-1,3
 1383 859 1383 859 1367 884.5 c 128,-1,4
 1351 910 1351 910 1323 920 c 128,-1,5
 1295 930 1295 930 1261 930 c 0,6,7
 1213 930 1213 930 1173 911 c 128,-1,8
 1133 892 1133 892 1108 854 c 1,9,10
 1111 820 1111 820 1106.5 780.5 c 128,-1,11
 1102 741 1102 741 1092 695 c 2,12,-1
 1014 328 l 1,13,-1
 1295 328 l 1,0,-1
836 328 m 1,14,-1
 916 702 l 2,15,16
 930 770 930 770 927.5 814.5 c 128,-1,17
 925 859 925 859 909 884.5 c 128,-1,18
 893 910 893 910 865.5 920 c 128,-1,19
 838 930 838 930 803 930 c 0,20,21
 734 930 734 930 683 898 c 1,22,-1
 675 892 l 1,23,-1
 555 328 l 1,24,-1
 836 328 l 1,14,-1
1439 173 m 1,25,-1
 522 173 l 1,26,-1
 500 67 l 2,27,28
 471 -68 471 -68 423 -162 c 128,-1,29
 375 -256 375 -256 309 -314.5 c 128,-1,30
 243 -373 243 -373 160 -399.5 c 128,-1,31
 77 -426 77 -426 -20 -426 c 1,32,-1
 18 -244 l 1,33,34
 96 -244 96 -244 145 -218 c 128,-1,35
 194 -192 194 -192 224 -149.5 c 128,-1,36
 254 -107 254 -107 270 -52.5 c 128,-1,37
 286 2 286 2 298 58 c 2,38,-1
 597 1465 l 1,39,-1
 797 1465 l 1,40,-1
 713 1068 l 1,41,42
 741 1077 741 1077 773.5 1081 c 128,-1,43
 806 1085 806 1085 841 1085 c 0,44,45
 978 1085 978 1085 1050 1006 c 1,46,47
 1101 1048 1101 1048 1161.5 1066.5 c 128,-1,48
 1222 1085 1222 1085 1300 1085 c 0,49,50
 1373 1085 1373 1085 1429.5 1062.5 c 128,-1,51
 1486 1040 1486 1040 1519.5 992.5 c 128,-1,52
 1553 945 1553 945 1562.5 871 c 128,-1,53
 1572 797 1572 797 1550 695 c 2,54,-1
 1439 173 l 1,25,-1
EndSplineSet
Validated: 33
EndChar

StartChar: uniE07A
Encoding: 122 57466 114
Width: 1102
GlyphClass: 1
Flags: W
AnchorPoint: "TehtaAbove" 1102 1500 basechar 0
AnchorPoint: "TehtaBelow" 702 -200 basechar 0
LayerCount: 2
Fore
SplineSet
624 1150 m 2,0,1
 609 1180 609 1180 600.5 1211.5 c 128,-1,2
 592 1243 592 1243 588.5 1280.5 c 128,-1,3
 585 1318 585 1318 587 1363.5 c 128,-1,4
 589 1409 589 1409 596 1465 c 1,5,-1
 779 1464 l 1,6,7
 767 1386 767 1386 772 1339.5 c 128,-1,8
 777 1293 777 1293 793 1260 c 2,9,-1
 1079 680 l 2,10,11
 1095 645 1095 645 1104 614.5 c 128,-1,12
 1113 584 1113 584 1116 553.5 c 128,-1,13
 1119 523 1119 523 1116 491 c 128,-1,14
 1113 459 1113 459 1105 422 c 0,15,16
 1086 330 1086 330 1035.5 248.5 c 128,-1,17
 985 167 985 167 910.5 106.5 c 128,-1,18
 836 46 836 46 741.5 10.5 c 128,-1,19
 647 -25 647 -25 539 -25 c 0,20,21
 436 -25 436 -25 360 6 c 128,-1,22
 284 37 284 37 236.5 97 c 128,-1,23
 189 157 189 157 171 246 c 128,-1,24
 153 335 153 335 165 451 c 1,25,-1
 361 476 l 1,26,27
 355 387 355 387 368 324.5 c 128,-1,28
 381 262 381 262 410 222 c 128,-1,29
 439 182 439 182 482.5 164 c 128,-1,30
 526 146 526 146 579 146 c 0,31,32
 636 146 636 146 691.5 170 c 128,-1,33
 747 194 747 194 793 234 c 128,-1,34
 839 274 839 274 872 326 c 128,-1,35
 905 378 905 378 917 435 c 0,36,37
 925 471 925 471 922 512 c 128,-1,38
 919 553 919 553 904 580 c 2,39,-1
 624 1150 l 2,0,1
EndSplineSet
Validated: 33
EndChar

StartChar: uniE07B
Encoding: 123 57467 115
Width: 1102
GlyphClass: 1
Flags: W
AnchorPoint: "TehtaBelow" 702 -500 basechar 0
AnchorPoint: "TehtaAbove" 1102 1500 basechar 0
LayerCount: 2
Fore
SplineSet
832 36 m 0,0,1
 844 93 844 93 832 140 c 1,2,3
 713 76 713 76 561 76 c 0,4,5
 458 76 458 76 382 107 c 128,-1,6
 306 138 306 138 258.5 199 c 128,-1,7
 211 260 211 260 192.5 348.5 c 128,-1,8
 174 437 174 437 187 553 c 1,9,-1
 383 579 l 1,10,11
 377 492 377 492 389 429 c 128,-1,12
 401 366 401 366 429.5 326 c 128,-1,13
 458 286 458 286 501 267 c 128,-1,14
 544 248 544 248 600 248 c 0,15,16
 657 248 657 248 712 271.5 c 128,-1,17
 767 295 767 295 813.5 334.5 c 128,-1,18
 860 374 860 374 893 426.5 c 128,-1,19
 926 479 926 479 939 537 c 0,20,21
 952 601 952 601 935 653 c 0,22,23
 934 655 934 655 931.5 663 c 128,-1,24
 929 671 929 671 925 682 c 1,25,-1
 925 681 l 1,26,27
 850 799 850 799 776 913 c 128,-1,28
 702 1027 702 1027 627 1145 c 0,29,30
 611 1177 611 1177 601.5 1210 c 128,-1,31
 592 1243 592 1243 588.5 1280.5 c 128,-1,32
 585 1318 585 1318 587 1363 c 128,-1,33
 589 1408 589 1408 596 1465 c 1,34,-1
 779 1464 l 1,35,36
 767 1386 767 1386 771.5 1339 c 128,-1,37
 776 1292 776 1292 793 1260 c 1,38,-1
 794 1261 l 1,39,40
 871 1140 871 1140 946 1024 c 128,-1,41
 1021 908 1021 908 1098 787 c 1,42,43
 1131 724 1131 724 1137 662 c 128,-1,44
 1143 600 1143 600 1127 523 c 0,45,46
 1096 380 1096 380 997 271 c 1,47,48
 1011 238 1011 238 1019.5 208.5 c 128,-1,49
 1028 179 1028 179 1030.5 150 c 128,-1,50
 1033 121 1033 121 1030.5 89.5 c 128,-1,51
 1028 58 1028 58 1020 22 c 0,52,53
 1001 -68 1001 -68 951 -149 c 128,-1,54
 901 -230 901 -230 826.5 -291 c 128,-1,55
 752 -352 752 -352 657 -388 c 128,-1,56
 562 -424 562 -424 454 -424 c 0,57,58
 252 -424 252 -424 154.5 -303.5 c 128,-1,59
 57 -183 57 -183 81 52 c 1,60,-1
 276 77 l 1,61,62
 266 -94 266 -94 323 -173 c 128,-1,63
 380 -252 380 -252 494 -252 c 0,64,65
 551 -252 551 -252 606.5 -228 c 128,-1,66
 662 -204 662 -204 708 -164 c 128,-1,67
 754 -124 754 -124 787 -72 c 128,-1,68
 820 -20 820 -20 832 36 c 0,0,1
EndSplineSet
Validated: 33
EndChar

StartChar: uniE07C
Encoding: 124 57468 116
Width: 1157
GlyphClass: 1
Flags: W
AnchorPoint: "TehtaAbove" 957 1500 basechar 0
AnchorPoint: "TehtaBelow" 657 -500 basechar 0
LayerCount: 2
Fore
SplineSet
-3 -434 m 1,0,1
 15 -376 15 -376 36 -338 c 128,-1,2
 57 -300 57 -300 80.5 -276.5 c 128,-1,3
 104 -253 104 -253 130.5 -241.5 c 128,-1,4
 157 -230 157 -230 185 -224 c 0,5,6
 244 -212 244 -212 412 -212 c 0,7,8
 521 -212 521 -212 595 -202 c 128,-1,9
 669 -192 669 -192 719.5 -171 c 128,-1,10
 770 -150 770 -150 803 -116.5 c 128,-1,11
 836 -83 836 -83 863 -36 c 0,12,13
 889 9 889 9 910 64.5 c 128,-1,14
 931 120 931 120 950 192 c 1,15,16
 908 144 908 144 861.5 108 c 128,-1,17
 815 72 815 72 768 50 c 1,18,-1
 768 51 l 1,19,20
 669 0 669 0 553 0 c 0,21,22
 450 0 450 0 369.5 36.5 c 128,-1,23
 289 73 289 73 238.5 141.5 c 128,-1,24
 188 210 188 210 172 308.5 c 128,-1,25
 156 407 156 407 182 531 c 0,26,27
 202 622 202 622 236.5 697.5 c 128,-1,28
 271 773 271 773 316 834 c 128,-1,29
 361 895 361 895 412.5 941 c 128,-1,30
 464 987 464 987 519 1019 c 0,31,32
 571 1050 571 1050 640 1067.5 c 128,-1,33
 709 1085 709 1085 790 1085 c 0,34,35
 884 1085 884 1085 951.5 1062 c 128,-1,36
 1019 1039 1019 1039 1066 998 c 128,-1,37
 1113 957 1113 957 1140.5 900.5 c 128,-1,38
 1168 844 1168 844 1181 777 c 0,39,40
 1207 643 1207 643 1136 309 c 0,41,42
 1047 -110 1047 -110 874 -256 c 0,43,44
 788 -329 788 -329 670 -365.5 c 128,-1,45
 552 -402 552 -402 404 -402 c 0,46,47
 326 -402 326 -402 281 -402.5 c 128,-1,48
 236 -403 236 -403 212 -406 c 128,-1,49
 188 -409 188 -409 178 -416 c 128,-1,50
 168 -423 168 -423 161 -436 c 1,51,-1
 -3 -434 l 1,0,1
376 527 m 0,52,53
 358 446 358 446 363 377.5 c 128,-1,54
 368 309 368 309 395 259.5 c 128,-1,55
 422 210 422 210 470.5 182.5 c 128,-1,56
 519 155 519 155 590 155 c 0,57,58
 663 155 663 155 726.5 184 c 128,-1,59
 790 213 790 213 840 265.5 c 128,-1,60
 890 318 890 318 926 392.5 c 128,-1,61
 962 467 962 467 981 559 c 0,62,63
 1000 649 1000 649 991.5 718.5 c 128,-1,64
 983 788 983 788 951.5 836 c 128,-1,65
 920 884 920 884 870 908.5 c 128,-1,66
 820 933 820 933 757 933 c 0,67,68
 689 933 689 933 627.5 902.5 c 128,-1,69
 566 872 566 872 516.5 818 c 128,-1,70
 467 764 467 764 430.5 689.5 c 128,-1,71
 394 615 394 615 376 527 c 0,52,53
EndSplineSet
Validated: 33
EndChar

StartChar: uniE07D
Encoding: 125 57469 117
Width: 0
Flags: W
AnchorPoint: "TehtaBelow" -400 -200 mark 0
AnchorPoint: "mkmk_down" -400 -200 mark 0
AnchorPoint: "mkmk_down" -500 -500 basemark 0
LayerCount: 2
Fore
SplineSet
-574 -169 m 0,0,1
 -534 -169 -534 -169 -502 -184 c 128,-1,2
 -470 -199 -470 -199 -449.5 -225 c 128,-1,3
 -429 -251 -429 -251 -421.5 -285.5 c 128,-1,4
 -414 -320 -414 -320 -422 -360 c 0,5,6
 -430 -399 -430 -399 -453.5 -433 c 128,-1,7
 -477 -467 -477 -467 -508.5 -491.5 c 128,-1,8
 -540 -516 -540 -516 -578 -530.5 c 128,-1,9
 -616 -545 -616 -545 -654 -545 c 0,10,11
 -693 -545 -693 -545 -725.5 -530 c 128,-1,12
 -758 -515 -758 -515 -778.5 -489 c 128,-1,13
 -799 -463 -799 -463 -807 -428.5 c 128,-1,14
 -815 -394 -815 -394 -807 -355 c 0,15,16
 -799 -318 -799 -318 -777 -284.5 c 128,-1,17
 -755 -251 -755 -251 -723.5 -225.5 c 128,-1,18
 -692 -200 -692 -200 -653.5 -184.5 c 128,-1,19
 -615 -169 -615 -169 -574 -169 c 0,0,1
-590 -244 m 0,20,21
 -616 -244 -616 -244 -639.5 -253.5 c 128,-1,22
 -663 -263 -663 -263 -682 -279 c 128,-1,23
 -701 -295 -701 -295 -714 -314.5 c 128,-1,24
 -727 -334 -727 -334 -732 -355 c 0,25,26
 -737 -378 -737 -378 -732.5 -398.5 c 128,-1,27
 -728 -419 -728 -419 -715.5 -434.5 c 128,-1,28
 -703 -450 -703 -450 -683.5 -459.5 c 128,-1,29
 -664 -469 -664 -469 -638 -469 c 0,30,31
 -613 -469 -613 -469 -589 -459.5 c 128,-1,32
 -565 -450 -565 -450 -546.5 -434.5 c 128,-1,33
 -528 -419 -528 -419 -514.5 -399 c 128,-1,34
 -501 -379 -501 -379 -497 -358 c 0,35,36
 -492 -336 -492 -336 -497 -315.5 c 128,-1,37
 -502 -295 -502 -295 -514.5 -279 c 128,-1,38
 -527 -263 -527 -263 -546.5 -253.5 c 128,-1,39
 -566 -244 -566 -244 -590 -244 c 0,20,21
EndSplineSet
Validated: 33
EndChar

StartChar: bar_above_narrow
Encoding: 129 -1 119
Width: 0
AnchorPoint: "mkmk_up" -150 1700 basemark 0
AnchorPoint: "mkmk_up" -200 1500 mark 0
AnchorPoint: "TehtaAbove" -200 1500 mark 0
LayerCount: 2
Fore
SplineSet
-57 1235 m 1,0,-1
 -471 1235 l 1,1,-1
 -431 1399 l 1,2,-1
 -17 1399 l 1,3,-1
 -57 1235 l 1,0,-1
EndSplineSet
Validated: 1
EndChar

StartChar: bar_above_wide
Encoding: 130 -1 120
Width: 0
AnchorPoint: "mkmk_up" -150 1700 basemark 0
AnchorPoint: "mkmk_up" -200 1500 mark 0
AnchorPoint: "TehtaAbove" -200 1500 mark 0
LayerCount: 2
Fore
SplineSet
257 1253 m 1,0,-1
 -790 1253 l 1,1,-1
 -756 1383 l 1,2,-1
 291 1383 l 1,3,-1
 257 1253 l 1,0,-1
EndSplineSet
Validated: 1
EndChar

StartChar: bar_below_narrow
Encoding: 131 -1 121
Width: 0
AnchorPoint: "mkmk_down" -400 -200 mark 0
AnchorPoint: "mkmk_down" -500 -500 basemark 0
AnchorPoint: "TehtaBelow" -400 -200 mark 0
LayerCount: 2
Fore
SplineSet
-432 -326 m 1,0,-1
 -846 -326 l 1,1,-1
 -805 -162 l 1,2,-1
 -391 -162 l 1,3,-1
 -432 -326 l 1,0,-1
EndSplineSet
Validated: 1
EndChar

StartChar: bar_below_wide
Encoding: 132 -1 122
Width: 0
AnchorPoint: "mkmk_down" -400 -200 mark 0
AnchorPoint: "mkmk_down" -500 -500 basemark 0
AnchorPoint: "TehtaBelow" -400 -200 mark 0
LayerCount: 2
Fore
SplineSet
-120 -326 m 1,0,-1
 -1168 -326 l 1,1,-1
 -1134 -196 l 1,2,-1
 -86 -196 l 1,3,-1
 -120 -326 l 1,0,-1
EndSplineSet
Validated: 1
EndChar

StartChar: lambe_bar_below
Encoding: 133 -1 123
Width: 0
Flags: W
AnchorPoint: "LambeBar" -175 800 mark 0
LayerCount: 2
Fore
SplineSet
3 655 m 1,0,-1
 -411 655 l 1,1,-1
 -381 799 l 1,2,-1
 33 799 l 1,3,-1
 3 655 l 1,0,-1
EndSplineSet
Validated: 1
EndChar

StartChar: uniE05B
Encoding: 97 57435 124
Width: 0
Flags: W
AnchorPoint: "mkmk_up" -100 1800 basemark 0
AnchorPoint: "mkmk_up" -200 1500 mark 0
AnchorPoint: "TehtaAbove" -200 1500 mark 0
LayerCount: 2
Fore
SplineSet
53 1282 m 1,0,-1
 -161 1282 l 1,1,-1
 -231 1449 l 1,2,3
 -268 1407 -268 1407 -304.5 1365.5 c 128,-1,4
 -341 1324 -341 1324 -379 1282 c 1,5,-1
 -592 1282 l 1,6,-1
 -308 1569 l 1,7,-1
 -116 1569 l 1,8,-1
 53 1282 l 1,0,-1
EndSplineSet
Validated: 1
EndChar

StartChar: uniE05C
Encoding: 98 57436 125
Width: 0
Flags: W
AnchorPoint: "mkmk_up" -100 1800 basemark 0
AnchorPoint: "mkmk_up" -200 1500 mark 0
AnchorPoint: "TehtaAbove" -200 1500 mark 0
LayerCount: 2
Fore
SplineSet
110 1570 m 1,0,-1
 -173 1284 l 1,1,-1
 -364 1284 l 1,2,-1
 -534 1570 l 1,3,-1
 -320 1570 l 1,4,-1
 -249 1403 l 1,5,6
 -211 1445 -211 1445 -175.5 1486.5 c 128,-1,7
 -140 1528 -140 1528 -102 1570 c 1,8,-1
 110 1570 l 1,0,-1
EndSplineSet
Validated: 1
EndChar

StartChar: harmasilme
Encoding: 134 -1 126
Width: 1732
Flags: W
LayerCount: 2
Fore
SplineSet
1894 1465 m 1,0,-1
 1583 0 l 1,1,-1
 1397 0 l 1,2,-1
 1425 133 l 1,3,4
 1282 -23 1282 -23 1091 -23 c 0,5,6
 994 -23 994 -23 924 24.5 c 128,-1,7
 854 72 854 72 819 169 c 1,8,9
 745 71 745 71 654 24 c 128,-1,10
 563 -23 563 -23 473 -23 c 0,11,12
 373 -23 373 -23 305 16 c 128,-1,13
 237 55 237 55 200 122.5 c 128,-1,14
 163 190 163 190 156 280 c 128,-1,15
 149 370 149 370 171 472 c 0,16,17
 202 618 202 618 253.5 743 c 128,-1,18
 305 868 305 868 374 969.5 c 128,-1,19
 443 1071 443 1071 527 1147 c 128,-1,20
 611 1223 611 1223 708 1271 c 0,21,22
 1093 1465 1093 1465 1713 1465 c 2,23,-1
 1894 1465 l 1,0,-1
1675 1310 m 1,24,25
 1280 1303 1280 1303 945 1207 c 0,26,27
 611 1112 611 1112 438 716 c 0,28,29
 390 609 390 609 368 506 c 0,30,31
 349 417 349 417 350.5 346.5 c 128,-1,32
 352 276 352 276 370.5 227 c 128,-1,33
 389 178 389 178 424.5 151.5 c 128,-1,34
 460 125 460 125 508 125 c 0,35,36
 562 125 562 125 610.5 153.5 c 128,-1,37
 659 182 659 182 699.5 233 c 128,-1,38
 740 284 740 284 770.5 355.5 c 128,-1,39
 801 427 801 427 820 513 c 1,40,-1
 821 520 l 1,41,42
 877 781 877 781 1093 1061 c 1,43,-1
 1277 1061 l 1,44,45
 1224 979 1224 979 1185.5 916 c 128,-1,46
 1147 853 1147 853 1119 803.5 c 128,-1,47
 1091 754 1091 754 1072.5 715 c 128,-1,48
 1054 676 1054 676 1042 642 c 128,-1,49
 1030 608 1030 608 1021.5 575.5 c 128,-1,50
 1013 543 1013 543 1005 506 c 0,51,52
 986 418 986 418 987.5 347.5 c 128,-1,53
 989 277 989 277 1008 227.5 c 128,-1,54
 1027 178 1027 178 1061.5 151.5 c 128,-1,55
 1096 125 1096 125 1144 125 c 0,56,57
 1181 125 1181 125 1221 138.5 c 128,-1,58
 1261 152 1261 152 1299 175.5 c 128,-1,59
 1337 199 1337 199 1370 230.5 c 128,-1,60
 1403 262 1403 262 1426 298 c 0,61,62
 1450 334 1450 334 1462.5 358.5 c 128,-1,63
 1475 383 1475 383 1482 400 c 2,64,-1
 1675 1310 l 1,24,25
EndSplineSet
Validated: 33
Ligature2: "Ligatures subtable" uniE024 zwj uniE00A
EndChar

StartChar: harmatinco
Encoding: 135 -1 127
Width: 1733
Flags: W
LayerCount: 2
Fore
SplineSet
864 -406 m 1,0,-1
 677 -406 l 1,1,-1
 792 132 l 1,2,3
 649 -25 649 -25 455 -25 c 0,4,5
 371 -25 371 -25 307.5 10 c 128,-1,6
 244 45 244 45 206 113.5 c 128,-1,7
 168 182 168 182 160 282 c 128,-1,8
 152 382 152 382 179 512 c 0,9,10
 235 774 235 774 455 1061 c 1,11,-1
 639 1061 l 1,12,13
 586 979 586 979 547.5 916 c 128,-1,14
 509 853 509 853 481.5 803.5 c 128,-1,15
 454 754 454 754 435.5 715 c 128,-1,16
 417 676 417 676 404.5 642 c 128,-1,17
 392 608 392 608 383.5 575.5 c 128,-1,18
 375 543 375 543 367 506 c 0,19,20
 348 418 348 418 349.5 347.5 c 128,-1,21
 351 277 351 277 369.5 227.5 c 128,-1,22
 388 178 388 178 423 151 c 128,-1,23
 458 124 458 124 506 124 c 2,24,-1
 510 124 l 2,25,26
 564 124 564 124 616.5 147.5 c 128,-1,27
 669 171 669 171 713.5 208 c 128,-1,28
 758 245 758 245 792 291.5 c 128,-1,29
 826 338 826 338 845 383 c 1,30,-1
 1075 1465 l 1,31,-1
 1262 1465 l 1,32,-1
 1148 928 l 1,33,34
 1290 1085 1290 1085 1484 1085 c 0,35,36
 1568 1085 1568 1085 1632 1049.5 c 128,-1,37
 1696 1014 1696 1014 1733.5 946 c 128,-1,38
 1771 878 1771 878 1779.5 778 c 128,-1,39
 1788 678 1788 678 1760 549 c 0,40,41
 1731 414 1731 414 1662.5 279 c 128,-1,42
 1594 144 1594 144 1485 0 c 1,43,-1
 1300 0 l 1,44,45
 1380 123 1380 123 1430.5 209 c 128,-1,46
 1481 295 1481 295 1502 346 c 0,47,48
 1550 453 1550 453 1571 555 c 0,49,50
 1590 642 1590 642 1589 712.5 c 128,-1,51
 1588 783 1588 783 1569.5 832.5 c 128,-1,52
 1551 882 1551 882 1515.5 909 c 128,-1,53
 1480 936 1480 936 1430 936 c 0,54,55
 1376 936 1376 936 1323.5 912.5 c 128,-1,56
 1271 889 1271 889 1227 851.5 c 128,-1,57
 1183 814 1183 814 1148 768 c 128,-1,58
 1113 722 1113 722 1094 677 c 1,59,-1
 864 -406 l 1,0,-1
EndSplineSet
Validated: 33
Ligature2: "Ligatures subtable" uniE00A zwj uniE000
EndChar

StartChar: hwestatinco
Encoding: 136 -1 128
Width: 1810
Flags: W
LayerCount: 2
Fore
SplineSet
941 -405 m 1,0,-1
 753 -405 l 1,1,-1
 868 132 l 1,2,3
 728 -25 728 -25 531 -25 c 0,4,5
 447 -25 447 -25 383 10 c 128,-1,6
 319 45 319 45 281.5 113.5 c 128,-1,7
 244 182 244 182 236 282 c 128,-1,8
 228 382 228 382 255 512 c 0,9,10
 296 702 296 702 422 906 c 1,11,-1
 263 906 l 1,12,-1
 296 1061 l 1,13,-1
 1065 1061 l 1,14,-1
 1151 1465 l 1,15,-1
 1338 1465 l 1,16,-1
 1224 928 l 1,17,18
 1366 1085 1366 1085 1560 1085 c 0,19,20
 1644 1085 1644 1085 1707.5 1050 c 128,-1,21
 1771 1015 1771 1015 1809 946.5 c 128,-1,22
 1847 878 1847 878 1855.5 778 c 128,-1,23
 1864 678 1864 678 1836 549 c 0,24,25
 1780 284 1780 284 1562 0 c 1,26,-1
 1377 0 l 1,27,28
 1429 82 1429 82 1468 145 c 128,-1,29
 1507 208 1507 208 1534.5 257.5 c 128,-1,30
 1562 307 1562 307 1580 346 c 128,-1,31
 1598 385 1598 385 1611 419 c 128,-1,32
 1624 453 1624 453 1632.5 486 c 128,-1,33
 1641 519 1641 519 1648 555 c 0,34,35
 1666 638 1666 638 1665.5 708 c 128,-1,36
 1665 778 1665 778 1646.5 828.5 c 128,-1,37
 1628 879 1628 879 1593 907.5 c 128,-1,38
 1558 936 1558 936 1507 936 c 0,39,40
 1468 936 1468 936 1429.5 922.5 c 128,-1,41
 1391 909 1391 909 1355.5 888 c 128,-1,42
 1320 867 1320 867 1289 842 c 128,-1,43
 1258 817 1258 817 1237 793 c 0,44,45
 1217 771 1217 771 1201 741.5 c 128,-1,46
 1185 712 1185 712 1171 677 c 1,47,-1
 941 -405 l 1,0,-1
617 906 m 1,48,49
 571 832 571 832 541 774 c 128,-1,50
 511 716 511 716 491.5 669 c 128,-1,51
 472 622 472 622 460.5 582.5 c 128,-1,52
 449 543 449 543 441 506 c 0,53,54
 424 424 424 424 424.5 354 c 128,-1,55
 425 284 425 284 443.5 233 c 128,-1,56
 462 182 462 182 497.5 153 c 128,-1,57
 533 124 533 124 585 124 c 0,58,59
 625 124 625 124 665 137.5 c 128,-1,60
 705 151 705 151 742.5 174.5 c 128,-1,61
 780 198 780 198 812 230 c 128,-1,62
 844 262 844 262 870 299 c 0,63,64
 946 411 946 411 984 589 c 1,65,-1
 986 602 l 1,66,67
 1005 696 1005 696 1016 771 c 128,-1,68
 1027 846 1027 846 1032 906 c 1,69,-1
 617 906 l 1,48,49
EndSplineSet
Validated: 33
Ligature2: "Ligatures subtable" uniE00B zwj uniE000
EndChar

StartChar: uni2E31
Encoding: 7 11825 129
Width: 361
Flags: W
LayerCount: 2
Fore
SplineSet
415 636 m 1,0,-1
 370 425 l 1,1,-1
 158 425 l 1,2,-1
 203 636 l 1,3,-1
 415 636 l 1,0,-1
EndSplineSet
Validated: 1
EndChar

StartChar: colon
Encoding: 2 58 130
Width: 361
Flags: W
LayerCount: 2
Fore
SplineSet
370 424 m 1,0,-1
 325 212 l 1,1,-1
 113 212 l 1,2,-1
 158 424 l 1,3,-1
 370 424 l 1,0,-1
460 849 m 1,4,-1
 415 637 l 1,5,-1
 203 637 l 1,6,-1
 248 849 l 1,7,-1
 460 849 l 1,4,-1
EndSplineSet
Validated: 1
EndChar

StartChar: uni205D
Encoding: 5 8285 131
Width: 361
Flags: W
LayerCount: 2
Fore
SplineSet
505 1061 m 1,0,-1
 460 850 l 1,1,-1
 248 850 l 1,2,-1
 293 1061 l 1,3,-1
 505 1061 l 1,0,-1
324 211 m 1,4,-1
 280 0 l 1,5,-1
 68 0 l 1,6,-1
 112 211 l 1,7,-1
 324 211 l 1,4,-1
415 636 m 1,8,-1
 370 425 l 1,9,-1
 158 425 l 1,10,-1
 203 636 l 1,11,-1
 415 636 l 1,8,-1
EndSplineSet
Validated: 1
EndChar

StartChar: uni2058
Encoding: 4 8280 132
Width: 945
Flags: W
LayerCount: 2
Fore
SplineSet
204 636 m 1,0,-1
 416 636 l 1,1,-1
 371 425 l 1,2,-1
 159 425 l 1,3,-1
 204 636 l 1,0,-1
784 636 m 1,4,-1
 995 636 l 1,5,-1
 950 425 l 1,6,-1
 739 425 l 1,7,-1
 784 636 l 1,4,-1
649 375 m 1,8,-1
 604 164 l 1,9,-1
 393 164 l 1,10,-1
 438 375 l 1,11,-1
 649 375 l 1,8,-1
760 897 m 1,12,-1
 715 686 l 1,13,-1
 504 686 l 1,14,-1
 549 897 l 1,15,-1
 760 897 l 1,12,-1
EndSplineSet
Validated: 1
EndChar

StartChar: uni2E2D
Encoding: 6 11821 133
Width: 1217
Flags: W
LayerCount: 2
Fore
SplineSet
931 1061 m 1,0,-1
 886 850 l 1,1,-1
 676 850 l 1,2,-1
 721 1061 l 1,3,-1
 931 1061 l 1,0,-1
750 211 m 1,4,-1
 706 0 l 1,5,-1
 496 0 l 1,6,-1
 540 211 l 1,7,-1
 750 211 l 1,4,-1
841 636 m 1,8,-1
 796 425 l 1,9,-1
 586 425 l 1,10,-1
 631 636 l 1,11,-1
 841 636 l 1,8,-1
1055 636 m 1,12,-1
 1266 636 l 1,13,-1
 1221 425 l 1,14,-1
 1010 425 l 1,15,-1
 1055 636 l 1,12,-1
205 636 m 1,16,-1
 416 636 l 1,17,-1
 371 425 l 1,18,-1
 160 425 l 1,19,-1
 205 636 l 1,16,-1
EndSplineSet
Validated: 1
EndChar

StartChar: uni204A
Encoding: 3 8266 134
Width: 855
Flags: W
LayerCount: 2
Fore
SplineSet
785 906 m 1,0,-1
 261 906 l 1,1,-1
 294 1061 l 1,2,-1
 996 1061 l 1,3,-1
 848 365 l 2,4,5
 826 261 826 261 785.5 187.5 c 128,-1,6
 745 114 745 114 691 66.5 c 128,-1,7
 637 19 637 19 570.5 -3 c 128,-1,8
 504 -25 504 -25 431 -25 c 0,9,10
 340 -25 340 -25 275 7 c 1,11,-1
 369 150 l 1,12,13
 407 130 407 130 459 130 c 0,14,15
 494 130 494 130 525.5 140 c 128,-1,16
 557 150 557 150 584 175.5 c 128,-1,17
 611 201 611 201 632.5 245 c 128,-1,18
 654 289 654 289 669 358 c 2,19,-1
 785 906 l 1,0,-1
EndSplineSet
Validated: 1
EndChar

StartChar: rightcurl_above_double
Encoding: 137 -1 135
Width: 0
Flags: W
AnchorPoint: "mkmk_up" -100 1800 basemark 0
AnchorPoint: "mkmk_up" -200 1500 mark 0
AnchorPoint: "TehtaAbove" -200 1500 mark 0
LayerCount: 2
Fore
SplineSet
177 1410 m 1,0,1
 181 1450 181 1450 178.5 1485 c 128,-1,2
 176 1520 176 1520 162 1542 c 0,3,4
 151 1559 151 1559 131.5 1565.5 c 128,-1,5
 112 1572 112 1572 93 1566 c 1,6,-1
 94 1566 l 1,7,8
 71 1555 71 1555 27 1512 c 2,9,-1
 -243 1239 l 1,10,-1
 -310 1341 l 1,11,-1
 32 1682 l 2,12,13
 66 1712 66 1712 96.5 1722 c 128,-1,14
 127 1732 127 1732 154.5 1727.5 c 128,-1,15
 182 1723 182 1723 205 1706 c 128,-1,16
 228 1689 228 1689 245 1662 c 0,17,18
 271 1622 271 1622 280 1565 c 128,-1,19
 289 1508 289 1508 289 1455 c 1,20,-1
 177 1410 l 1,0,1
-142 1410 m 1,21,22
 -138 1450 -138 1450 -140.5 1485 c 128,-1,23
 -143 1520 -143 1520 -157 1543 c 0,24,25
 -168 1560 -168 1560 -187 1566 c 128,-1,26
 -206 1572 -206 1572 -225 1566 c 1,27,-1
 -225 1567 l 1,28,29
 -248 1556 -248 1556 -292 1512 c 2,30,-1
 -562 1239 l 1,31,-1
 -629 1341 l 1,32,-1
 -287 1683 l 2,33,34
 -253 1713 -253 1713 -222.5 1723 c 128,-1,35
 -192 1733 -192 1733 -164.5 1728.5 c 128,-1,36
 -137 1724 -137 1724 -114 1706.5 c 128,-1,37
 -91 1689 -91 1689 -74 1662 c 0,38,39
 -48 1622 -48 1622 -39 1565.5 c 128,-1,40
 -30 1509 -30 1509 -30 1455 c 1,41,-1
 -142 1410 l 1,21,22
EndSplineSet
Validated: 37
Ligature2: "Ligatures subtable" uniE04A uniE04A
LCarets2: 1 0
EndChar

StartChar: leftcurl_above_double
Encoding: 138 -1 136
Width: 0
Flags: W
AnchorPoint: "mkmk_up" -100 1800 basemark 0
AnchorPoint: "mkmk_up" -200 1500 mark 0
AnchorPoint: "TehtaAbove" -200 1500 mark 0
LayerCount: 2
Fore
SplineSet
83 1905 m 5,0,1
 130 1891 130 1891 172 1867 c 132,-1,2
 214 1843 214 1843 238 1807 c 4,3,4
 255 1782 255 1782 263.5 1751.5 c 132,-1,5
 272 1721 272 1721 270 1687.5 c 132,-1,6
 268 1654 268 1654 253.5 1618 c 132,-1,7
 239 1582 239 1582 208 1546 c 6,8,-1
 -135 1203 l 5,9,-1
 -201 1305 l 5,10,-1
 72 1574 l 6,11,12
 96 1598 96 1598 110 1616 c 132,-1,13
 124 1634 124 1634 131 1649 c 132,-1,14
 138 1664 138 1664 139 1677 c 132,-1,15
 140 1690 140 1690 136 1705 c 5,16,-1
 137 1705 l 5,17,18
 132 1721 132 1721 126 1731 c 4,19,20
 118 1744 118 1744 103 1755 c 5,21,-1
 103 1753 l 5,22,23
 72 1773 72 1773 23 1779 c 5,24,-1
 83 1905 l 5,0,1
-145 1904 m 5,25,26
 -98 1890 -98 1890 -55.5 1866 c 132,-1,27
 -13 1842 -13 1842 10 1806 c 4,28,29
 27 1781 27 1781 35.5 1750.5 c 132,-1,30
 44 1720 44 1720 42 1686.5 c 132,-1,31
 40 1653 40 1653 25.5 1617 c 132,-1,32
 11 1581 11 1581 -20 1544 c 6,33,-1
 -363 1202 l 5,34,-1
 -428 1304 l 5,35,-1
 -156 1573 l 6,36,37
 -132 1597 -132 1597 -118 1615 c 132,-1,38
 -104 1633 -104 1633 -97 1648 c 132,-1,39
 -90 1663 -90 1663 -89 1676 c 132,-1,40
 -88 1689 -88 1689 -92 1704 c 5,41,-1
 -91 1704 l 5,42,43
 -96 1720 -96 1720 -102 1730 c 4,44,45
 -110 1743 -110 1743 -124 1754 c 5,46,-1
 -124 1752 l 5,47,48
 -155 1772 -155 1772 -205 1778 c 5,49,-1
 -145 1904 l 5,25,26
EndSplineSet
Validated: 37
Ligature2: "Ligatures subtable" uniE04C uniE04C
LCarets2: 1 0
EndChar

StartChar: lambe_xhook
Encoding: 140 -1 138
Width: 0
Flags: W
AnchorPoint: "LambeXhook" -350 0 mark 0
LayerCount: 2
Fore
SplineSet
-757 -549 m 1,0,1
 -798 -524 -798 -524 -833.5 -490.5 c 128,-1,2
 -869 -457 -869 -457 -883 -416 c 0,3,4
 -893 -385 -893 -385 -893 -352 c 128,-1,5
 -893 -319 -893 -319 -881 -287 c 128,-1,6
 -869 -255 -869 -255 -845.5 -224.5 c 128,-1,7
 -822 -194 -822 -194 -785 -167 c 1,8,-1
 -366 75 l 1,9,-1
 -328 -41 l 1,10,-1
 -661 -232 l 2,11,12
 -724 -268 -724 -268 -745.5 -298 c 128,-1,13
 -767 -328 -767 -328 -754 -369 c 0,14,15
 -740 -413 -740 -413 -668 -441 c 1,16,-1
 -757 -549 l 1,0,1
EndSplineSet
Validated: 33
EndChar
